<?xml version="1.0" encoding="utf-8"?>
<!-- Generator: Adobe Illustrator 25.0.0, SVG Export Plug-In . SVG Version: 6.00 Build 0)  -->
<svg version="1.1" id="Layer_1" xmlns="http://www.w3.org/2000/svg" xmlns:xlink="http://www.w3.org/1999/xlink" x="0px" y="0px"
	 width="32px" height="32px" viewBox="0 0 32 32" style="enable-background:new 0 0 32 32;" xml:space="preserve">
<style type="text/css">
	.st0{fill:#010101;}
</style>
<path class="st0" d="M28.6,16H27v4H5v-4H3.4C2.627,16,2,16.627,2,17.4v11.2C2,29.373,2.627,30,3.4,30h25.2
	c0.773,0,1.4-0.627,1.4-1.4V17.4C30,16.627,29.373,16,28.6,16z M26,25h-4v-2h4V25z"/>
<polygon class="st0" points="12,2 12,8 6,8 "/>
<path class="st0" d="M24.6,2H13v7H6v10h20V3.4C26,2.627,25.373,2,24.6,2z M23,16H9v-1h14V16z M23,13H9v-1h14V13z"/>
</svg>
