<?xml version="1.0" encoding="utf-8"?>
<!-- Generator: Adobe Illustrator 23.0.2, SVG Export Plug-In . SVG Version: 6.00 Build 0)  -->
<svg version="1.1" id="Layer_1" xmlns="http://www.w3.org/2000/svg" xmlns:xlink="http://www.w3.org/1999/xlink" x="0px" y="0px"
	 width="32px" height="32px" viewBox="0 0 32 32" style="enable-background:new 0 0 32 32;" xml:space="preserve">
<style type="text/css">
	.st0{fill:#010101;}
</style>
<path class="st0" d="M16,2C8.3,2,2,8.3,2,16s6.3,14,14,14s14-6.3,14-14S23.7,2,16,2z M17.2,25h-2.9c-0.6,0-1.1-0.3-1.4-0.7
	c-0.3-0.5-0.5-1-0.3-1.6l1.8-6.7h-1.5c-1,0-1.8-0.8-1.8-1.8s0.8-1.8,1.8-1.8h3.9c0.6,0,1.1,0.3,1.4,0.7c0.3,0.5,0.5,1,0.3,1.6
	l-1.8,6.7h0.5c1,0,1.8,0.8,1.8,1.8S18.2,25,17.2,25z M17.5,11C16.1,11,15,9.9,15,8.5S16.1,6,17.5,6S20,7.1,20,8.5S18.9,11,17.5,11z"
	/>
</svg>
