<?xml version="1.0" encoding="utf-8"?>
<!-- Generator: Adobe Illustrator 25.0.1, SVG Export Plug-In . SVG Version: 6.00 Build 0)  -->
<svg version="1.1" id="Layer_1" xmlns="http://www.w3.org/2000/svg" xmlns:xlink="http://www.w3.org/1999/xlink" x="0px" y="0px"
	 width="32px" height="32px" viewBox="0 0 32 32" style="enable-background:new 0 0 32 32;" xml:space="preserve">
<style type="text/css">
	.st0{fill:#010101;}
</style>
<path class="st0" d="M22.911,4.029c1.307,0.687,2.314,1.649,3.024,2.886C26.644,8.153,27,9.846,27,11.464
	c0,1.593-0.368,3.488-1.102,4.713c-0.735,1.226-1.773,2.169-3.118,2.831C21.436,19.669,19.881,20,18.113,20h-4.926
	C13.062,20,13,20.062,13,20.184v8.375c0,0.123-0.043,0.228-0.13,0.312C12.782,28.957,12.676,29,12.552,29H7.448
	c-0.125,0-0.23-0.043-0.317-0.129C7.043,28.786,7,28.682,7,28.559V3.441c0-0.122,0.043-0.226,0.131-0.312
	C7.218,3.043,7.323,3,7.448,3h10.964C20.104,3,21.604,3.343,22.911,4.029z M13,14.816C13,14.938,13.062,15,13.187,15h4.379
	C20,15,21,13.153,21,11.5S20,8,17.566,8h-4.379C13.062,8,13,8.062,13,8.184V14.816z"/>
</svg>
