<?xml version="1.0" encoding="utf-8"?>
<!-- Generator: Adobe Illustrator 25.0.1, SVG Export Plug-In . SVG Version: 6.00 Build 0)  -->
<svg version="1.1" id="Layer_1" xmlns="http://www.w3.org/2000/svg" xmlns:xlink="http://www.w3.org/1999/xlink" x="0px" y="0px"
	 width="32px" height="32px" viewBox="0 0 32 32" style="enable-background:new 0 0 32 32;" xml:space="preserve">
<style type="text/css">
	.st0{fill:#010101;}
</style>
<path class="st0" d="M14.694,19c-0.249,0-0.351-0.094-0.523-0.294l-3.947-5.001c-0.05-0.073-0.1-0.11-0.149-0.11
	c-0.05,0-0.075,0.049-0.075,0.147v14.816c0,0.123-0.044,0.228-0.131,0.312C9.782,28.957,9.676,29,9.552,29H4.448
	c-0.125,0-0.23-0.043-0.317-0.129C4.043,28.786,4,28.682,4,28.559V3.441c0-0.122,0.043-0.226,0.131-0.312
	C4.218,3.043,4.323,3,4.448,3h5.766c0.224,0,0.397,0.098,0.522,0.294l5.157,8.015c0.046,0.072,0.071,0.108,0.107,0.11
	c0.036-0.003,0.061-0.038,0.107-0.11l5.157-8.015C21.389,3.098,21.562,3,21.786,3h5.766c0.125,0,0.23,0.043,0.317,0.128
	C27.957,3.215,28,3.319,28,3.441v25.118c0,0.123-0.043,0.228-0.131,0.312C27.782,28.957,27.677,29,27.552,29h-5.104
	c-0.125,0-0.23-0.043-0.317-0.129C22.044,28.786,22,28.682,22,28.559V13.742c0-0.098-0.024-0.147-0.075-0.147
	c-0.049,0-0.099,0.037-0.149,0.11l-3.947,5.001C17.657,18.906,17.555,19,17.306,19H14.694z"/>
</svg>
