<?xml version="1.0" encoding="utf-8"?>
<!-- Generator: Adobe Illustrator 23.0.1, SVG Export Plug-In . SVG Version: 6.00 Build 0)  -->
<svg version="1.1" id="Layer_1" xmlns="http://www.w3.org/2000/svg" xmlns:xlink="http://www.w3.org/1999/xlink" x="0px" y="0px"
	 width="32px" height="32px" viewBox="0 0 32 32" style="enable-background:new 0 0 32 32;" xml:space="preserve">
<style type="text/css">
	.st0{fill:#010101;}
</style>
<path class="st0" d="M22,11c0,6.1-4.9,11-11,11S0,17.1,0,11S4.9,0,11,0S22,4.9,22,11z M11,3c-4.4,0-8,3.6-8,8s3.6,8,8,8s8-3.6,8-8
	S15.4,3,11,3z"/>
<path class="st0" d="M31,27l-8-8c-0.4-0.4-1.9-0.1-3,1s-1.4,2.6-1,3l8,8c0.4,0.4,1.9,0.1,3-1S31.4,27.4,31,27z"/>
</svg>
