<?xml version="1.0" encoding="utf-8"?>
<!-- Generator: Adobe Illustrator 23.0.2, SVG Export Plug-In . SVG Version: 6.00 Build 0)  -->
<svg version="1.1" id="Layer_1" xmlns="http://www.w3.org/2000/svg" xmlns:xlink="http://www.w3.org/1999/xlink" x="0px" y="0px"
	 width="32px" height="32px" viewBox="0 0 32 32" style="enable-background:new 0 0 32 32;" xml:space="preserve">
<style type="text/css">
	.st0{fill-rule:evenodd;clip-rule:evenodd;fill:#010101;}
</style>
<rect x="8" y="10" class="st0" width="2" height="2"/>
<rect x="8" y="14" class="st0" width="2" height="2"/>
<rect x="8" y="18" class="st0" width="2" height="2"/>
<rect x="8" y="22" class="st0" width="2" height="2"/>
<path class="st0" d="M19.4,2c-0.7-1.2-2-2-3.4-2s-2.7,0.8-3.4,2H4v28h24V2H19.4z M16,2c1.1,0,2,0.9,2,2s-0.9,2-2,2s-2-0.9-2-2
	S14.9,2,16,2z M26,28H6V6h4c0,1.1,0.9,2,2,2h8c1.1,0,2-0.9,2-2h4V28z"/>
</svg>
