<?xml version="1.0" encoding="utf-8"?>
<!-- Generator: Adobe Illustrator 23.0.2, SVG Export Plug-In . SVG Version: 6.00 Build 0)  -->
<svg version="1.1" id="Calque_1" xmlns="http://www.w3.org/2000/svg" xmlns:xlink="http://www.w3.org/1999/xlink" x="0px" y="0px"
	 width="32px" height="32px" viewBox="0 0 32 32" style="enable-background:new 0 0 32 32;" xml:space="preserve">
<style type="text/css">
	.st0{fill:#010101;}
</style>
<path class="st0" d="M28.6,22H3.3C2.6,22,2,22.6,2,23.3v5.5C2,29.4,2.6,30,3.3,30h25.4c0.7,0,1.3-0.6,1.3-1.3v-5.5
	C29.9,22.6,29.3,22,28.6,22z M24,28c-1.1,0-2-0.9-2-2s0.9-2,2-2s2,0.9,2,2S25.1,28,24,28z"/>
<ellipse class="st0" cx="16" cy="11" rx="3" ry="2"/>
<path class="st0" d="M26,2H6L2,20h28L26,2z M16,18c-1.3,0-2.6-0.2-3.7-0.5L14,14l-5.3,1.8C7,14.5,6,12.8,6,11c0-3.9,4.5-7,10-7
	s10,3.1,10,7S21.5,18,16,18z"/>
</svg>
