<?xml version="1.0" encoding="utf-8"?>
<!-- Generator: Adobe Illustrator 23.0.1, SVG Export Plug-In . SVG Version: 6.00 Build 0)  -->
<svg version="1.1" id="Calque_1" xmlns="http://www.w3.org/2000/svg" xmlns:xlink="http://www.w3.org/1999/xlink" x="0px" y="0px"
	 width="32px" height="32px" viewBox="0 0 32 32" style="enable-background:new 0 0 32 32;" xml:space="preserve">
<style type="text/css">
	.st0{fill:#010101;}
</style>
<rect x="6" y="22" class="st0" width="4" height="4"/>
<rect x="14" y="22" class="st0" width="4" height="4"/>
<rect x="22" y="22" class="st0" width="4" height="4"/>
<rect x="6" y="16" class="st0" width="4" height="4"/>
<rect x="14" y="16" class="st0" width="4" height="4"/>
<rect x="22" y="16" class="st0" width="4" height="4"/>
<rect x="6" y="10" class="st0" width="4" height="4"/>
<rect x="14" y="10" class="st0" width="4" height="4"/>
<rect x="22" y="10" class="st0" width="4" height="4"/>
<path class="st0" d="M22,4v2h-4V4c0-1.1-0.9-2-2-2l0,0c-1.1,0-2,0.9-2,2v2h-4V4c0-1.1-0.9-2-2-2l0,0C6.9,2,6,2.9,6,4v2H4
	C2.9,5.9,2,6.8,2,7.9V28c0,1.1,0.9,2,2,2h24c1.1,0,2-0.9,2-2V7.9c0-1.1-0.9-2-2-1.9h-2V4c0-1.1-0.9-2-2-2l0,0C22.9,2,22,2.9,22,4z
	 M28,28H4V8h24V28z"/>
</svg>
