<?xml version="1.0" encoding="utf-8"?>
<!-- Generator: Adobe Illustrator 25.0.1, SVG Export Plug-In . SVG Version: 6.00 Build 0)  -->
<svg version="1.1" id="Layer_1" xmlns="http://www.w3.org/2000/svg" xmlns:xlink="http://www.w3.org/1999/xlink" x="0px" y="0px"
	 width="32px" height="32px" viewBox="0 0 32 32" style="enable-background:new 0 0 32 32;" xml:space="preserve">
<style type="text/css">
	.st0{fill:#010101;}
</style>
<path class="st0" d="M13.415,29c-0.127,0-0.233-0.044-0.322-0.131C13.004,28.782,13,28.677,13,28.553v-8.828
	c0-0.099-0.013-0.173-0.038-0.224L5.076,3.521C5.025,3.422,5,3.348,5,3.298C5,3.099,5.138,3,5.416,3h5.8
	c0.252,0,0.428,0.112,0.529,0.335l4.142,9.553C15.924,12.963,15.962,13,16,13c0.038,0,0.076-0.037,0.114-0.112l4.142-9.553
	C20.356,3.112,20.533,3,20.784,3h5.8C26.862,3,27,3.099,27,3.298c0,0.05-0.025,0.125-0.076,0.224l-7.887,15.979
	C19.013,19.551,19,19.625,19,19.724v8.828c0,0.125-0.004,0.23-0.093,0.317C18.819,28.956,18.712,29,18.585,29H13.415z"/>
</svg>
