<?xml version="1.0" encoding="utf-8"?>
<!-- Generator: Adobe Illustrator 23.0.2, SVG Export Plug-In . SVG Version: 6.00 Build 0)  -->
<svg version="1.1" id="Layer_1" xmlns="http://www.w3.org/2000/svg" xmlns:xlink="http://www.w3.org/1999/xlink" x="0px" y="0px"
	 width="32px" height="32px" viewBox="0 0 32 32" style="enable-background:new 0 0 32 32;" xml:space="preserve">
<style type="text/css">
	.st0{fill:#010101;}
</style>
<path class="st0" d="M28,21l-10.5-8.2C17.8,11.9,18,11,18,10c0-4.4-3.6-8-8-8C9.3,2,8.6,2.1,7.9,2.3l3.8,3.8l1,3.3l-3.4,3.4l-3.3-1
	L2.3,7.9C2.1,8.6,2,9.3,2,10c0,4.4,3.6,8,8,8c1,0,1.9-0.2,2.8-0.5L21,28c0.9,1.2,2.4,2,4,2c2.8,0,5-2.2,5-5C30,23.4,29.2,21.9,28,21
	z M25,27c-1.1,0-2-0.9-2-2c0-1.1,0.9-2,2-2c1.1,0,2,0.9,2,2C27,26.1,26.1,27,25,27z"/>
<path class="st0" d="M13.4,21L12,19.6c-0.8-0.8-2-0.8-2.8,0l-5.6,5.6c-0.8,0.8-0.8,2,0,2.8L5,29.4c0.8,0.8,2,0.8,2.8,0l5.6-5.6
	C14.2,23,14.2,21.8,13.4,21z"/>
<polygon class="st0" points="20,11.6 21.4,13 26.4,8 27.8,8 29.6,5.6 27.4,3.4 25,5.2 25,6.6 "/>
</svg>
