<?xml version="1.0" encoding="utf-8"?>
<!-- Generator: Adobe Illustrator 25.0.0, SVG Export Plug-In . SVG Version: 6.00 Build 0)  -->
<svg version="1.1" id="Layer_1" xmlns="http://www.w3.org/2000/svg" xmlns:xlink="http://www.w3.org/1999/xlink" x="0px" y="0px"
	 width="32px" height="32px" viewBox="0 0 32 32" style="enable-background:new 0 0 32 32;" xml:space="preserve">
<style type="text/css">
	.st0{fill:#010101;}
</style>
<rect x="1" y="22" class="st0" width="30" height="2"/>
<path class="st0" d="M1,8v13h30V8H1z M4,17H2v-2h2V17z M7,17H5v-2h2V17z M10,17H8v-2h2V17z M13,17h-2v-2h2V17z M16,17h-2v-2h2V17z
	 M19,17h-2v-2h2V17z M24,17h-4v-2h4V17z M24,14h-4v-2h4V14z M30,17h-4v-2h4V17z M30,14h-4v-2h4V14z"/>
</svg>
