<?xml version="1.0" encoding="utf-8"?>
<!-- Generator: Adobe Illustrator 23.0.1, SVG Export Plug-In . SVG Version: 6.00 Build 0)  -->
<svg version="1.1" id="Layer_1" xmlns="http://www.w3.org/2000/svg" xmlns:xlink="http://www.w3.org/1999/xlink" x="0px" y="0px"
	 width="32px" height="32px" viewBox="0 0 32 32" style="enable-background:new 0 0 32 32;" xml:space="preserve">
<style type="text/css">
	.st0{fill:#010101;}
</style>
<polygon points="14.8,8.2 15.3,8.4 15.5,7.9 15.2,7.6 "/>
<path d="M15.2,16L15.2,16l0.5,0.2c0,0,0.3,0.3,0.4,0.3c0,0,0.3,0,0.3,0l0-0.1L15.9,16H15.2z"/>
<polygon points="16.7,16.4 16.7,16.6 16.6,16.7 17.4,16.7 17.4,16.5 17.1,16.4 "/>
<path class="st0" d="M16,2C8.3,2,2,8.3,2,16s6.3,14,14,14s14-6.3,14-14S23.7,2,16,2z M4,16c0-3.1,1.2-5.8,3-8l2.8,3.9l0.3,2l0.5,0.6
	l0.2,0.5l0.9,1l-0.4-1.1c0,0,0.9,1.1,0.9,1.1c0,0,0.1,0.5,0.1,0.5l1,0.5L14,17l0.2,0.4l0.6,0.1l0.6,0.8h0.6l-0.3,1.1l0.5,1.9
	l0.7,0.4l-0.7,5l0.5,1l0.6,0.2C16.9,28,16.4,28,16,28C9.4,28,4,22.6,4,16z M17.7,27.9L17.3,27l0.5-0.6l-0.1-0.8l1.2-1.5l1.1-1.5
	l0.9-0.4l0.3-1.6l0.5-0.5l-0.1-0.6l-1.2-0.3l-0.7-1l-2.3-0.7l-1.1,0.1l-0.2,0.3l-0.4-0.2l-0.2,0.2l-0.2-0.4l-0.1-0.4l-0.7-0.4
	c0,0,0.2-0.6,0.2-0.6c-0.1,0-0.5,0-0.5,0l-0.2,0.4c0,0-0.4,0-0.5,0s-0.1-1.3-0.1-1.3l1.4-0.3l0.3,0.2l0.2,0.7l0.3-0.1l-0.2-0.9
	l0.8-0.7v-0.5l1.2-1.1l0.1,0.2c0,0,0.7-0.3,0.7-0.3c0-0.1-0.3-0.5-0.3-0.5s0.7-0.6,0.7-0.6c0-0.1,0.1-0.5,0.1-0.5s-1-1.8-1-1.8
	c0,0-0.3,0.4-0.3,0.4L17,8.9l-0.6-0.6H16l-0.1,1l0.3,0.7l-0.3,0.3l0,0.6L15.5,11l-0.1-0.7l-1.5-0.9L14,8l1.4-0.9L15,6h-2l-0.3,0.6
	l-4.1,0c0.6-0.5,1.2-0.9,1.9-1.2l0.2,0.5L12.5,6l0.6-0.3l0.7,0.1l0.1-1.2L11.1,5c1.2-0.5,2.4-0.9,3.8-1l-0.4,0.1l-0.1,1.2l0.9,0.5
	l0.9,0.1l0.5,0.6l-0.1,0.9l-0.4,0.2l1.5,0.9l0.1-0.1L17.5,8c0,0,0.3-0.1,0.3-0.1l-0.2-0.7l0.4,0.1l0.1-0.4c0,0-0.6-0.5-0.6-0.6
	s-0.1-0.7-0.1-0.7L15.8,4c0.1,0,0.1,0,0.2,0c1.9,0,3.7,0.5,5.3,1.2l-2.1-0.4L19,5.4l0.2,2.2l1,1.3h0.6l0.7-1.6l0.7-0.6l-0.2-1
	c3.6,2.1,6,5.9,6,10.4C28,22,23.5,27,17.7,27.9z"/>
</svg>
