<?xml version="1.0" encoding="utf-8"?>
<!-- Generator: Adobe Illustrator 23.0.1, SVG Export Plug-In . SVG Version: 6.00 Build 0)  -->
<svg version="1.1" id="Layer_1" xmlns="http://www.w3.org/2000/svg" xmlns:xlink="http://www.w3.org/1999/xlink" x="0px" y="0px"
	 width="32px" height="32px" viewBox="0 0 32 32" style="enable-background:new 0 0 32 32;" xml:space="preserve">
<style type="text/css">
	.st0{fill:#010101;}
</style>
<path class="st0" d="M19,23v-4h-2.3c-0.1-0.5-0.3-0.9-0.5-1.3l1.6-1.6l-2.8-2.8l-1.6,1.6c-0.4-0.2-0.9-0.4-1.3-0.5V12H8v2.3
	c-0.5,0.1-0.9,0.3-1.3,0.5l-1.6-1.6l-2.8,2.8l1.6,1.6c-0.2,0.4-0.4,0.9-0.5,1.3H1v4h2.3c0.1,0.5,0.3,0.9,0.5,1.3l-1.6,1.6l2.8,2.8
	l1.6-1.6c0.4,0.2,0.9,0.4,1.3,0.5V30h4v-2.3c0.5-0.1,0.9-0.3,1.3-0.5l1.6,1.6l2.8-2.8l-1.6-1.6c0.2-0.4,0.4-0.9,0.5-1.3H19z M10,25
	c-2.2,0-4-1.8-4-4s1.8-4,4-4s4,1.8,4,4S12.2,25,10,25z"/>
<path class="st0" d="M31,10.5v-3h-1.2C29.7,7,29.4,6.4,29.2,6L30,5.1L27.9,3L27,3.8c-0.5-0.3-1-0.5-1.5-0.6V2h-3v1.2
	C22,3.3,21.4,3.6,21,3.8L20.1,3L18,5.1L18.8,6c-0.3,0.5-0.5,1-0.6,1.5H17v3h1.2c0.1,0.5,0.4,1.1,0.6,1.5L18,12.9l2.1,2.1l0.8-0.8
	c0.5,0.3,1,0.5,1.5,0.6V16h3v-1.2c0.5-0.1,1.1-0.4,1.5-0.6l0.8,0.8l2.1-2.1L29.2,12c0.3-0.5,0.5-1,0.6-1.5H31z M24,12
	c-1.7,0-3-1.3-3-3s1.3-3,3-3s3,1.3,3,3S25.7,12,24,12z"/>
</svg>
