<?xml version="1.0" encoding="utf-8"?>
<!-- Generator: Adobe Illustrator 23.0.2, SVG Export Plug-In . SVG Version: 6.00 Build 0)  -->
<svg version="1.1" id="Layer_1" xmlns="http://www.w3.org/2000/svg" xmlns:xlink="http://www.w3.org/1999/xlink" x="0px" y="0px"
	 width="32px" height="32px" viewBox="0 0 32 32" style="enable-background:new 0 0 32 32;" xml:space="preserve">
<style type="text/css">
	.st0{fill:#010101;}
</style>
<path class="st0" d="M10.2,30C8,30,6,29.2,4.4,27.7c-3.2-3.1-3.2-8.1,0-11.2L17.6,3.7C18.7,2.6,20.2,2,21.9,2c1.6,0,3.1,0.6,4.3,1.7
	c1.1,1.1,1.8,2.6,1.8,4.2c0,1.6-0.6,3-1.8,4.2L14.5,23.3c-0.8,0.7-1.8,1.1-2.8,1.1c-1.1,0-2.1-0.4-2.8-1.1c-1.6-1.5-1.6-4,0-5.5
	l9.7-9.3c0.5-0.5,1.4-0.5,2,0c0.5,0.5,0.5,1.4,0,1.9l-9.7,9.3c-0.5,0.4-0.5,1.2,0,1.6c0.5,0.4,1.2,0.4,1.7,0l11.6-11.3
	c0.6-0.6,1-1.4,1-2.2s-0.3-1.6-1-2.2c-0.6-0.6-1.4-0.9-2.3-0.9c-0.9,0-1.7,0.3-2.3,0.9L6.4,18.4c-2.1,2-2.1,5.3,0,7.4
	c1,1,2.4,1.5,3.8,1.5c1.4,0,2.8-0.5,3.8-1.5l13.6-13.2c0.5-0.5,1.4-0.5,2,0c0.5,0.5,0.5,1.4,0,1.9L16,27.7
	C14.5,29.2,12.4,30,10.2,30z"/>
</svg>
