<?xml version="1.0" encoding="utf-8"?>
<!-- Generator: Adobe Illustrator 23.0.1, SVG Export Plug-In . SVG Version: 6.00 Build 0)  -->
<svg version="1.1" id="Layer_1" xmlns="http://www.w3.org/2000/svg" xmlns:xlink="http://www.w3.org/1999/xlink" x="0px" y="0px"
	 width="32px" height="32px" viewBox="0 0 32 32" style="enable-background:new 0 0 32 32;" xml:space="preserve">
<style type="text/css">
	.st0{fill:#010101;}
</style>
<path class="st0" d="M19,16.3l4-3.3l-5.1,1.3c-0.1,0-0.2-0.1-0.3-0.1L14,8l1.3,7c-0.2,0.3-0.3,0.7-0.3,1c0,1.1,0.9,2,2,2
	C18,18,18.8,17.2,19,16.3z"/>
<path class="st0" d="M17,2C9.3,2,3,8.2,3,16c0,2.1,0.5,4,1.3,5.7L0,26h12V14l-4.6,4.6C7.2,17.8,7,16.9,7,16c0-5.5,4.5-10,10-10
	s10,4.5,10,10s-4.5,10-10,10v4c7.7,0,14-6.3,14-14S24.7,2,17,2z"/>
</svg>
