<?xml version="1.0" encoding="utf-8"?>
<!-- Generator: Adobe Illustrator 25.0.1, SVG Export Plug-In . SVG Version: 6.00 Build 0)  -->
<svg version="1.1" id="Layer_1" xmlns="http://www.w3.org/2000/svg" xmlns:xlink="http://www.w3.org/1999/xlink" x="0px" y="0px"
	 width="32px" height="32px" viewBox="0 0 32 32" style="enable-background:new 0 0 32 32;" xml:space="preserve">
<style type="text/css">
	.st0{fill:#010101;}
</style>
<path class="st0" d="M25,20.785c0,1.462-0.246,2.736-0.739,3.819c-0.64,1.539-1.686,2.755-3.137,3.649
	c-1.452,0.896-3.151,1.343-5.095,1.343c-1.92,0-3.606-0.454-5.058-1.361c-1.452-0.908-2.605-2.156-3.27-3.744
	C7.233,23.381,7,22.134,7,20.746V9.516c0-1.361,0.363-2.565,1.089-3.611c0.726-1.046,1.842-1.859,3.159-2.439
	c1.316-0.58,2.836-0.87,4.559-0.87c1.674,0,3.156,0.284,4.449,0.851c1.292,0.567,2.294,1.374,3.008,2.42
	c0.714,1.047,1.071,2.238,1.071,3.574v1.106c0,0.127-0.043,0.234-0.129,0.321C24.119,10.956,24.015,11,23.892,11H18.65
	c-0.124,0-0.228-0.044-0.314-0.132c-0.086-0.088-0.128-0.195-0.128-0.321v-0.378c0-0.517-0.228-1.068-0.684-1.522
	c-0.456-0.454-1.04-0.681-1.754-0.681c-0.738,0-1.347,0.234-1.827,0.7c-0.48,0.467-0.72,1.053-0.72,1.758v2.95
	c0,0.076,0.024,0.127,0.074,0.152c0.049,0.025,0.098,0.013,0.147-0.038c0.96-0.756,2.203-1.135,3.729-1.135
	c1.501,0,2.873,0.378,4.117,1.135c1.243,0.756,2.208,1.841,2.898,3.252C24.729,17.873,25,19.222,25,20.785z M18.872,20.898
	c0-0.807-0.198-1.525-0.591-2.156c-0.517-0.756-1.255-1.134-2.215-1.134c-1.058,0-1.822,0.391-2.289,1.172
	c-0.345,0.554-0.517,1.261-0.517,2.117c0,0.781,0.16,1.462,0.48,2.042c0.467,0.857,1.23,1.286,2.289,1.286
	c1.009,0,1.772-0.429,2.289-1.286C18.687,22.361,18.872,21.68,18.872,20.898z"/>
</svg>
