<?xml version="1.0" encoding="utf-8"?>
<!-- Generator: Adobe Illustrator 23.0.2, SVG Export Plug-In . SVG Version: 6.00 Build 0)  -->
<svg version="1.1" id="Layer_1" xmlns="http://www.w3.org/2000/svg" xmlns:xlink="http://www.w3.org/1999/xlink" x="0px" y="0px"
	 width="32px" height="32px" viewBox="0 0 32 32" style="enable-background:new 0 0 32 32;" xml:space="preserve">
<style type="text/css">
	.st0{fill:#010101;}
</style>
<path class="st0" d="M16,23V13c0-0.6,0.4-1,1-1h11v-2H6V8h22V6H6V4h22v0c0-1.1-0.9-2-2-2H4C2.9,2,2,2.9,2,4v24c0,1.1,0.9,2,2,2h22
	c1.1,0,2-0.9,2-2v-4H17C16.4,24,16,23.6,16,23z"/>
<path class="st0" d="M29,14H19c-0.5,0-1,0.4-1,1v6c0,0.5,0.4,1,1,1h10c0.5,0,1-0.4,1-1v-6C30,14.5,29.6,14,29,14z M22,20
	c-1.1,0-2-0.9-2-2c0-1.1,0.9-2,2-2s2,0.9,2,2C24,19.1,23.1,20,22,20z"/>
</svg>
