<?xml version="1.0" encoding="utf-8"?>
<!-- Generator: Adobe Illustrator 25.0.1, SVG Export Plug-In . SVG Version: 6.00 Build 0)  -->
<svg version="1.1" id="Layer_1" xmlns="http://www.w3.org/2000/svg" xmlns:xlink="http://www.w3.org/1999/xlink" x="0px" y="0px"
	 width="32px" height="32px" viewBox="0 0 32 32" style="enable-background:new 0 0 32 32;" xml:space="preserve">
<style type="text/css">
	.st0{fill:#010101;}
</style>
<path class="st0" d="M27.872,25.629l-2.401-2.401C25.822,22.059,26,20.743,26,19.544v-7.088c0-1.862-0.423-4.011-1.27-5.445
	c-0.846-1.434-1.862-2.549-3.393-3.345S18.016,2.5,16,2.5s-3.807,0.37-5.338,1.166S8.115,5.578,7.27,7.011
	C6.423,8.445,6,10.594,6,12.456v7.088c0,1.862,0.423,4.011,1.27,5.445c0.846,1.434,1.862,2.549,3.393,3.345S13.984,29.5,16,29.5
	s3.807-0.37,5.338-1.166c0.168-0.088,0.308-0.194,0.465-0.289l1.827,1.827c0.171,0.171,0.447,0.171,0.618,0l3.625-3.625
	C28.043,26.077,28.043,25.8,27.872,25.629z M16,24c-1.17,0-2.14-0.386-2.874-1.158C12.392,22.07,12,21.059,12,19.809v-7.617
	c0-1.25,0.392-2.261,1.126-3.033C13.86,8.386,14.83,8,16,8s2.14,0.386,2.874,1.158C19.608,9.93,20,10.941,20,12.191v6.033
	c-0.031,0.018-0.064,0.033-0.091,0.06l-3.625,3.625c-0.171,0.171-0.171,0.447,0,0.618l1.213,1.213C17.042,23.908,16.545,24,16,24z"
	/>
</svg>
