<?xml version="1.0" encoding="utf-8"?>
<!-- Generator: Adobe Illustrator 23.0.1, SVG Export Plug-In . SVG Version: 6.00 Build 0)  -->
<svg version="1.1" id="Layer_1" xmlns="http://www.w3.org/2000/svg" xmlns:xlink="http://www.w3.org/1999/xlink" x="0px" y="0px"
	 width="32px" height="32px" viewBox="0 0 32 32" style="enable-background:new 0 0 32 32;" xml:space="preserve">
<style type="text/css">
	.st0{display:none;fill:#D9F0FC;}
	.st1{fill:#010101;}
</style>
<rect class="st0" width="32" height="32"/>
<g>
	<path class="st1" d="M26,6c-2.1-2.1-4.4-3.5-6-3.9l-1.3,1.3c0.1,0.3,0.2,0.7,0.3,1.1l-6.4,6.4c0.6,1.5,1.8,3.3,3.5,5s3.5,2.9,5,3.5
		l6.4-6.4c0.4,0.2,0.7,0.3,1.1,0.3l1.3-1.3C29.6,10.4,28.2,8.1,26,6z"/>
	<path class="st1" d="M14.7,17.3c-1.7-1.7-3.5-4.9-3.5-4.9c0,0-2.8-1.4-4.9,0.7c-1.8,1.8-0.8,5.8,2.1,9.2l-5,5L2,30l2.8-1.4l5-5
		c3.4,3,7.3,4,9.2,2.1c2.1-2.1,0.7-4.9,0.7-4.9C19.7,20.8,16.4,18.9,14.7,17.3z"/>
</g>
</svg>
