<?xml version="1.0" encoding="utf-8"?>
<!-- Generator: Adobe Illustrator 23.0.1, SVG Export Plug-In . SVG Version: 6.00 Build 0)  -->
<svg version="1.1" id="Layer_1" xmlns="http://www.w3.org/2000/svg" xmlns:xlink="http://www.w3.org/1999/xlink" x="0px" y="0px"
	 width="32px" height="32px" viewBox="0 0 32 32" style="enable-background:new 0 0 32 32;" xml:space="preserve">
<style type="text/css">
	.st0{fill:#010101;}
</style>
<path class="st0" d="M16,6C9.4,6,4,11.4,4,18c0,2.9,1.1,5.6,2.8,7.7l-2.5,2.5C4,28.5,3.9,29,4.1,29.4c0.3,0.6,1.2,0.8,1.7,0.3
	l2.5-2.5c2.1,1.7,4.8,2.8,7.7,2.8s5.6-1.1,7.7-2.8l2.5,2.5c0.5,0.5,1.4,0.4,1.7-0.3c0.2-0.4,0.1-0.9-0.2-1.2l-2.5-2.5
	c1.7-2.1,2.8-4.8,2.8-7.7C28,11.4,22.6,6,16,6z M16,28c-5.5,0-10-4.5-10-10S10.5,8,16,8s10,4.5,10,10S21.5,28,16,28z"/>
<path class="st0" d="M16,11.1c-0.6,0-1,0.4-1,1V18l-2.5,2.5c-0.3,0.3-0.4,0.8-0.2,1.2c0.3,0.6,1.2,0.8,1.7,0.3l3-3l0-6.9
	C17,11.5,16.6,11.1,16,11.1z"/>
<path class="st0" d="M25,2c-2,0-3.6,1.1-4.5,2.8c3.2,1.1,5.8,3.3,7.5,6.2C29.2,10,30,8.6,30,7C30,4.2,27.8,2,25,2z"/>
<path class="st0" d="M11.5,4.8C10.6,3.1,9,2,7,2C4.2,2,2,4.2,2,7c0,1.6,0.8,3,1.9,3.9C5.6,8.1,8.3,5.9,11.5,4.8z"/>
</svg>
