<?xml version="1.0" encoding="utf-8"?>
<!-- Generator: Adobe Illustrator 25.0.1, SVG Export Plug-In . SVG Version: 6.00 Build 0)  -->
<svg version="1.1" id="Layer_1" xmlns="http://www.w3.org/2000/svg" xmlns:xlink="http://www.w3.org/1999/xlink" x="0px" y="0px"
	 width="32px" height="32px" viewBox="0 0 32 32" style="enable-background:new 0 0 32 32;" xml:space="preserve">
<style type="text/css">
	.st0{fill:#010101;}
</style>
<path class="st0" d="M20.131,3.128C20.218,3.043,20.323,3,20.448,3h5.103c0.125,0,0.23,0.043,0.318,0.128
	C25.955,3.215,26,3.319,26,3.441v25.118c0,0.123-0.045,0.228-0.131,0.312C25.781,28.957,25.676,29,25.551,29h-5.103
	c-0.125,0-0.23-0.043-0.317-0.129C20.043,28.786,20,28.682,20,28.559v-9.875c0-0.122-0.062-0.184-0.187-0.184h-7.627
	C12.062,18.5,12,18.562,12,18.684v9.875c0,0.123-0.044,0.228-0.131,0.312C11.782,28.957,11.676,29,11.552,29H6.448
	c-0.125,0-0.23-0.043-0.317-0.129C6.043,28.786,6,28.682,6,28.559V3.441c0-0.122,0.043-0.226,0.131-0.312
	C6.218,3.043,6.323,3,6.448,3h5.104c0.125,0,0.23,0.043,0.317,0.128C11.956,3.215,12,3.319,12,3.441v9.875
	c0,0.123,0.062,0.184,0.187,0.184h7.627c0.124,0,0.187-0.061,0.187-0.184V3.441C20,3.319,20.043,3.215,20.131,3.128z"/>
</svg>
