<?xml version="1.0" encoding="utf-8"?>
<!-- Generator: Adobe Illustrator 23.0.2, SVG Export Plug-In . SVG Version: 6.00 Build 0)  -->
<svg version="1.1" id="Layer_1" xmlns="http://www.w3.org/2000/svg" xmlns:xlink="http://www.w3.org/1999/xlink" x="0px" y="0px"
	 width="32px" height="32px" viewBox="0 0 32 32" style="enable-background:new 0 0 32 32;" xml:space="preserve">
<style type="text/css">
	.st0{fill:#010101;}
</style>
<path class="st0" d="M30,6H20V2h-8v4H2C0.9,6,0,6.9,0,8v18c0,1.1,0.9,2,2,2h28c1.1,0,2-0.9,2-2V8C32,6.9,31.1,6,30,6z M10,11
	c1.7,0,3,1.3,3,3s-1.3,3-3,3s-3-1.3-3-3S8.3,11,10,11z M14,24H6c-0.6,0-1.1-0.6-1-1.2l0.7-3.1c0.2-1,1-1.7,2-1.7h4.6
	c1,0,1.8,0.7,2,1.6l0.7,3.2C15.1,23.4,14.6,24,14,24z M28,23H18v-2h10V23z M28,19H18v-2h10V19z M28,15H18v-2h10V15z"/>
</svg>
