<?xml version="1.0" encoding="utf-8"?>
<!-- Generator: Adobe Illustrator 23.0.2, SVG Export Plug-In . SVG Version: 6.00 Build 0)  -->
<svg version="1.1" id="Layer_1" xmlns="http://www.w3.org/2000/svg" xmlns:xlink="http://www.w3.org/1999/xlink" x="0px" y="0px"
	 width="32px" height="32px" viewBox="0 0 32 32" style="enable-background:new 0 0 32 32;" xml:space="preserve">
<style type="text/css">
	.st0{fill:#010101;}
</style>
<path class="st0" d="M13,12c0-4.2,2.6-7.8,6.3-9.3c-2.9-1.3-6.5-0.8-9,1.6c-2.1,2.1-2.8,5.2-2,7.9L1,19v5h3l3-4h2l2-2l2,1l1.2-1.2
	c0.3,0.1,0.5,0.1,0.8,0.1C13.7,16.3,13,14.2,13,12z"/>
<path class="st0" d="M31,12c0-4.4-3.6-8-8-8s-8,3.6-8,8c0,3,1.6,5.5,4,6.9V28l2.9,4l3.1-2l-1-5l1-2v-2l2-1v-1.1
	C29.4,17.5,31,15,31,12z M23,7c1.7,0,3,1.3,3,3s-1.3,3-3,3s-3-1.3-3-3S21.3,7,23,7z"/>
</svg>
