<?xml version="1.0" encoding="utf-8"?>
<!-- Generator: Adobe Illustrator 23.0.2, SVG Export Plug-In . SVG Version: 6.00 Build 0)  -->
<svg version="1.1" id="Layer_1" xmlns="http://www.w3.org/2000/svg" xmlns:xlink="http://www.w3.org/1999/xlink" x="0px" y="0px"
	 width="32px" height="32px" viewBox="0 0 32 32" style="enable-background:new 0 0 32 32;" xml:space="preserve">
<style type="text/css">
	.st0{fill:#010101;}
</style>
<path class="st0" d="M30,6H20V2h-8v4H2C0.9,6,0,6.9,0,8v18c0,1.1,0.9,2,2,2h28c1.1,0,2-0.9,2-2V8C32,6.9,31.1,6,30,6z M30,26H2V8h10
	v2h8V8h10V26z"/>
<rect x="18" y="13" class="st0" width="10" height="2"/>
<rect x="18" y="17" class="st0" width="10" height="2"/>
<rect x="18" y="21" class="st0" width="10" height="2"/>
<circle class="st0" cx="10" cy="14" r="3"/>
<path class="st0" d="M12.3,18H7.7c-1,0-1.8,0.7-2,1.7L5,22.8C4.9,23.4,5.4,24,6,24h8c0.6,0,1.1-0.6,1-1.2l-0.7-3.2
	C14.1,18.7,13.3,18,12.3,18z"/>
</svg>
