<?xml version="1.0" encoding="utf-8"?>
<!-- Generator: Adobe Illustrator 23.0.1, SVG Export Plug-In . SVG Version: 6.00 Build 0)  -->
<svg version="1.1" id="Layer_1" xmlns="http://www.w3.org/2000/svg" xmlns:xlink="http://www.w3.org/1999/xlink" x="0px" y="0px"
	 width="32px" height="32px" viewBox="0 0 32 32" style="enable-background:new 0 0 32 32;" xml:space="preserve">
<style type="text/css">
	.st0{fill:#010101;}
</style>
<path class="st0" d="M26,2H10C8.9,2,8,2.9,8,4v0H7C5.3,4,4,5.3,4,7s1.3,3,3,3h1v3H7c-1.7,0-3,1.3-3,3s1.3,3,3,3h1v3H7
	c-1.7,0-3,1.3-3,3s1.3,3,3,3h1v0c0,1.1,0.9,2,2,2h16c1.1,0,2-0.9,2-2V4C28,2.9,27.1,2,26,2z M8,26H7c-0.6,0-1-0.4-1-1s0.4-1,1-1h1
	V26z M8,17H7c-0.6,0-1-0.4-1-1s0.4-1,1-1h1V17z M8,8H7C6.4,8,6,7.6,6,7s0.4-1,1-1h1V8z M25.7,22.7c-0.7,0.7-1.4,1.4-2.2,1.8
	C22.7,24.8,22,25,21.2,25c-1.2,0-2.3-0.4-3.3-0.9c-1.2-0.7-2.3-1.6-3.3-2.7c-1.1-1.2-2.2-2.5-3-4c-0.6-1-1.1-2.1-1.3-3.3
	c-0.3-1.5-0.2-3,0.5-4.4C11,9,11.4,8.4,12,8c0.2-0.2,0.5-0.4,0.7-0.6c0.6-0.5,1.2-0.5,1.7,0.1c0.6,0.7,1.1,1.5,1.5,2.3
	c0.2,0.3,0.3,0.6,0.4,0.9c0.2,0.7,0,1.3-0.5,1.8c-0.3,0.3-0.6,0.6-1,0.8c-0.7,0.5-0.8,1.2-0.6,2c0.2,0.7,0.7,1.4,1.1,2
	c0.6,0.8,1.3,1.6,2.1,2.3c0.4,0.4,0.9,0.7,1.4,0.8c0.5,0.1,0.9,0,1.2-0.4c0.4-0.4,0.7-0.7,1.1-1c0.5-0.4,1.1-0.5,1.7-0.3
	c0.3,0.1,0.7,0.3,0.9,0.6c0.6,0.5,1.1,1,1.7,1.5c0.2,0.2,0.3,0.4,0.4,0.5C26.1,21.8,26.1,22.3,25.7,22.7z"/>
</svg>
