<?xml version="1.0" encoding="utf-8"?>
<!-- Generator: Adobe Illustrator 25.0.0, SVG Export Plug-In . SVG Version: 6.00 Build 0)  -->
<svg version="1.1" id="Layer_1" xmlns="http://www.w3.org/2000/svg" xmlns:xlink="http://www.w3.org/1999/xlink" x="0px" y="0px"
	 width="32px" height="32px" viewBox="0 0 32 32" style="enable-background:new 0 0 32 32;" xml:space="preserve">
<style type="text/css">
	.st0{fill:#010101;}
</style>
<path class="st0" d="M25.299,20.15c0,1.323-0.259,2.558-0.778,3.709c-0.675,1.592-1.779,2.846-3.309,3.764
	C19.68,28.541,17.875,29,15.8,29c-2.025,0-3.816-0.471-5.373-1.414c-1.557-0.943-2.686-2.221-3.387-3.838
	c-0.415-0.978-0.661-2.133-0.739-3.309c0-0.293,0.155-0.44,0.467-0.44h5.607c0.311,0,0.48,0.147,0.506,0.44
	c0.052,0.613,0.208,1.277,0.467,1.84c0.208,0.49,0.519,0.862,0.934,1.12c0.416,0.258,0.908,0.385,1.48,0.385
	c1.09,0,1.908-0.464,2.452-1.394c0.364-0.613,0.546-1.42,0.546-2.424c0-0.979-0.182-1.836-0.546-2.571
	c-0.545-0.904-1.376-1.358-2.492-1.358c-0.286,0-0.604,0.092-0.954,0.274c-0.35,0.185-0.798,0.459-1.343,0.827
	c-0.13,0.073-0.234,0.111-0.312,0.111c-0.155,0-0.272-0.074-0.35-0.221l-2.764-3.672c-0.078-0.122-0.117-0.221-0.117-0.294
	c0-0.147,0.065-0.258,0.194-0.33l5.996-4.511c0.052-0.049,0.071-0.098,0.058-0.147C16.118,8.026,16.072,8,15.994,8H7.467
	c-0.13,0-0.24-0.042-0.331-0.127C7.045,7.787,7,7.683,7,7.56v-4.12c0-0.122,0.045-0.226,0.136-0.312C7.227,3.043,7.337,3,7.467,3
	h17.066c0.129,0,0.239,0.043,0.33,0.129C24.954,3.215,25,3.319,25,3.441v4.885c0,0.218-0.092,0.403-0.273,0.55l-4.8,3.488
	c-0.053,0.049-0.072,0.098-0.058,0.147c0.012,0.049,0.058,0.086,0.136,0.111c2.076,0.514,3.582,1.762,4.517,3.746
	C25.04,17.542,25.299,18.803,25.299,20.15z"/>
</svg>
