<?xml version="1.0" encoding="utf-8"?>
<!-- Generator: Adobe Illustrator 25.0.1, SVG Export Plug-In . SVG Version: 6.00 Build 0)  -->
<svg version="1.1" id="Layer_1" xmlns="http://www.w3.org/2000/svg" xmlns:xlink="http://www.w3.org/1999/xlink" x="0px" y="0px"
	 width="32px" height="32px" viewBox="0 0 32 32" style="enable-background:new 0 0 32 32;" xml:space="preserve">
<style type="text/css">
	.st0{fill:#010101;}
</style>
<path class="st0" d="M7.131,28.871C7.043,28.786,7,28.682,7,28.559V3.441c0-0.122,0.043-0.226,0.131-0.312
	C7.218,3.043,7.323,3,7.448,3h5.104c0.125,0,0.23,0.043,0.317,0.128C12.956,3.215,13,3.319,13,3.441v20.375
	C13,23.939,13.062,24,13.187,24h12.366c0.125,0,0.23,0.043,0.318,0.129C25.957,24.215,26,24.319,26,24.441v4.117
	c0,0.123-0.043,0.228-0.129,0.312C25.783,28.957,25.678,29,25.553,29H7.448C7.323,29,7.218,28.957,7.131,28.871z"/>
</svg>
