<?xml version="1.0" encoding="utf-8"?>
<!-- Generator: Adobe Illustrator 23.0.2, SVG Export Plug-In . SVG Version: 6.00 Build 0)  -->
<svg version="1.1" id="Layer_1" xmlns="http://www.w3.org/2000/svg" xmlns:xlink="http://www.w3.org/1999/xlink" x="0px" y="0px"
	 width="32px" height="32px" viewBox="0 0 32 32" style="enable-background:new 0 0 32 32;" xml:space="preserve">
<style type="text/css">
	.st0{fill:#010101;}
</style>
<path class="st0" d="M29.5,9C30.3,9,31,8.3,31,7.5S30.3,6,29.5,6H18v1h-4V6H4C2.9,6,2,6.9,2,8v18c0,1.1,0.9,2,2,2h19
	c1.1,0,2-0.9,2-2v-1.3l3.7,1.2c0.6,0.2,1.3-0.3,1.3-0.9V13c0-0.7-0.7-1.1-1.3-0.9L25,13.3V12c0-1.1-0.9-2-2-2h-9V8h4v1H29.5z M22,24
	H5v-6h17V24z"/>
</svg>
