<?xml version="1.0" encoding="utf-8"?>
<!-- Generator: Adobe Illustrator 23.0.2, SVG Export Plug-In . SVG Version: 6.00 Build 0)  -->
<svg version="1.1" id="Layer_1" xmlns="http://www.w3.org/2000/svg" xmlns:xlink="http://www.w3.org/1999/xlink" x="0px" y="0px"
	 width="32px" height="32px" viewBox="0 0 32 32" style="enable-background:new 0 0 32 32;" xml:space="preserve">
<style type="text/css">
	.st0{fill:#010101;}
</style>
<path class="st0" d="M22,4h-2V3c0-0.6-0.4-1-1-1h-6c-0.6,0-1,0.4-1,1v1h-2C7.8,4,6,5.8,6,8v0h20v0C26,5.8,24.2,4,22,4z"/>
<path class="st0" d="M6,9v19c0,1.1,0.9,2,2,2h16c1.1,0,2-0.9,2-2V9H6z M12,26h-2V12h2V26z M17,26h-2V12h2V26z M22,26h-2V12h2V26z"/>
</svg>
