<?xml version="1.0" encoding="utf-8"?>
<!-- Generator: Adobe Illustrator 25.0.1, SVG Export Plug-In . SVG Version: 6.00 Build 0)  -->
<svg version="1.1" id="Layer_1" xmlns="http://www.w3.org/2000/svg" xmlns:xlink="http://www.w3.org/1999/xlink" x="0px" y="0px"
	 width="32px" height="32px" viewBox="0 0 32 32" style="enable-background:new 0 0 32 32;" xml:space="preserve">
<style type="text/css">
	.st0{fill:#010101;}
</style>
<polygon class="st0" points="8,2 2,8 8,8 "/>
<path class="st0" d="M21,2H10v8H2v19c0,0.552,0.448,1,1,1h18c0.552,0,1-0.448,1-1V3C22,2.448,21.552,2,21,2z M19,24H5v-2h14V24z
	 M19,20H5l0.016-2H19V20z M19,16H5v-2h14V16z"/>
<path class="st0" d="M25,3h-1v27h1c0.552,0,1-0.448,1-1V4C26,3.448,25.552,3,25,3z"/>
<path class="st0" d="M29,5h-1v24h1c0.552,0,1-0.448,1-1V6C30,5.448,29.552,5,29,5z"/>
</svg>
