<?xml version="1.0" encoding="utf-8"?>
<!-- Generator: Adobe Illustrator 25.0.0, SVG Export Plug-In . SVG Version: 6.00 Build 0)  -->
<svg version="1.1" id="Layer_1" xmlns="http://www.w3.org/2000/svg" xmlns:xlink="http://www.w3.org/1999/xlink" x="0px" y="0px"
	 width="32px" height="32px" viewBox="0 0 32 32" style="enable-background:new 0 0 32 32;" xml:space="preserve">
<style type="text/css">
	.st0{fill:#010101;}
</style>
<polygon class="st0" points="12,2 12,8 6,8 "/>
<path class="st0" d="M18,20H5v-4H3.4C2.627,16,2,16.627,2,17.4v11.2C2,29.373,2.627,30,3.4,30H18V20z"/>
<path class="st0" d="M18,16H9v-1h9v-2H9v-1h9v-1h8V3.4C26,2.627,25.373,2,24.6,2H13v7H6v10h12V16z"/>
<path class="st0" d="M20,13v17h10V13H20z M24,27h-2v-2h2V27z M28,23h-6v-1h6V23z M28,20h-6v-1h6V20z M28,17h-6v-1h6V17z"/>
</svg>
