<?xml version="1.0" encoding="utf-8"?>
<!-- Generator: Adobe Illustrator 23.0.2, SVG Export Plug-In . SVG Version: 6.00 Build 0)  -->
<svg version="1.1" id="Layer_1" xmlns="http://www.w3.org/2000/svg" xmlns:xlink="http://www.w3.org/1999/xlink" x="0px" y="0px"
	 width="32px" height="32px" viewBox="0 0 32 32" style="enable-background:new 0 0 32 32;" xml:space="preserve">
<style type="text/css">
	.st0{fill:#010101;}
</style>
<polygon class="st0" points="12,2 6,8 12,8 "/>
<path class="st0" d="M19,6.1c-0.4,0.1-0.7,0.4-0.7,0.9c0,0.4,0.3,0.7,0.7,0.8V6.1z"/>
<path class="st0" d="M20.7,10.2c0-0.6-0.3-0.8-0.7-0.9V11C20.4,10.9,20.7,10.6,20.7,10.2z"/>
<path class="st0" d="M25,2H14v8H6v19c0,0.6,0.4,1,1,1h18c0.6,0,1-0.4,1-1V3C26,2.4,25.6,2,25,2z M18.3,8.9C17.5,8.5,17,7.9,17,7
	c0-1.2,0.9-2,2-2.2V4h1v0.8c1.1,0.2,2,1,2,2.1h-1.3c0-0.4-0.3-0.7-0.7-0.8V8c0.2,0,0.4,0.1,0.7,0.2c0.8,0.4,1.3,1,1.3,2
	c0,1.3-0.9,2-2,2.1V13h-1v-0.8c-1.1-0.2-2-0.9-2-2.1h1.3c0,0.4,0.3,0.7,0.7,0.8V9.1C18.8,9.1,18.6,9,18.3,8.9z M23,24H9l0-2h14
	L23,24z M23,20H9v-2h14V20z M23,16H9v-2h14L23,16z"/>
</svg>
