<?xml version="1.0" encoding="utf-8"?>
<!-- Generator: Adobe Illustrator 22.1.0, SVG Export Plug-In . SVG Version: 6.00 Build 0)  -->
<svg version="1.1" id="Calque_1" xmlns="http://www.w3.org/2000/svg" xmlns:xlink="http://www.w3.org/1999/xlink" x="0px" y="0px"
	 width="32px" height="32px" viewBox="0 0 32 32" style="enable-background:new 0 0 32 32;" xml:space="preserve">
<style type="text/css">
	.st0{display:none;fill:#010101;}
	.st1{fill:#010101;}
</style>
<path class="st0" d="M14.2,19.1c-0.1,0-0.2,0.1-0.2,0.2v0.5c0,0.1,0.1,0.2,0.2,0.2h3.5c0.2,0,0.2-0.1,0.2-0.2v-0.5
	c0-0.1-0.1-0.2-0.2-0.2H17v-4.3h0.8c0.1,0,0.2-0.1,0.2-0.2v-0.4c0-0.1-0.1-0.2-0.2-0.2h-0.5h-2.4h-0.7c-0.2,0-0.2,0.1-0.2,0.2v0.4
	c0,0.1,0.1,0.2,0.2,0.2H15v4.3H14.2z"/>
<path class="st0" d="M19.2,19.1c-0.1,0-0.2,0.1-0.2,0.2v0.5c0,0.1,0.1,0.2,0.2,0.2h3.5c0.2,0,0.2-0.1,0.2-0.2v-0.5
	c0-0.1-0.1-0.2-0.2-0.2H22v-4.3h0.8c0.1,0,0.2-0.1,0.2-0.2v-0.4c0-0.1-0.1-0.2-0.2-0.2h-0.5h-2.4h-0.7C19,14,19,14.1,19,14.2v0.4
	c0,0.1,0.1,0.2,0.2,0.2H20v4.3H19.2z"/>
<polygon class="st1" points="30,8 16,2 2,8 2,10 30,10 "/>
<rect x="2" y="26" class="st1" width="28" height="1"/>
<rect y="28" class="st1" width="32" height="2"/>
<polygon class="st1" points="8,24 10,24 10,22 8,22 8,14 10,14 10,12 2,12 2,14 4,14 4,22 2,22 2,24 4,24 "/>
<polygon class="st1" points="20,14 20,12 12,12 12,14 14,14 14,22 12,22 12,24 14,24 18,24 20,24 20,22 18,22 18,14 "/>
<polygon class="st1" points="30,14 30,12 22,12 22,14 24,14 24,22 22,22 22,24 24,24 28,24 30,24 30,22 28,22 28,14 "/>
</svg>
