<?xml version="1.0" encoding="utf-8"?>
<!-- Generator: Adobe Illustrator 24.1.2, SVG Export Plug-In . SVG Version: 6.00 Build 0)  -->
<svg version="1.1" id="Layer_1" xmlns="http://www.w3.org/2000/svg" xmlns:xlink="http://www.w3.org/1999/xlink" x="0px" y="0px"
	 width="32px" height="32px" viewBox="0 0 32 32" style="enable-background:new 0 0 32 32;" xml:space="preserve">
<style type="text/css">
	.st0{fill:#010101;}
	.st1{fill:#010101;}
</style>
<path class="st0" d="M16.411,27.953l0.756-2.511l-1.937-1.469c-1.043-0.79-1.48-2.168-1.087-3.429
	c0.404-1.298,1.578-2.17,2.919-2.17h2.307l0.717-2.222C20.485,14.872,21.658,14,23,14s2.515,0.872,2.92,2.17l0.711,2.205h2.307
	c0.788,0,1.512,0.307,2.062,0.818V9c0-1.105-0.895-2-2-2H15l-2.121-2.121C12.316,4.316,11.553,4,10.757,4H3C1.895,4,1,4.895,1,6v20
	c0,1.105,0.895,2,2,2h13.4C16.405,27.984,16.406,27.969,16.411,27.953z"/>
<path class="st1" d="M29.948,21.141c-0.142-0.457-0.55-0.766-1.01-0.766h-3.764l-1.163-3.609C23.868,16.309,23.46,16,23,16
	s-0.868,0.309-1.01,0.766l-1.163,3.609h-3.764c-0.46,0-0.868,0.309-1.01,0.766c-0.142,0.457,0.013,0.957,0.386,1.239l3.045,2.308
	l-1.163,3.86c-0.142,0.457,0.014,0.957,0.386,1.239c0.372,0.282,0.876,0.282,1.249,0L23,27.48l3.045,2.308
	c0.373,0.282,0.877,0.282,1.249,0c0.372-0.282,0.528-0.783,0.386-1.239l-1.163-3.86l3.045-2.308
	C29.935,22.098,30.09,21.598,29.948,21.141z"/>
</svg>
