<?xml version="1.0" encoding="utf-8"?>
<!-- Generator: Adobe Illustrator 23.0.2, SVG Export Plug-In . SVG Version: 6.00 Build 0)  -->
<svg version="1.1" id="Layer_1" xmlns="http://www.w3.org/2000/svg" xmlns:xlink="http://www.w3.org/1999/xlink" x="0px" y="0px"
	 width="32px" height="32px" viewBox="0 0 32 32" style="enable-background:new 0 0 32 32;" xml:space="preserve">
<style type="text/css">
	.st0{fill:#010101;}
</style>
<polyline class="st0" points="2,28 2,24 12,24 12,28 "/>
<polyline class="st0" points="20,28 20,24 30,24 30,28 "/>
<polygon class="st0" points="14,8 6,8 2,18 2,22 12,22 12,16 14,16 "/>
<polygon class="st0" points="18,8 26,8 30,18 30,22 20,22 20,16 18,16 "/>
<rect x="6" y="4" class="st0" width="8" height="2"/>
<rect x="18" y="4" class="st0" width="8" height="2"/>
<rect x="15" y="8" class="st0" width="2" height="8"/>
</svg>
