<?xml version="1.0" encoding="utf-8"?>
<!-- Generator: Adobe Illustrator 23.0.2, SVG Export Plug-In . SVG Version: 6.00 Build 0)  -->
<svg version="1.1" id="Layer_1" xmlns="http://www.w3.org/2000/svg" xmlns:xlink="http://www.w3.org/1999/xlink" x="0px" y="0px"
	 width="32px" height="32px" viewBox="0 0 32 32" style="enable-background:new 0 0 32 32;" xml:space="preserve">
<style type="text/css">
	.st0{fill:#010101;}
</style>
<path class="st0" d="M24,2H8C6.9,2,6,2.9,6,4v24c0,1.1,0.9,2,2,2h16c1.1,0,2-0.9,2-2V4C26,2.9,25.1,2,24,2z M17,29h-2
	c-0.5,0-1-0.5-1-1s0.5-1,1-1h2c0.5,0,1,0.5,1,1S17.5,29,17,29z M24,26H8V6h16V26z"/>
</svg>
