<?xml version="1.0" encoding="utf-8"?>
<!-- Generator: Adobe Illustrator 25.0.0, SVG Export Plug-In . SVG Version: 6.00 Build 0)  -->
<svg version="1.1" id="Layer_1" xmlns="http://www.w3.org/2000/svg" xmlns:xlink="http://www.w3.org/1999/xlink" x="0px" y="0px"
	 width="32px" height="32px" viewBox="0 0 32 32" style="enable-background:new 0 0 32 32;" xml:space="preserve">
<style type="text/css">
	.st0{fill:#010101;}
</style>
<path class="st0" d="M16,30"/>
<path class="st0" d="M19.64,16.772C20.798,16.274,22.347,16,24,16s3.202,0.274,4.36,0.772c1.042,0.448,1.64,1.03,1.64,1.595
	c0,0.566-0.598,1.147-1.64,1.595c-1.158,0.498-2.707,0.772-4.36,0.772c-1.653,0-3.202-0.274-4.36-0.772
	c-1.042-0.448-1.64-1.03-1.64-1.595C18,17.802,18.598,17.22,19.64,16.772z"/>
<path class="st0" d="M28.36,23.051c-1.158,0.498-2.707,0.772-4.36,0.772c-1.653,0-3.202-0.274-4.36-0.772
	c-1.042-0.448-1.64-1.03-1.64-1.595v-1.614c0.339,0.301,0.788,0.575,1.336,0.81c1.252,0.538,2.908,0.835,4.664,0.835
	s3.412-0.296,4.664-0.835c0.548-0.236,0.997-0.509,1.336-0.81v1.614C30,22.021,29.402,22.603,28.36,23.051z"/>
<path class="st0" d="M28.36,26.139c-1.158,0.498-2.707,0.772-4.36,0.772c-1.653,0-3.202-0.274-4.36-0.772
	C18.598,25.691,18,25.11,18,24.544V22.93c0.339,0.301,0.788,0.575,1.336,0.81c1.252,0.538,2.908,0.835,4.664,0.835
	s3.412-0.296,4.664-0.835c0.548-0.236,0.997-0.509,1.336-0.81v1.614C30,25.11,29.402,25.691,28.36,26.139z"/>
<path class="st0" d="M28.36,29.228C27.202,29.726,25.653,30,24,30c-1.653,0-3.202-0.274-4.36-0.772
	C18.598,28.78,18,28.198,18,27.632v-1.614c0.339,0.301,0.788,0.575,1.336,0.81c1.252,0.538,2.908,0.835,4.664,0.835
	s3.412-0.296,4.664-0.835c0.548-0.236,0.997-0.509,1.336-0.81v1.614C30,28.198,29.402,28.78,28.36,29.228z"/>
<path class="st0" d="M7,2v28h10l0,0c-0.816-0.823-1-1.673-1-2.215V18l0,0h-5v-2h6.15c0.412-0.376,0.951-0.743,1.7-1.065
	C20.253,14.332,22.082,14,24,14h1V2H7z M13,24v2h-2v-2H13z M21,14H11v-2h10V14z M21,10H11V8h10V10z"/>
</svg>
