<?xml version="1.0" encoding="utf-8"?>
<!-- Generator: Adobe Illustrator 25.0.0, SVG Export Plug-In . SVG Version: 6.00 Build 0)  -->
<svg version="1.1" id="Layer_1" xmlns="http://www.w3.org/2000/svg" xmlns:xlink="http://www.w3.org/1999/xlink" x="0px" y="0px"
	 width="32px" height="32px" viewBox="0 0 32 32" style="enable-background:new 0 0 32 32;" xml:space="preserve">
<style type="text/css">
	.st0{fill:#010101;}
</style>
<path class="st0" d="M14.096,3h5.456c0.125,0,0.231,0.043,0.318,0.13C19.957,3.217,20,3.322,20,3.446v25.108
	c0,0.125-0.043,0.229-0.13,0.316C19.782,28.957,19.677,29,19.552,29h-5.094c-0.125,0-0.231-0.043-0.318-0.13s-0.13-0.191-0.13-0.316
	V8.831c0-0.049-0.025-0.097-0.075-0.147c-0.05-0.05-0.074-0.052-0.149-0.037L9.836,9.463L9.686,9.5C9.462,9.5,9.35,9.365,9.35,9.091
	v-4.27C9.35,4.574,9.462,4.4,9.686,4.3l3.849-1.188C13.735,3.038,13.921,3,14.096,3z"/>
</svg>
