<?xml version="1.0" encoding="utf-8"?>
<!-- Generator: Adobe Illustrator 25.0.1, SVG Export Plug-In . SVG Version: 6.00 Build 0)  -->
<svg version="1.1" id="Layer_1" xmlns="http://www.w3.org/2000/svg" xmlns:xlink="http://www.w3.org/1999/xlink" x="0px" y="0px"
	 width="32px" height="32px" viewBox="0 0 32 32" style="enable-background:new 0 0 32 32;" xml:space="preserve">
<style type="text/css">
	.st0{fill:#010101;}
</style>
<path class="st0" d="M4,2v28h7V2H4z M9,27H6v-2h3V27z M9,22H6V5h3V22z"/>
<path class="st0" d="M12,2v28h7V2H12z M17,27h-3v-2h3V27z M17,22h-3V5h3V22z"/>
<path class="st0" d="M19.005,2.071L21,30l6.982-0.499L25.987,1.572L19.005,2.071z M25.774,26.651l-2.992,0.214l-0.142-1.995
	l2.992-0.214L25.774,26.651z M25.417,21.664l-2.992,0.214L21.214,4.921l2.992-0.214L25.417,21.664z"/>
</svg>
