<?xml version="1.0" encoding="utf-8"?>
<!-- Generator: Adobe Illustrator 23.0.2, SVG Export Plug-In . SVG Version: 6.00 Build 0)  -->
<svg version="1.1" id="Layer_1" xmlns="http://www.w3.org/2000/svg" xmlns:xlink="http://www.w3.org/1999/xlink" x="0px" y="0px"
	 width="32px" height="32px" viewBox="0 0 32 32" style="enable-background:new 0 0 32 32;" xml:space="preserve">
<style type="text/css">
	.st0{fill:#010101;}
</style>
<path class="st0" d="M20.8,15.1c-1-0.3-2-0.5-2.8-0.6V8.6c1.5,0.3,2.5,1.1,2.6,2.4h5.3c-0.1-3.4-3.4-5.8-7.9-6.4V2h-4v2.6
	c-4.3,0.6-8,3-8,6.8c0,2.7,1.9,4.7,5.2,5.8c1,0.3,2,0.5,2.8,0.6v5.9c-1.5-0.4-2.6-1.4-2.6-2.7H6c0,3.7,3.4,6.1,8,6.7V30h4v-2.3
	c4.3-0.5,8-2.6,8-6.6C26,18.2,24.2,16.2,20.8,15.1z M11.4,11.4c0-1.5,1.1-2.4,2.6-2.8v5.5C12.5,13.6,11.4,12.8,11.4,11.4z M18,23.8
	v-5.6c1.5,0.4,2.7,1.2,2.7,2.9C20.7,22.7,19.5,23.5,18,23.8z"/>
</svg>
