<?xml version="1.0" encoding="utf-8"?>
<!-- Generator: Adobe Illustrator 23.0.2, SVG Export Plug-In . SVG Version: 6.00 Build 0)  -->
<svg version="1.1" id="Layer_1" xmlns="http://www.w3.org/2000/svg" xmlns:xlink="http://www.w3.org/1999/xlink" x="0px" y="0px"
	 width="32px" height="32px" viewBox="0 0 32 32" style="enable-background:new 0 0 32 32;" xml:space="preserve">
<style type="text/css">
	.st0{fill:#010101;}
</style>
<path class="st0" d="M28,22H4v-7h24V22z M11,17v2h1v-1h8v1h1v-2H11z"/>
<path class="st0" d="M28,30H4v-7h24V30z M11,25v2h1v-1h8v1h1v-2H11z"/>
<path class="st0" d="M28,14H4V7h24V14z M11,9v2h1v-1h8v1h1V9H11z"/>
<polygon class="st0" points="28,6 4,6 6,2 26,2 "/>
</svg>
