<?xml version="1.0" encoding="utf-8"?>
<!-- Generator: Adobe Illustrator 23.0.2, SVG Export Plug-In . SVG Version: 6.00 Build 0)  -->
<svg version="1.1" id="Layer_1" xmlns="http://www.w3.org/2000/svg" xmlns:xlink="http://www.w3.org/1999/xlink" x="0px" y="0px"
	 width="32px" height="32px" viewBox="0 0 32 32" style="enable-background:new 0 0 32 32;" xml:space="preserve">
<style type="text/css">
	.st0{fill:#010101;}
</style>
<path class="st0" d="M7.7,2.3L4.3,5.7C4.1,5.9,4,6.1,4,6.4V29c0,0.6,0.4,1,1,1h18c0.6,0,1-0.4,1-1V7c0-0.6-0.4-1-1-1H8l2-2h15
	c0.6,0,1,0.4,1,1v22l1.7-1.7c0.2-0.2,0.3-0.4,0.3-0.7V3c0-0.6-0.4-1-1-1H8.4C8.1,2,7.9,2.1,7.7,2.3z"/>
</svg>
