<?xml version="1.0" encoding="utf-8"?>
<!-- Generator: Adobe Illustrator 25.0.0, SVG Export Plug-In . SVG Version: 6.00 Build 0)  -->
<svg version="1.1" id="Layer_1" xmlns="http://www.w3.org/2000/svg" xmlns:xlink="http://www.w3.org/1999/xlink" x="0px" y="0px"
	 width="32px" height="32px" viewBox="0 0 32 32" style="enable-background:new 0 0 32 32;" xml:space="preserve">
<style type="text/css">
	.st0{fill:#010101;}
</style>
<path class="st0" d="M22,16v4h-4v4h9v-7c0-0.552-0.448-1-1-1H22z"/>
<polygon class="st0" points="18,19 21,19 21,16 "/>
<path class="st0" d="M29,23h-1v2H17v-2h-1c-0.552,0-1,0.448-1,1v5c0,0.552,0.448,1,1,1h13c0.552,0,1-0.448,1-1v-5
	C30,23.448,29.552,23,29,23z M27,27h-2v-1h2V27z"/>
<path class="st0" d="M7,2v28h6v-4h-2v-2h2c0-1.657,1.343-3,3-3v-3h-5v-2h5.184c0.302-0.849,0.971-1.697,1.816-2l0,0h-7v-2h10v2h4V2
	H7z M21,10H11V8h10V10z"/>
</svg>
