<?xml version="1.0" encoding="utf-8"?>
<!-- Generator: Adobe Illustrator 23.0.1, SVG Export Plug-In . SVG Version: 6.00 Build 0)  -->
<svg version="1.1" id="Layer_1" xmlns="http://www.w3.org/2000/svg" xmlns:xlink="http://www.w3.org/1999/xlink" x="0px" y="0px"
	 width="32px" height="32px" viewBox="0 0 32 32" style="enable-background:new 0 0 32 32;" xml:space="preserve">
<style type="text/css">
	.st0{fill:#010101;}
</style>
<path class="st0" d="M27,16v4H5v-4H2v12h2v2h24v-2l0,0l0,0h2V16H27z M22,22h2v2h-2V22z"/>
<polygon class="st0" points="12,2 6,8 12,8 "/>
<path class="st0" d="M26,3c0-0.6-0.4-1-1-1H14v8H6v9h20V3z M23,16H9v-1h14V16z M23,13H9v-1h14V13z"/>
</svg>
