<?xml version="1.0" encoding="utf-8"?>
<!-- Generator: Adobe Illustrator 23.0.2, SVG Export Plug-In . SVG Version: 6.00 Build 0)  -->
<svg version="1.1" id="Calque_1" xmlns="http://www.w3.org/2000/svg" xmlns:xlink="http://www.w3.org/1999/xlink" x="0px" y="0px"
	 width="32px" height="32px" viewBox="0 0 32 32" style="enable-background:new 0 0 32 32;" xml:space="preserve">
<style type="text/css">
	.st0{fill:#010101;}
</style>
<path class="st0" d="M16,4C8.3,4,2,10.3,2,18c0,3.9,1.6,7.5,4.2,10h19.6c2.6-2.5,4.2-6.1,4.2-10C30,10.3,23.7,4,16,4z M23.7,9.9
	l1.4,1.4l-4.2,4.2l-1.4-1.4L23.7,9.9z M15,7h2v6h-2V7z M10,20H4v-2h6V20z M11.1,15.5l-4.2-4.2l1.4-1.4l4.2,4.2L11.1,15.5z M16,22
	c-1.7,0-3-1.3-3-3s1.3-3,3-3c0.8,0,1.5,0.3,2,0.8l8.6-1.8L19,19.1l0,0C18.9,20.7,17.6,22,16,22z M22,20v-2h6v2H22z"/>
</svg>
