<?xml version="1.0" encoding="utf-8"?>
<!-- Generator: Adobe Illustrator 23.0.1, SVG Export Plug-In . SVG Version: 6.00 Build 0)  -->
<svg version="1.1" id="Layer_1" xmlns="http://www.w3.org/2000/svg" xmlns:xlink="http://www.w3.org/1999/xlink" x="0px" y="0px"
	 width="32px" height="32px" viewBox="0 0 32 32" style="enable-background:new 0 0 32 32;" xml:space="preserve">
<style type="text/css">
	.st0{fill:#010101;}
</style>
<g>
	<path class="st0" d="M11.2,8.9c1.9-0.8,4.4-1.3,7.1-1.3s5.2,0.5,7.1,1.3C27,9.7,28,10.7,28,11.6s-1,1.9-2.7,2.7
		c-1.9,0.8-4.4,1.3-7.1,1.3c-2.7,0-5.2-0.5-7.1-1.3c-1.7-0.7-2.7-1.7-2.7-2.7S9.5,9.7,11.2,8.9z"/>
	<path class="st0" d="M25.3,19.4c-1.9,0.8-4.4,1.3-7.1,1.3c-2.7,0-5.2-0.5-7.1-1.3c-1.7-0.7-2.7-1.7-2.7-2.7v-2.7
		c0.6,0.5,1.3,1,2.2,1.4c2,0.9,4.7,1.4,7.6,1.4s5.5-0.5,7.6-1.4c0.9-0.4,1.6-0.8,2.2-1.4v2.7C28,17.7,27,18.7,25.3,19.4z"/>
	<path class="st0" d="M25.3,24.6c-1.9,0.8-4.4,1.3-7.1,1.3c-2.7,0-5.2-0.5-7.1-1.3c-1.7-0.7-2.7-1.7-2.7-2.7v-2.7
		c0.6,0.5,1.3,1,2.2,1.4c2,0.9,4.7,1.4,7.6,1.4s5.5-0.5,7.6-1.4c0.9-0.4,1.6-0.8,2.2-1.4v2.7C28,22.8,27,23.8,25.3,24.6z"/>
	<path class="st0" d="M25.3,29.7c-1.9,0.8-4.4,1.3-7.1,1.3c-2.7,0-5.2-0.5-7.1-1.3C9.5,29,8.5,28,8.5,27.1v-2.7
		c0.6,0.5,1.3,1,2.2,1.4c2,0.9,4.7,1.4,7.6,1.4s5.5-0.5,7.6-1.4c0.9-0.4,1.6-0.8,2.2-1.4v2.7C28,28,27,29,25.3,29.7z"/>
	<g>
		<path class="st0" d="M18.3,6.4c0.8,0,1.6,0,2.4,0.1c0.5-0.5,0.8-1,0.8-1.5c0-0.9-1-1.9-2.7-2.7C16.9,1.5,14.4,1,11.7,1
			S6.5,1.5,4.7,2.3C3,3.1,2,4,2,5s1,1.9,2.7,2.7C5.9,8.2,7.4,8.6,9,8.8c0.5-0.4,1-0.7,1.7-1C12.7,6.9,15.4,6.4,18.3,6.4z"/>
		<path class="st0" d="M7.3,11.3c0.1-0.5,0.3-1,0.6-1.4C6.5,9.6,5.2,9.3,4.2,8.8C3.3,8.4,2.6,7.9,2,7.4v2.7c0,0.9,1,1.9,2.7,2.7
			c0.8,0.3,1.7,0.6,2.6,0.8L7.3,11.3L7.3,11.3z"/>
		<path class="st0" d="M7.3,16.4v-1.5c-1.1-0.2-2.2-0.6-3.1-1c-0.9-0.4-1.6-0.8-2.2-1.4v2.7c0,0.9,1,1.9,2.7,2.7
			c0.8,0.3,1.7,0.6,2.6,0.8v-2V16.4z"/>
		<path class="st0" d="M7.3,21.5V20c-1.1-0.2-2.2-0.6-3.1-1c-0.9-0.4-1.6-0.8-2.2-1.4v2.7c0,0.9,1,1.9,2.7,2.7
			c0.8,0.3,1.7,0.6,2.6,0.8v-2V21.5z"/>
	</g>
</g>
</svg>
