<?xml version="1.0" encoding="utf-8"?>
<!-- Generator: Adobe Illustrator 23.0.2, SVG Export Plug-In . SVG Version: 6.00 Build 0)  -->
<svg version="1.1" id="Layer_1" xmlns="http://www.w3.org/2000/svg" xmlns:xlink="http://www.w3.org/1999/xlink" x="0px" y="0px"
	 width="32px" height="32px" viewBox="0 0 32 32" style="enable-background:new 0 0 32 32;" xml:space="preserve">
<style type="text/css">
	.st0{fill:#010101;}
</style>
<path class="st0" d="M30,20v-8h-2.7c-0.1-0.4-0.3-0.8-0.5-1.2l1.9-1.9l-5.7-5.7l-1.9,1.9C20.8,5,20.4,4.8,20,4.7V2h-8v2.7
	c-0.4,0.1-0.8,0.3-1.2,0.5L8.9,3.3L3.3,8.9l1.9,1.9C5,11.2,4.8,11.6,4.7,12H2v8h2.7c0.1,0.4,0.3,0.8,0.5,1.2l-1.9,1.9l5.7,5.7
	l1.9-1.9c0.4,0.2,0.8,0.3,1.2,0.5V30h8v-2.7c0.4-0.1,0.8-0.3,1.2-0.5l1.9,1.9l5.7-5.7l-1.9-1.9c0.2-0.4,0.3-0.8,0.5-1.2H30z M22,16
	c0,3.3-2.7,6-6,6s-6-2.7-6-6s2.7-6,6-6S22,12.7,22,16z"/>
</svg>
