<?xml version="1.0" encoding="utf-8"?>
<!-- Generator: Adobe Illustrator 23.0.2, SVG Export Plug-In . SVG Version: 6.00 Build 0)  -->
<svg version="1.1" id="Calque_1" xmlns="http://www.w3.org/2000/svg" xmlns:xlink="http://www.w3.org/1999/xlink" x="0px" y="0px"
	 width="32px" height="32px" viewBox="0 0 32 32" style="enable-background:new 0 0 32 32;" xml:space="preserve">
<style type="text/css">
	.st0{fill:#010101;}
</style>
<circle class="st0" cx="14" cy="14" r="2"/>
<path class="st0" d="M26,8V6H6v16h20v-2c-1.1,0-2-0.9-2-2s0.9-2,2-2v-4c-1.1,0-2-0.9-2-2S24.9,8,26,8z M14,19c-2.8,0-5-2.2-5-5
	s2.2-5,5-5s5,2.2,5,5S16.8,19,14,19z"/>
<path class="st0" d="M2,2v28h8v-4h12v4h8V2H2z M28,28h-4v-4H8v4H4V4h24V28z"/>
</svg>
