<?xml version="1.0" encoding="utf-8"?>
<!-- Generator: Adobe Illustrator 23.0.2, SVG Export Plug-In . SVG Version: 6.00 Build 0)  -->
<svg version="1.1" id="Layer_1" xmlns="http://www.w3.org/2000/svg" xmlns:xlink="http://www.w3.org/1999/xlink" x="0px" y="0px"
	 width="32px" height="32px" viewBox="0 0 32 32" style="enable-background:new 0 0 32 32;" xml:space="preserve">
<style type="text/css">
	.st0{fill:#010101;}
</style>
<path class="st0" d="M22,2H8C6.9,2,6,2.9,6,4v24c0,1.1,0.9,2,2,2h14c1.1,0,2-0.9,2-2V4C24,2.9,23.1,2,22,2z M12,26h-2v-2h2V26z
	 M12,22h-2v-2h2V22z M16,26h-2v-2h2V26z M16,22h-2v-2h2V22z M20,26h-2v-2h2V26z M20,22h-2v-2h2V22z M20,18H10V6h10V18z"/>
</svg>
