<?xml version="1.0" encoding="utf-8"?>
<!-- Generator: Adobe Illustrator 25.0.1, SVG Export Plug-In . SVG Version: 6.00 Build 0)  -->
<svg version="1.1" id="Layer_1" xmlns="http://www.w3.org/2000/svg" xmlns:xlink="http://www.w3.org/1999/xlink" x="0px" y="0px"
	 width="32px" height="32px" viewBox="0 0 32 32" style="enable-background:new 0 0 32 32;" xml:space="preserve">
<style type="text/css">
	.st0{fill:#010101;}
</style>
<path class="st0" d="M26.305,28.485L21.7,19.041c0.026-0.012,0.055-0.021,0.08-0.033c1.345-0.662,2.383-1.605,3.118-2.831
	C25.632,14.952,26,13.057,26,11.464c0-1.618-0.356-3.311-1.065-4.548c-0.71-1.237-1.718-2.2-3.024-2.886
	C20.604,3.343,19.104,3,17.412,3H6.448c-0.125,0-0.23,0.043-0.317,0.128C6.043,3.215,6,3.319,6,3.441v25.118
	c0,0.123,0.043,0.228,0.131,0.312C6.218,28.957,6.323,29,6.448,29h5.104c0.124,0,0.229-0.043,0.317-0.129
	c0.087-0.085,0.13-0.189,0.13-0.312v-8.375C12,20.062,12.062,20,12.187,20h3.647l4.011,8.669C19.945,28.89,20.119,29,20.367,29
	h5.602c0.273,0,0.41-0.098,0.41-0.294C26.379,28.657,26.354,28.584,26.305,28.485z M12,14.816V8.184C12,8.062,12.062,8,12.187,8
	h4.379C19,8,20,9.847,20,11.5S19,15,16.566,15h-4.379C12.062,15,12,14.938,12,14.816z"/>
</svg>
