<?xml version="1.0" encoding="utf-8"?>
<!-- Generator: Adobe Illustrator 23.0.1, SVG Export Plug-In . SVG Version: 6.00 Build 0)  -->
<svg version="1.1" id="Layer_1" xmlns="http://www.w3.org/2000/svg" xmlns:xlink="http://www.w3.org/1999/xlink" x="0px" y="0px"
	 width="32px" height="32px" viewBox="0 0 32 32" style="enable-background:new 0 0 32 32;" xml:space="preserve">
<style type="text/css">
	.st0{fill:#010101;}
</style>
<path class="st0" d="M1.4,15.6c-1.9,1.9-1.9,4.9,0,6.8l5.2,5.2c1.9,1.9,4.9,1.9,6.8,0L20,21L8,9L1.4,15.6z"/>
<path class="st0" d="M11.6,5.4L9,8l5.6,5.6l6-6l-2.2-2.2C16.5,3.5,13.5,3.5,11.6,5.4z"/>
<path class="st0" d="M21,20l2.6-2.6c1.9-1.9,1.9-4.9,0-6.8l-2.2-2.2l-6,6L21,20z"/>
<path class="st0" d="M28.5,29C26,29,24,27,24,24.5c0-1,0.3-1.9,0.9-2.7l6-9c0.7-1,1.1-2.1,1.1-3.3c0-3-2.5-5.5-5.5-5.5
	c-1.5,0-2.9,0.7-4.4,2.1l-1.5,1.5l0.7,0.7l1.5-1.5C24.1,5.6,25.3,5,26.5,5C29,5,31,7,31,9.5c0,1-0.3,1.9-0.9,2.7l-6,9
	c-0.7,1-1.1,2.1-1.1,3.3c0,3,2.5,5.5,5.5,5.5c1.2,0,2.4-0.5,3.5-1.4v-1.3C30.8,28.4,29.7,29,28.5,29z"/>
</svg>
