<?xml version="1.0" encoding="utf-8"?>
<!-- Generator: Adobe Illustrator 23.0.2, SVG Export Plug-In . SVG Version: 6.00 Build 0)  -->
<svg version="1.1" id="Layer_1" xmlns="http://www.w3.org/2000/svg" xmlns:xlink="http://www.w3.org/1999/xlink" x="0px" y="0px"
	 width="32px" height="32px" viewBox="0 0 32 32" style="enable-background:new 0 0 32 32;" xml:space="preserve">
<style type="text/css">
	.st0{fill:#010101;}
</style>
<path class="st0" d="M16,5C5.7,5,0.3,15.6,0,16c0.3,0.4,5.7,11,16,11s15.7-10.6,16-11C31.7,15.6,26.3,5,16,5z M16,8
	c3,0,5.6,1.7,7,4.1c-2.1-0.6-4.5-1.1-7-1.1s-4.9,0.5-7,1.1C10.4,9.7,13,8,16,8z M16,24c-4.4,0-8-3.6-8-8c0-0.3,0-0.6,0-0.9
	c1.3-0.5,2.9-1,4.6-1.3C12.2,14.4,12,15.2,12,16c0,2.2,1.8,4,4,4s4-1.8,4-4c0-0.8-0.2-1.6-0.7-2.2c1.7,0.3,3.3,0.8,4.6,1.3
	c0,0.3,0,0.6,0,0.9C24,20.4,20.4,24,16,24z"/>
</svg>
