<?xml version="1.0" encoding="utf-8"?>
<!-- Generator: Adobe Illustrator 22.1.0, SVG Export Plug-In . SVG Version: 6.00 Build 0)  -->
<svg version="1.1" id="Calque_1" xmlns="http://www.w3.org/2000/svg" xmlns:xlink="http://www.w3.org/1999/xlink" x="0px" y="0px"
	 width="32px" height="32px" viewBox="0 0 32 32" style="enable-background:new 0 0 32 32;" xml:space="preserve">
<style type="text/css">
	.st0{fill:#010101;}
</style>
<path class="st0" d="M16,26c-7.3,0-12-3-12-4v4c0,1,4.7,4,12,4s12-3,12-4v-4C28,23,23.3,26,16,26z"/>
<path class="st0" d="M16,20c-7.3,0-12-3-12-4v4c0,1,4.7,4,12,4s12-3,12-4v-4C28,17,23.3,20,16,20z"/>
<path class="st0" d="M16,14c-7.3,0-12-3-12-4v4c0,1,4.7,4,12,4s12-3,12-4v-4C28,11,23.3,14,16,14z"/>
<ellipse class="st0" cx="16" cy="7" rx="12" ry="5"/>
</svg>
