<?xml version="1.0" encoding="utf-8"?>
<!-- Generator: Adobe Illustrator 25.0.1, SVG Export Plug-In . SVG Version: 6.00 Build 0)  -->
<svg version="1.1" id="Layer_1" xmlns="http://www.w3.org/2000/svg" xmlns:xlink="http://www.w3.org/1999/xlink" x="0px" y="0px"
	 width="32px" height="32px" viewBox="0 0 32 32" style="enable-background:new 0 0 32 32;" xml:space="preserve">
<style type="text/css">
	.st0{fill:#010101;}
</style>
<path class="st0" d="M10.232,28.228c-1.469-0.71-2.601-1.722-3.397-3.032C6.039,23.884,6,22.382,6,20.691V18.44
	c0-0.122,0.043-0.226,0.13-0.312C6.217,18.043,6.323,18,6.448,18h5.104c0.124,0,0.229,0.043,0.317,0.128
	C11.956,18.215,12,18.318,12,18.44v2.214c0,1.029,0.149,1.783,0.771,2.408S14.252,24,15.347,24c1.045,0,1.905-0.312,2.577-0.938
	S19,21.684,19,20.654V3.441c0-0.122,0.043-0.226,0.131-0.312C19.217,3.043,19.322,3,19.447,3h5.104c0.125,0,0.23,0.043,0.318,0.128
	C24.955,3.215,25,3.319,25,3.441v17.25c0,1.69-0.412,3.187-1.232,4.485s-1.881,2.311-3.361,3.033
	c-1.481,0.723-3.168,1.084-5.059,1.084C13.406,29.294,11.701,28.939,10.232,28.228z"/>
</svg>
