<?xml version="1.0" encoding="utf-8"?>
<!-- Generator: Adobe Illustrator 23.0.2, SVG Export Plug-In . SVG Version: 6.00 Build 0)  -->
<svg version="1.1" id="Layer_1" xmlns="http://www.w3.org/2000/svg" xmlns:xlink="http://www.w3.org/1999/xlink" x="0px" y="0px"
	 width="32px" height="32px" viewBox="0 0 32 32" style="enable-background:new 0 0 32 32;" xml:space="preserve">
<style type="text/css">
	.st0{fill:#010101;}
</style>
<circle class="st0" cx="16" cy="11" r="7"/>
<path class="st0" d="M22,20h-4l-1,2h-2l-1-2h-4c-5,0-6,9-6,9c0,0.7,0.3,1,1,1h9l1-7h2l1,7h9c0.7,0,1-0.3,1-1C28,29,27,20,22,20z"/>
<path class="st0" d="M16,2c-5.2,0-9.5,4.3-9.5,9.5V12H6v3c0,0.6,0.4,1,1,1s1-0.4,1-1v-3H7.5v-0.5C7.5,6.8,11.3,3,16,3
	c4.7,0,8.5,3.8,8.5,8.5V12h1v-0.5C25.5,6.3,21.2,2,16,2z"/>
</svg>
