<?xml version="1.0" encoding="utf-8"?>
<!-- Generator: Adobe Illustrator 25.0.1, SVG Export Plug-In . SVG Version: 6.00 Build 0)  -->
<svg version="1.1" id="Layer_1" xmlns="http://www.w3.org/2000/svg" xmlns:xlink="http://www.w3.org/1999/xlink" x="0px" y="0px"
	 width="32px" height="32px" viewBox="0 0 32 32" style="enable-background:new 0 0 32 32;" xml:space="preserve">
<style type="text/css">
	.st0{fill:#010101;}
</style>
<path class="st0" d="M21.131,3.128C21.219,3.043,21.324,3,21.449,3h5.104c0.125,0,0.23,0.043,0.318,0.128
	C26.957,3.215,27,3.319,27,3.441v25.118c0,0.123-0.043,0.228-0.129,0.312C26.783,28.957,26.678,29,26.553,29h-5.115
	c-0.248,0-0.422-0.098-0.521-0.294l-9.729-14.045c-0.05-0.073-0.1-0.104-0.149-0.092c-0.05,0.013-0.075,0.068-0.075,0.166L11,28.559
	c0,0.123-0.044,0.228-0.131,0.312C10.782,28.957,10.676,29,10.552,29H5.448c-0.125,0-0.23-0.043-0.317-0.129
	C5.043,28.786,5,28.682,5,28.559V3.441c0-0.122,0.043-0.226,0.131-0.312C5.218,3.043,5.323,3,5.448,3h5.587
	c0.249,0,0.423,0.098,0.522,0.294l9.22,14.271c0.049,0.074,0.1,0.105,0.148,0.093C20.977,17.646,21,17.591,21,17.492V3.441
	C21,3.319,21.043,3.215,21.131,3.128z"/>
</svg>
