<?xml version="1.0" encoding="utf-8"?>
<!-- Generator: Adobe Illustrator 25.0.1, SVG Export Plug-In . SVG Version: 6.00 Build 0)  -->
<svg version="1.1" id="Layer_1" xmlns="http://www.w3.org/2000/svg" xmlns:xlink="http://www.w3.org/1999/xlink" x="0px" y="0px"
	 width="32px" height="32px" viewBox="0 0 32 32" style="enable-background:new 0 0 32 32;" xml:space="preserve">
<style type="text/css">
	.st0{fill:#010101;}
</style>
<path class="st0" d="M18.602,3c0.277,0,0.44,0.136,0.49,0.408l2.794,13.443C21.912,16.951,21.95,17,22,17
	c0.051,0,0.088-0.049,0.113-0.149l3.429-13.48C25.618,3.124,25.781,3,26.033,3h5.553C31.862,3,32,3.111,32,3.334l-0.038,0.149
	l-6.835,25.146C25.052,28.877,24.876,29,24.6,29h-5.054c-0.276,0-0.44-0.136-0.49-0.408l-2.943-14.337
	C16.088,14.156,16.051,14,16,14H16c-0.051,0-0.089,0.156-0.112,0.254l-2.943,14.337C12.895,28.864,12.731,29,12.455,29H7.4
	c-0.277,0-0.452-0.123-0.528-0.371L0.038,3.483L0,3.334C0,3.111,0.138,3,0.415,3h5.553c0.251,0,0.415,0.124,0.49,0.371l3.429,13.48
	C9.912,16.951,9.949,17,10,17c0.05,0,0.088-0.049,0.113-0.149l2.794-13.443C12.958,3.136,13.121,3,13.398,3H18.602z"/>
</svg>
