<?xml version="1.0" encoding="utf-8"?>
<!-- Generator: Adobe Illustrator 25.0.1, SVG Export Plug-In . SVG Version: 6.00 Build 0)  -->
<svg version="1.1" id="Layer_1" xmlns="http://www.w3.org/2000/svg" xmlns:xlink="http://www.w3.org/1999/xlink" x="0px" y="0px"
	 width="32px" height="32px" viewBox="0 0 32 32" style="enable-background:new 0 0 32 32;" xml:space="preserve">
<style type="text/css">
	.st0{fill:#010101;}
</style>
<path class="st0" d="M25.869,7.871C25.783,7.958,25.676,8,25.553,8H13.187C13.062,8,13,8.062,13,8.184v5.132
	c0,0.123,0.062,0.184,0.187,0.184h8.366c0.125,0,0.23,0.043,0.316,0.128C21.957,13.715,22,13.819,22,13.941v4.118
	c0,0.123-0.043,0.228-0.131,0.312c-0.086,0.086-0.191,0.129-0.316,0.129h-8.366C13.062,18.5,13,18.562,13,18.684v9.875
	c0,0.123-0.044,0.228-0.131,0.312C12.782,28.957,12.676,29,12.552,29H7.448c-0.125,0-0.23-0.043-0.317-0.129
	C7.043,28.786,7,28.682,7,28.559V3.441c0-0.122,0.043-0.226,0.131-0.312C7.218,3.043,7.323,3,7.448,3h18.104
	c0.123,0,0.23,0.043,0.316,0.128C25.957,3.215,26,3.319,26,3.441v4.118C26,7.682,25.957,7.786,25.869,7.871z"/>
</svg>
