<?xml version="1.0" encoding="utf-8"?>
<!-- Generator: Adobe Illustrator 23.0.2, SVG Export Plug-In . SVG Version: 6.00 Build 0)  -->
<svg version="1.1" id="Layer_1" xmlns="http://www.w3.org/2000/svg" xmlns:xlink="http://www.w3.org/1999/xlink" x="0px" y="0px"
	 width="32px" height="32px" viewBox="0 0 32 32" style="enable-background:new 0 0 32 32;" xml:space="preserve">
<style type="text/css">
	.st0{fill:#010101;}
</style>
<path class="st0" d="M31,11c0-3.5-2-6.5-4.9-8c-1.2-0.6-2.6-0.9-4-0.9c-2.9,0-4.7,1-6.1,2.9c-1.4-1.8-3.2-2.9-6.1-2.9
	c-1.4,0-2.8,0.2-4,0.9C3,4.5,1,7.5,1,11c0,2.4,1,4.6,2.5,6.2l0,0L16,30l12.5-12.8l0,0C30,15.6,31,13.4,31,11z"/>
</svg>
