<?xml version="1.0" encoding="utf-8"?>
<!-- Generator: Adobe Illustrator 25.0.1, SVG Export Plug-In . SVG Version: 6.00 Build 0)  -->
<svg version="1.1" id="Layer_1" xmlns="http://www.w3.org/2000/svg" xmlns:xlink="http://www.w3.org/1999/xlink" x="0px" y="0px"
	 width="32px" height="32px" viewBox="0 0 32 32" style="enable-background:new 0 0 32 32;" xml:space="preserve">
<style type="text/css">
	.st0{fill:#010101;}
</style>
<path class="st0" d="M26.87,17.129c0.087,0.086,0.13,0.19,0.13,0.313v4.116c0,0.123-0.043,0.227-0.13,0.312
	C26.782,21.957,26.677,22,26.553,22h-2.366C24.062,22,24,22.062,24,22.184v6.375c0,0.123-0.044,0.228-0.131,0.312
	C23.781,28.957,23.676,29,23.552,29h-4.604c-0.124,0-0.23-0.043-0.317-0.129c-0.087-0.085-0.13-0.189-0.13-0.312v-6.375
	c0-0.122-0.062-0.184-0.188-0.184H5.948c-0.125,0-0.23-0.043-0.317-0.129C5.543,21.785,5.5,21.682,5.5,21.559v-3.161
	c0-0.146,0.037-0.331,0.112-0.552l7.004-14.515C12.716,3.11,12.89,3,13.14,3h4.969c0.174,0,0.293,0.043,0.355,0.128
	c0.062,0.086,0.056,0.215-0.02,0.386L12,16.779c-0.024,0.05-0.024,0.099,0,0.147C12.025,16.977,12.062,17,12.112,17h6.2
	c0.125,0,0.188-0.061,0.188-0.184V12.86c0-0.123,0.043-0.227,0.13-0.312s0.193-0.129,0.317-0.129h4.604
	c0.124,0,0.229,0.043,0.317,0.129C23.956,12.633,24,12.737,24,12.86v3.957C24,16.939,24.062,17,24.187,17h2.366
	C26.677,17,26.782,17.043,26.87,17.129z"/>
</svg>
