<?xml version="1.0" encoding="utf-8"?>
<!-- Generator: Adobe Illustrator 25.0.1, SVG Export Plug-In . SVG Version: 6.00 Build 0)  -->
<svg version="1.1" id="Layer_1" xmlns="http://www.w3.org/2000/svg" xmlns:xlink="http://www.w3.org/1999/xlink" x="0px" y="0px"
	 width="32px" height="32px" viewBox="0 0 32 32" style="enable-background:new 0 0 32 32;" xml:space="preserve">
<style type="text/css">
	.st0{fill:#010101;}
</style>
<path class="st0" d="M22.6,15.7c2.3,1.2,3.4,3.2,3.4,5.9c0,2.5-0.9,4.3-2.6,5.5c-1.7,1.2-4,1.8-6.9,1.8h-10c-0.1,0-0.2,0-0.3-0.1
	S6,28.7,6,28.6V3.4c0-0.1,0-0.2,0.1-0.3C6.2,3,6.3,3,6.5,3h9.8c3.1,0,5.4,0.6,7,1.7s2.4,3,2.4,5.5c0,2.4-1,4.2-3,5.2
	C22.4,15.6,22.4,15.6,22.6,15.7z M12,8.4v4.8c0,0.1,0.1,0.3,0.2,0.3h4c1,0,1.8-0.2,2.4-0.6c0.6-0.4,0.9-1.2,0.9-1.9
	c0-0.8-0.3-1.5-0.9-1.9s-1.4-0.7-2.4-0.7h-4C12.1,8.2,12,8.3,12,8.4z M18.9,23.1c0.6-0.5,0.9-1.2,0.9-2.1c0-0.8-0.3-1.5-0.9-2
	c-0.5-0.5-1.3-0.7-2.4-0.7h-4.3c-0.1,0-0.2,0.1-0.2,0.2v5.1c0,0.1,0.1,0.2,0.2,0.2h4.3C17.5,23.8,18.3,23.6,18.9,23.1z"/>
</svg>
