<?xml version="1.0" encoding="utf-8"?>
<!-- Generator: Adobe Illustrator 25.0.1, SVG Export Plug-In . SVG Version: 6.00 Build 0)  -->
<svg version="1.1" id="Layer_1" xmlns="http://www.w3.org/2000/svg" xmlns:xlink="http://www.w3.org/1999/xlink" x="0px" y="0px"
	 width="32px" height="32px" viewBox="0 0 32 32" style="enable-background:new 0 0 32 32;" xml:space="preserve">
<style type="text/css">
	.st0{fill:#010101;}
</style>
<path class="st0" d="M25,21.353c0,1.324-0.282,2.525-0.846,3.604c-0.688,1.323-1.725,2.378-3.11,3.161
	c-1.388,0.785-3.05,1.177-4.988,1.177c-1.841,0-3.491-0.367-4.951-1.103c-1.46-0.735-2.546-1.813-3.258-3.235
	C7.282,23.902,7,22.689,7,21.316c0-0.711,0.079-1.403,0.239-2.077c0.159-0.674,0.374-1.256,0.644-1.747
	c0.417-0.784,0.944-1.409,1.583-1.875c0.098-0.074,0.098-0.159,0-0.257c-0.54-0.441-1.018-1.03-1.435-1.765
	c-0.516-0.98-0.773-2.046-0.773-3.199c0-1.789,0.54-3.333,1.62-4.632c0.76-0.956,1.761-1.697,3-2.224
	c1.239-0.527,2.619-0.791,4.141-0.791c1.546,0,2.933,0.27,4.159,0.809c1.227,0.54,2.209,1.275,2.946,2.206
	c1.103,1.323,1.656,2.868,1.656,4.632c0,1.25-0.307,2.366-0.921,3.346c-0.344,0.588-0.81,1.115-1.399,1.581
	c-0.098,0.099-0.11,0.184-0.037,0.257c0.712,0.491,1.264,1.127,1.657,1.912C24.693,18.62,25,19.907,25,21.353z M18.816,20.765
	c0-0.833-0.136-1.471-0.405-1.912c-0.442-0.906-1.239-1.36-2.392-1.36c-1.104,0-1.89,0.454-2.356,1.36
	c-0.271,0.54-0.405,1.201-0.405,1.985c0,0.834,0.171,1.521,0.515,2.06c0.466,0.76,1.215,1.14,2.245,1.14
	c1.006,0,1.742-0.344,2.208-1.03C18.619,22.469,18.816,21.721,18.816,20.765z M13.332,10.691c0,0.613,0.134,1.152,0.405,1.618
	c0.466,0.76,1.215,1.14,2.245,1.14c1.079,0,1.865-0.379,2.356-1.14c0.27-0.417,0.404-0.968,0.404-1.654
	c0-0.515-0.098-0.956-0.295-1.324c-0.221-0.392-0.546-0.717-0.975-0.974c-0.429-0.257-0.926-0.386-1.49-0.386
	c-0.516,0-0.982,0.11-1.399,0.331c-0.417,0.221-0.736,0.564-0.957,1.029C13.429,9.797,13.332,10.25,13.332,10.691z"/>
</svg>
