<?xml version="1.0" encoding="utf-8"?>
<!-- Generator: Adobe Illustrator 23.0.1, SVG Export Plug-In . SVG Version: 6.00 Build 0)  -->
<svg version="1.1" id="Layer_1" xmlns="http://www.w3.org/2000/svg" xmlns:xlink="http://www.w3.org/1999/xlink" x="0px" y="0px"
	 width="32px" height="32px" viewBox="0 0 32 32" style="enable-background:new 0 0 32 32;" xml:space="preserve">
<style type="text/css">
	.st0{fill:#010101;}
</style>
<g>
	<path class="st0" d="M24.7,23.5L24,19c-0.3-2.4-1.9-4-4-4h-2l-2,5l-2-5h-2c-2.1,0-3.7,1.7-4,4l-0.7,4.5C7.2,24.5,8.1,25,9,25h1
		l0.6,4c0.1,0.8,0.6,1,1.4,1h8c0.8,0,1.3-0.2,1.4-1l0.6-4h1C23.9,25,24.8,24.5,24.7,23.5z"/>
	<circle class="st0" cx="16" cy="8" r="6"/>
</g>
</svg>
