<?xml version="1.0" encoding="utf-8"?>
<!-- Generator: Adobe Illustrator 25.0.1, SVG Export Plug-In . SVG Version: 6.00 Build 0)  -->
<svg version="1.1" id="Layer_1" xmlns="http://www.w3.org/2000/svg" xmlns:xlink="http://www.w3.org/1999/xlink" x="0px" y="0px"
	 width="32px" height="32px" viewBox="0 0 32 32" style="enable-background:new 0 0 32 32;" xml:space="preserve">
<style type="text/css">
	.st0{fill:#010101;}
</style>
<path class="st0" d="M10,9H5C4.448,9,4,8.552,4,8V4c0-0.552,0.448-1,1-1h5c0.552,0,1,0.448,1,1v4C11,8.552,10.552,9,10,9z"/>
<path class="st0" d="M10,16H5c-0.552,0-1-0.448-1-1v-4c0-0.552,0.448-1,1-1h5c0.552,0,1,0.448,1,1v4C11,15.552,10.552,16,10,16z"/>
<path class="st0" d="M10,23H5c-0.552,0-1-0.448-1-1v-4c0-0.552,0.448-1,1-1h5c0.552,0,1,0.448,1,1v4C11,22.552,10.552,23,10,23z"/>
<path class="st0" d="M10,30H5c-0.552,0-1-0.448-1-1v-4c0-0.552,0.448-1,1-1h5c0.552,0,1,0.448,1,1v4C11,29.552,10.552,30,10,30z"/>
<path class="st0" d="M18,9h-5c-0.552,0-1-0.448-1-1V4c0-0.552,0.448-1,1-1h5c0.552,0,1,0.448,1,1v4C19,8.552,18.552,9,18,9z"/>
<path class="st0" d="M18,16h-5c-0.552,0-1-0.448-1-1v-4c0-0.552,0.448-1,1-1h5c0.552,0,1,0.448,1,1v4C19,15.552,18.552,16,18,16z"/>
<path class="st0" d="M18,23h-5c-0.552,0-1-0.448-1-1v-4c0-0.552,0.448-1,1-1h5c0.552,0,1,0.448,1,1v4C19,22.552,18.552,23,18,23z"/>
<path class="st0" d="M18,30h-5c-0.552,0-1-0.448-1-1v-4c0-0.552,0.448-1,1-1h5c0.552,0,1,0.448,1,1v4C19,29.552,18.552,30,18,30z"/>
<path class="st0" d="M26,9h-5c-0.552,0-1-0.448-1-1V4c0-0.552,0.448-1,1-1h5c0.552,0,1,0.448,1,1v4C27,8.552,26.552,9,26,9z"/>
<path class="st0" d="M26,16h-5c-0.552,0-1-0.448-1-1v-4c0-0.552,0.448-1,1-1h5c0.552,0,1,0.448,1,1v4C27,15.552,26.552,16,26,16z"/>
<path class="st0" d="M26,30h-5c-0.552,0-1-0.448-1-1V18c0-0.552,0.448-1,1-1h5c0.552,0,1,0.448,1,1v11C27,29.552,26.552,30,26,30z"
	/>
</svg>
