<?xml version="1.0" encoding="utf-8"?>
<!-- Generator: Adobe Illustrator 23.0.1, SVG Export Plug-In . SVG Version: 6.00 Build 0)  -->
<svg version="1.1" id="Layer_1" xmlns="http://www.w3.org/2000/svg" xmlns:xlink="http://www.w3.org/1999/xlink" x="0px" y="0px"
	 width="32px" height="32px" viewBox="0 0 32 32" style="enable-background:new 0 0 32 32;" xml:space="preserve">
<style type="text/css">
	.st0{fill:#010101;}
</style>
<path class="st0" d="M4,10c-1.1,0-2,0.9-2,2v8c0,1.1,0.9,2,2,2c1.1,0,2-0.9,2-2v-8C6,10.9,5.1,10,4,10 M27,10c-1.1,0-2,0.9-2,2v8
	c0,1.1,0.9,2,2,2c1.1,0,2-0.9,2-2v-8C29,10.9,28.1,10,27,10 M19.6,3.6L21,1.4C21,1.3,21,1.1,20.9,1c-0.1-0.1-0.3,0-0.4,0.1l-1.4,2.3
	c-1.1-0.5-2.4-0.8-3.7-0.8c-1.3,0-2.6,0.3-3.7,0.8l-1.2-2.3C10.4,1,10.3,1,10.1,1C10,1.1,10,1.3,10,1.4l1.2,2.2C8.7,4.9,7,7.1,7,10
	h17C24,7.1,22.2,4.9,19.6,3.6 M11.5,7.2c-0.4,0-0.7-0.3-0.7-0.7c0-0.4,0.3-0.7,0.7-0.7c0.4,0,0.7,0.3,0.7,0.7
	C12.2,6.9,11.9,7.2,11.5,7.2 M19.5,7.2c-0.4,0-0.7-0.3-0.7-0.7c0-0.4,0.3-0.7,0.7-0.7c0.4,0,0.7,0.3,0.7,0.7
	C20.2,6.9,19.9,7.2,19.5,7.2 M7,11l0,12c0,1.1,0.9,2,2,2l1,0l0,4c0,1,1,2,2,2c1,0,2-0.9,2-2v-4l3,0v4c0,1,1,2,2,2c1,0,2-1,2-2l0-4
	l1,0c1.1,0,2-0.9,2-2V11H7z"/>
</svg>
