<?xml version="1.0" encoding="utf-8"?>
<!-- Generator: Adobe Illustrator 25.0.1, SVG Export Plug-In . SVG Version: 6.00 Build 0)  -->
<svg version="1.1" id="Layer_1" xmlns="http://www.w3.org/2000/svg" xmlns:xlink="http://www.w3.org/1999/xlink" x="0px" y="0px"
	 width="32px" height="32px" viewBox="0 0 32 32" style="enable-background:new 0 0 32 32;" xml:space="preserve">
<style type="text/css">
	.st0{fill:#010101;}
</style>
<path class="st0" d="M10.758,27.979c-1.506-0.783-2.675-2.101-3.508-3.522C6.416,23.036,6,21.395,6,19.532V12
	c0-1.862,0.416-3.497,1.25-4.905c0.833-1.408,2.002-2.289,3.508-3.073C12.262,3.238,14.01,2.85,16,2.85
	c1.965,0,3.707,0.369,5.224,1.116c1.517,0.748,2.693,1.77,3.526,3.068C25.583,8.333,26,9.808,26,11.375v0.183
	c0,0.123-0.044,0.227-0.131,0.312C25.781,11.957,25.676,12,25.552,12h-5.299c-0.125,0-0.23-0.043-0.316-0.129
	c-0.088-0.085-0.131-0.189-0.131-0.312c0-0.956-0.343-1.874-1.027-2.548C18.096,8.337,17.169,8,16,8
	c-1.144,0-2.259,0.367-2.956,1.102S12,10.856,12,12.032v7.901c0,1.175,0.385,2.23,1.157,2.965C13.927,23.632,14.83,24,16,24
	c1.094,0,2.239-0.288,2.91-0.864C19.582,22.56,20,21.659,20,20.63v-0.947c0-0.122-0.062-0.183-0.186-0.183h-3.366
	c-0.124,0-0.23-0.043-0.317-0.129C16.043,19.285,16,19.182,16,19.059v-4.118c0-0.122,0.043-0.226,0.13-0.312
	c0.087-0.085,0.193-0.128,0.317-0.128h9.105c0.124,0,0.229,0.043,0.317,0.128C25.956,14.715,26,14.819,26,14.941v4.992
	c0,1.837-0.417,3.454-1.25,4.85c-0.834,1.397-2.003,2.474-3.507,3.234C19.737,28.775,17.99,29.15,16,29.15
	S12.262,28.763,10.758,27.979z"/>
</svg>
