<?xml version="1.0" encoding="utf-8"?>
<!-- Generator: Adobe Illustrator 23.0.1, SVG Export Plug-In . SVG Version: 6.00 Build 0)  -->
<svg version="1.1" id="Layer_1" xmlns="http://www.w3.org/2000/svg" xmlns:xlink="http://www.w3.org/1999/xlink" x="0px" y="0px"
	 width="32px" height="32px" viewBox="0 0 32 32" style="enable-background:new 0 0 32 32;" xml:space="preserve">
<style type="text/css">
	.st0{fill:#010101;}
</style>
<path class="st0" d="M26,13v-1c0-5.5-4.5-10-10-10S6,6.5,6,12v1H4v15c0,1.1,0.9,2,2,2h20c1.1,0,2-0.9,2-2V13H26z M9,12
	c0-3.9,3.1-7,7-7s7,3.1,7,7v1H9V12z M17,21.8V26h-2v-4.2c-1.2-0.4-2-1.5-2-2.8c0-1.7,1.3-3,3-3s3,1.3,3,3C19,20.3,18.2,21.4,17,21.8
	z"/>
</svg>
