<?xml version="1.0" encoding="utf-8"?>
<!-- Generator: Adobe Illustrator 23.0.2, SVG Export Plug-In . SVG Version: 6.00 Build 0)  -->
<svg version="1.1" id="Layer_1" xmlns="http://www.w3.org/2000/svg" xmlns:xlink="http://www.w3.org/1999/xlink" x="0px" y="0px"
	 width="32px" height="32px" viewBox="0 0 32 32" style="enable-background:new 0 0 32 32;" xml:space="preserve">
<style type="text/css">
	.st0{fill:#010101;}
</style>
<path class="st0" d="M16,30C6.7,30,3.3,10.7,3.1,9.9L3,9.1l0.8-0.3c7.4-2.6,11.6-6.2,11.6-6.2L16,2l0.6,0.6
	c0.1,0.1,4.2,3.6,11.6,6.2L29,9.1l-0.1,0.8C28.7,10.7,25.3,30,16,30z M5,10c1.1,5.6,5,18,11,18s9.9-12.4,11-18
	c-5.7-2.1-9.6-4.9-11-6C14.6,5.1,10.7,7.9,5,10z"/>
<path class="st0" d="M16,6c0,0,3.8,3,9,5c0,0-3.2,15-9,15S7,11,7,11C12.2,9,16,6,16,6z"/>
</svg>
