<?xml version="1.0" encoding="utf-8"?>
<!-- Generator: Adobe Illustrator 23.0.2, SVG Export Plug-In . SVG Version: 6.00 Build 0)  -->
<svg version="1.1" id="Layer_1" xmlns="http://www.w3.org/2000/svg" xmlns:xlink="http://www.w3.org/1999/xlink" x="0px" y="0px"
	 width="32px" height="32px" viewBox="0 0 32 32" style="enable-background:new 0 0 32 32;" xml:space="preserve">
<style type="text/css">
	.st0{fill:#010101;}
</style>
<circle class="st0" cx="16" cy="17" r="6"/>
<path class="st0" d="M26,6h-2l-1.4-2.9c-0.3-0.7-1-1.1-1.8-1.1h-9.5c-0.8,0-1.5,0.4-1.8,1.1L8,6H6c-3.3,0-6,2.7-6,6v10
	c0,3.3,2.7,6,6,6h20c3.3,0,6-2.7,6-6V12C32,8.7,29.3,6,26,6z M5,12c-0.6,0-1-0.4-1-1s0.4-1,1-1s1,0.4,1,1S5.6,12,5,12z M16,26
	c-5,0-9-4-9-9s4-9,9-9s9,4,9,9S21,26,16,26z"/>
</svg>
