<?xml version="1.0" encoding="utf-8"?>
<!-- Generator: Adobe Illustrator 23.0.2, SVG Export Plug-In . SVG Version: 6.00 Build 0)  -->
<svg version="1.1" id="Layer_1" xmlns="http://www.w3.org/2000/svg" xmlns:xlink="http://www.w3.org/1999/xlink" x="0px" y="0px"
	 width="32px" height="32px" viewBox="0 0 32 32" style="enable-background:new 0 0 32 32;" xml:space="preserve">
<style type="text/css">
	.st0{fill:#010101;}
</style>
<path class="st0" d="M28.6,25.9c-0.1-0.2-0.4-0.4-0.6-0.5c-0.8-0.4-1.3-0.9-1.3-1.8c0-0.5-0.2-1-0.5-1.4c-0.1-0.2-0.2-0.3-0.1-0.5
	c0.3-1,0.3-1.9,0.2-2.9c-0.1-0.8-0.5-1.5-0.9-2.2c-0.9-1.7-2-3.3-3.2-4.8c-0.5-0.7-0.9-1.5-1-2.4c-0.1-0.7-0.1-1.5-0.1-2.2
	c-0.1-1.2-0.2-2.3-0.7-3.4c-0.4-1.1-1.1-1.9-2.2-2.4c-0.4-0.2-2.4-0.6-4.1,0.1c-1,0.5-1.7,1.2-2,2.3C11.8,5,11.9,6.1,12,7.2
	c0.1,1,0.1,2,0.1,3c0,0.7-0.1,1.3-0.6,1.8c-0.4,0.5-0.7,1-1.1,1.5c-0.7,0.9-1.2,1.8-1.6,2.9c-0.4,1.1-0.8,2.1-1.2,3.2
	c-0.3,0.6-0.4,1.2-0.2,1.9c0,0.1,0,0.2-0.1,0.2c-0.2,0.2-0.4,0.4-0.5,0.6c-0.3,0.6-0.8,1-1.5,1.2c-0.3,0.1-0.7,0.2-1,0.3
	c-0.6,0.2-0.9,0.6-0.7,1.2c0,0.1,0.1,0.3,0.1,0.4c0.2,0.5,0.2,1,0,1.5c-0.1,0.3-0.2,0.6-0.3,0.9c-0.1,0.5,0,0.8,0.4,1
	c0.5,0.2,0.9,0.4,1.4,0.5c1.2,0.2,2.4,0.5,3.6,0.9c0.6,0.2,1.3,0.4,2,0.6c0.9,0.2,1.7,0,2.2-0.9c0-0.1,0.2-0.1,0.2-0.1
	c0.9-0.1,1.7-0.2,2.6-0.3c1.3-0.1,2.6,0,3.9,0.3c0.1,0,0.2,0.1,0.2,0.1c0.3,0.6,0.8,1.1,1.5,1.2c0.2,0,0.5,0,0.7,0c0,0,0.1,0,0.1,0
	c0.5-0.1,0.9-0.3,1.2-0.6c0.7-0.7,1.6-1.2,2.5-1.7c0.8-0.4,1.5-0.8,2.3-1.3C28.7,27,28.9,26.4,28.6,25.9z M16.4,5.2
	c0.6-0.4,1.4-0.3,1.8,0.3c0.5,0.7,0.5,1.9-0.2,2.5c-0.2,0.2-0.3,0.3-0.5,0.1c0.1-0.3,0.8-1.8-0.4-1.9c-0.3,0-0.6,0.2-0.6,0.5
	c-0.1,0.4,0,0.8,0,1c-0.2-0.1-0.3-0.1-0.5-0.2c-0.1,0-0.1-0.1-0.1-0.1C15.6,6.7,15.9,5.6,16.4,5.2z M15.6,8.1
	c0.5,0.2,1.1,0.4,1.7,0.6c0.1,0,0.2,0.1,0.4,0.2c0.3,0.2,0.3,0.5,0,0.7c-0.5,0.3-1,0.6-1.5,0.8c-0.3,0.2-0.6,0.3-0.9,0.5
	C15.1,11,15,11,14.9,11c-0.1,0-0.3,0-0.4-0.1c-0.4-0.3-0.9-0.6-1.3-1c-0.1-0.1-0.2-0.2-0.2-0.3c0-0.1,0-0.2,0.1-0.3
	c0.4-0.3,0.8-0.7,1.2-1C14.8,8,15.2,7.9,15.6,8.1z M12.8,5.5C13.3,5,14,5.1,14.4,5.8c0.2,0.4,0.3,0.9,0.2,1.4c0,0.1,0,0.1-0.1,0.1
	c-0.2,0.1-0.3,0.2-0.5,0.3c0-0.3,0-0.8-0.3-1.2c-0.3-0.3-0.6-0.3-0.8,0.1c-0.2,0.4,0,1.1,0.3,1.4c0.1,0.1,0.2,0.1,0.3,0.2
	c0,0,0,0,0,0c-0.4,0.4-0.5,0.4-0.8,0C12.2,7.4,12.2,6.1,12.8,5.5z M11.7,29.7c-0.2,0.2-0.4,0.3-0.6,0.3c0,0,0,0,0,0.1
	c-0.6-0.2-1.1-0.3-1.7-0.5c-0.8-0.3-1.5-0.6-2.3-0.8c-0.7-0.2-1.4-0.3-2-0.4C4.2,28.2,4,28,4.3,27.2c0.2-0.7,0.3-1.3,0.2-2
	c-0.1-0.6,0-0.8,0.6-1c0.4-0.1,0.7-0.2,1.1-0.3c0.4-0.1,0.7-0.3,0.9-0.7c0.1-0.3,0.3-0.6,0.5-0.8c0.2-0.3,0.4-0.3,0.6-0.2
	c0.4,0.2,0.8,0.6,1,1c0.5,0.8,1,1.7,1.6,2.5c0.3,0.4,0.6,0.8,0.9,1.3c0.2,0.3,0.4,0.6,0.6,0.9C12.5,28.7,12.2,29.1,11.7,29.7z
	 M20.5,22.5c0,0.8-0.1,1.6-0.1,2.4c0,0.3-0.1,0.5-0.3,0.7c-1.1,1.2-2.4,2-4,2.1c-0.8,0-1.7,0-2.5,0.1c-0.1,0-0.2,0-0.3-0.1
	c-0.4-0.4-0.8-0.9-1.2-1.4c0.1-0.1,0.2-0.1,0.3-0.1c0.5-0.3,0.7-1,0.3-1.4c-0.5-0.5-1-0.9-1.5-1.3c-0.5-0.4-1-0.8-1.4-1.3
	c-0.4-0.4-0.5-1-0.5-1.6c0-1.2,0.3-2.2,0.8-3.3c0.3-0.5,0.5-1.1,0.7-1.6c0.2-0.5,0.4-1,0.6-1.5c0.1-0.3,0.3-0.5,0.4-0.7
	c0.6-0.8,0.9-1.6,1-2.6c0-0.1,0-0.2,0-0.4c0.2,0.2,0.4,0.4,0.6,0.6c0.2,0.2,0.5,0.4,0.7,0.5c0.5,0.3,1,0.3,1.5,0
	c0.7-0.4,1.3-0.7,2-1.1c0.2-0.1,0.4-0.2,0.6-0.3c0.2-0.1,0.4-0.1,0.5,0.2c0.4,0.8,0.8,1.6,1.2,2.4c0.6,1.4,1.1,2.7,1.7,4.1
	c0.5,1.3,0.7,2.6,0.5,4c0,0.4-0.1,0.7-0.2,1.1c-0.2,0-0.3,0-0.5,0C20.9,21.8,20.5,22,20.5,22.5z M27.6,26.7c-0.3,0.2-0.7,0.4-1,0.6
	c-0.7,0.4-1.3,0.7-2,1.1c-0.4,0.2-0.7,0.6-1,0.9c-0.3,0.2-0.6,0.5-1,0.6c-0.7,0.3-1.2,0-1.5-0.7c-0.2-0.5-0.1-1.1,0-1.6
	c0.1-0.9,0.3-1.9,0.4-2.8c0-0.5,0-1.1-0.1-1.6c0-0.3,0.1-0.4,0.3-0.4c0.1,0,0.2,0,0.2,0.2c0,0.2,0,0.5,0.1,0.7
	c0.1,0.6,0.5,0.9,1.1,0.9c0.9,0.1,1.9-0.3,2.4-1.3c0-0.1,0.1-0.1,0.1-0.2c0.2,0.2,0.3,0.4,0.3,0.6c0,0.3,0,0.5,0.1,0.8
	c0.1,0.5,0.4,0.9,0.9,1.2c0.2,0.1,0.5,0.3,0.7,0.5C27.9,26.3,27.9,26.5,27.6,26.7z"/>
</svg>
