<?xml version="1.0" encoding="utf-8"?>
<!-- Generator: Adobe Illustrator 25.0.1, SVG Export Plug-In . SVG Version: 6.00 Build 0)  -->
<svg version="1.1" id="Layer_1" xmlns="http://www.w3.org/2000/svg" xmlns:xlink="http://www.w3.org/1999/xlink" x="0px" y="0px"
	 width="32px" height="32px" viewBox="0 0 32 32" style="enable-background:new 0 0 32 32;" xml:space="preserve">
<style type="text/css">
	.st0{fill:#010101;}
</style>
<path class="st0" d="M7,11.215c0-1.463,0.246-2.736,0.739-3.819c0.64-1.539,1.686-2.755,3.137-3.649
	c1.452-0.896,3.151-1.343,5.095-1.343c1.92,0,3.606,0.454,5.058,1.361c1.452,0.908,2.605,2.156,3.27,3.744
	C24.767,8.619,25,9.866,25,11.254v11.23c0,1.361-0.363,2.565-1.089,3.611c-0.726,1.046-1.842,1.859-3.159,2.439
	c-1.316,0.58-2.836,0.87-4.559,0.87c-1.674,0-3.156-0.284-4.449-0.851c-1.292-0.567-2.294-1.374-3.008-2.42
	c-0.714-1.047-1.071-2.238-1.071-3.574v-1.106c0-0.127,0.043-0.234,0.129-0.321C7.881,21.044,7.985,21,8.108,21h5.243
	c0.124,0,0.228,0.044,0.314,0.132c0.086,0.088,0.128,0.195,0.128,0.321v0.378c0,0.517,0.228,1.068,0.684,1.522
	c0.456,0.454,1.04,0.681,1.754,0.681c0.738,0,1.347-0.234,1.827-0.7c0.48-0.467,0.72-1.053,0.72-1.758v-2.95
	c0-0.076-0.024-0.127-0.074-0.152c-0.049-0.025-0.098-0.013-0.147,0.038c-0.96,0.756-2.203,1.135-3.729,1.135
	c-1.501,0-2.873-0.378-4.117-1.135c-1.243-0.756-2.208-1.841-2.898-3.252C7.271,14.127,7,12.778,7,11.215z M13.128,11.102
	c0,0.807,0.198,1.525,0.591,2.156c0.517,0.756,1.255,1.134,2.215,1.134c1.058,0,1.822-0.391,2.289-1.172
	c0.345-0.554,0.517-1.261,0.517-2.117c0-0.781-0.16-1.463-0.48-2.042c-0.467-0.857-1.23-1.286-2.289-1.286
	c-1.009,0-1.772,0.429-2.289,1.286C13.313,9.639,13.128,10.32,13.128,11.102z"/>
</svg>
