<?xml version="1.0" encoding="utf-8"?>
<!-- Generator: Adobe Illustrator 25.0.0, SVG Export Plug-In . SVG Version: 6.00 Build 0)  -->
<svg version="1.1" id="Layer_1" xmlns="http://www.w3.org/2000/svg" xmlns:xlink="http://www.w3.org/1999/xlink" x="0px" y="0px"
	 width="32px" height="32px" viewBox="0 0 32 32" style="enable-background:new 0 0 32 32;" xml:space="preserve">
<style type="text/css">
	.st0{fill:#010101;}
</style>
<path class="st0" d="M30,25V5h-9v20h4v3h-9v-3h4V3h-9v22h4v3H6v-3h4V5H1v20h4v3H1v1h29v-1h-4v-3H30z M13,5h5v1h-5V5z M13,8h5v1h-5V8
	z M13,11h5v1h-5V11z M14,22h-1v-1h1V22z M13,15v-1h5v1H13z M3,8h5v1H3V8z M3,11h5v1H3V11z M4,22H3v-1h1V22z M3,15v-1h5v1H3z M23,8h5
	v1h-5V8z M23,11h5v1h-5V11z M24,22h-1v-1h1V22z M23,15v-1h5v1H23z"/>
</svg>
