<?xml version="1.0" encoding="utf-8"?>
<!-- Generator: Adobe Illustrator 23.0.2, SVG Export Plug-In . SVG Version: 6.00 Build 0)  -->
<svg version="1.1" id="Layer_1" xmlns="http://www.w3.org/2000/svg" xmlns:xlink="http://www.w3.org/1999/xlink" x="0px" y="0px"
	 width="32px" height="32px" viewBox="0 0 32 32" style="enable-background:new 0 0 32 32;" xml:space="preserve">
<style type="text/css">
	.st0{fill:#010101;}
</style>
<path class="st0" d="M30,10h-15c0.2-1.1,1.4-1.8,3.3-2.7C20.3,6.3,23,5,22.9,2H21c0.1,1.7-1.4,2.5-3.7,3.6c-1.9,0.9-4.2,2-4.4,4.4H4
	c-1.1,0-2,0.9-2,2V26c0,1.1,0.9,2,2,2H30c1.1,0,2-0.9,2-2V12C32,10.9,31.1,10,30,10z M16,14h2v2h-2V14z M16,18h2v2h-2V18z M12,14h2
	v2h-2V14z M12,18h2v2h-2V18z M6,24H4v-2h2V24z M6,20H4v-2h2V20z M6,16H4v-2h2V16z M10,24H8v-2h2V24z M10,20H8v-2h2V20z M10,16H8v-2
	h2V16z M22,24H12v-2h10V24z M22,20h-2v-2h2V20z M22,16h-2v-2h2V16z M26,24h-2v-2h2V24z M26,20h-2v-2h2V20z M26,16h-2v-2h2V16z
	 M30,24h-2v-2h2V24z M30,20h-2v-2h2V20z M30,16h-2v-2h2V16z"/>
</svg>
