<?xml version="1.0" encoding="utf-8"?>
<!-- Generator: Adobe Illustrator 25.0.1, SVG Export Plug-In . SVG Version: 6.00 Build 0)  -->
<svg version="1.1" id="Layer_1" xmlns="http://www.w3.org/2000/svg" xmlns:xlink="http://www.w3.org/1999/xlink" x="0px" y="0px"
	 width="32px" height="32px" viewBox="0 0 32 32" style="enable-background:new 0 0 32 32;" xml:space="preserve">
<style type="text/css">
	.st0{fill:#010101;}
</style>
<path class="st0" d="M7.131,28.871C7.043,28.786,7,28.682,7,28.559V3.441c0-0.122,0.043-0.226,0.131-0.312
	C7.218,3.043,7.323,3,7.448,3h8.696c1.941,0,3.658,0.331,5.152,0.993c1.492,0.662,2.65,1.605,3.471,2.831
	C25.59,8.049,26,9.458,26,11.051v9.897c0,1.594-0.41,3.003-1.232,4.229c-0.82,1.226-1.979,2.169-3.471,2.831
	C19.803,28.669,18.086,29,16.145,29H7.448C7.323,29,7.218,28.957,7.131,28.871z M13.187,24h3.417c0.995,0,1.804-0.35,2.426-1.048
	S19.975,21.316,20,20.14V11.86c0-1.177-0.317-2.114-0.952-2.812C18.413,8.349,17.586,8,16.566,8h-3.379C13.062,8,13,8.062,13,8.184
	v15.633C13,23.939,13.062,24,13.187,24z"/>
</svg>
