<?xml version="1.0" encoding="utf-8"?>
<!-- Generator: Adobe Illustrator 25.0.0, SVG Export Plug-In . SVG Version: 6.00 Build 0)  -->
<svg version="1.1" id="Layer_1" xmlns="http://www.w3.org/2000/svg" xmlns:xlink="http://www.w3.org/1999/xlink" x="0px" y="0px"
	 width="32px" height="32px" viewBox="0 0 32 32" style="enable-background:new 0 0 32 32;" xml:space="preserve">
<style type="text/css">
	.st0{fill:#010101;}
</style>
<path class="st0" d="M21.386,28.629l-0.967-3.48C20.369,25.05,20.307,25,20.233,25H11.76c-0.075,0-0.136,0.05-0.186,0.149
	l-0.966,3.48C10.534,28.876,10.36,29,10.088,29H4.401c-0.148,0-0.26-0.043-0.334-0.13C3.992,28.783,3.98,28.654,4.03,28.48
	l7.953-25.109C12.057,3.124,12.218,3,12.466,3h7.023c0.248,0,0.41,0.124,0.483,0.372l7.991,25.109C27.987,28.53,28,28.591,28,28.666
	C28,28.888,27.864,29,27.592,29h-5.686C21.632,29,21.46,28.876,21.386,28.629z M13.209,20h5.537c0.149,0,0.243-0.075,0.193-0.224
	l-2.828-9.646c-0.026-0.099-0.046-0.13-0.112-0.13c-0.052,0-0.087,0.055-0.111,0.13l-2.829,9.646C13.035,19.925,13.085,20,13.209,20
	z"/>
</svg>
