<?xml version="1.0" encoding="utf-8"?>
<!-- Generator: Adobe Illustrator 25.0.0, SVG Export Plug-In . SVG Version: 6.00 Build 0)  -->
<svg version="1.1" id="Layer_1" xmlns="http://www.w3.org/2000/svg" xmlns:xlink="http://www.w3.org/1999/xlink" x="0px" y="0px"
	 width="32px" height="32px" viewBox="0 0 32 32" style="enable-background:new 0 0 32 32;" xml:space="preserve">
<style type="text/css">
	.st0{fill:#010101;}
</style>
<path class="st0" d="M17,18h-6v-2h6v-2h-6v-2h10v2h4V2H7v28h10V18z M11,8h10v2H11V8z M11,26v-2h2v2H11z"/>
<polygon class="st0" points="30,24 30,22 26,22 26,21 28,21 28,16 23,16 23,21 25,21 25,22 21,22 21,24 19,24 19,29 24,29 24,24 
	22,24 22,23 29,23 29,24 27,24 27,29 32,29 32,24 "/>
</svg>
