<?xml version="1.0" encoding="utf-8"?>
<!-- Generator: Adobe Illustrator 25.0.1, SVG Export Plug-In . SVG Version: 6.00 Build 0)  -->
<svg version="1.1" id="Layer_1" xmlns="http://www.w3.org/2000/svg" xmlns:xlink="http://www.w3.org/1999/xlink" x="0px" y="0px"
	 width="32px" height="32px" viewBox="0 0 32 32" style="enable-background:new 0 0 32 32;" xml:space="preserve">
<style type="text/css">
	.st0{fill:#010101;}
</style>
<path class="st0" d="M24.869,7.871C24.782,7.958,24.676,8,24.552,8H13.187C13.062,8,13,8.062,13,8.184v5.132
	c0,0.123,0.062,0.184,0.187,0.184h7.365c0.125,0,0.23,0.043,0.317,0.128C20.956,13.715,21,13.819,21,13.941v4.119
	c0,0.123-0.044,0.227-0.131,0.312S20.677,18.5,20.552,18.5h-7.365C13.062,18.5,13,18.562,13,18.685v5.132
	C13,23.939,13.062,24,13.187,24h11.365c0.124,0,0.23,0.043,0.317,0.129S25,24.319,25,24.441v4.117c0,0.123-0.044,0.228-0.131,0.312
	C24.782,28.957,24.676,29,24.552,29H7.448c-0.125,0-0.23-0.043-0.317-0.129C7.043,28.786,7,28.682,7,28.559V3.441
	c0-0.122,0.043-0.226,0.131-0.312C7.218,3.043,7.323,3,7.448,3h17.104c0.124,0,0.23,0.043,0.317,0.128
	C24.956,3.215,25,3.319,25,3.441v4.118C25,7.682,24.956,7.786,24.869,7.871z"/>
</svg>
