<?xml version="1.0" encoding="utf-8"?>
<!-- Generator: Adobe Illustrator 23.0.1, SVG Export Plug-In . SVG Version: 6.00 Build 0)  -->
<svg version="1.1" id="Layer_1" xmlns="http://www.w3.org/2000/svg" xmlns:xlink="http://www.w3.org/1999/xlink" x="0px" y="0px"
	 width="32px" height="32px" viewBox="0 0 32 32" style="enable-background:new 0 0 32 32;" xml:space="preserve">
<style type="text/css">
	.st0{fill:#010101;}
</style>
<path class="st0" d="M26,28V2H6v26H4v2h24v-2H26z M8,20v-4h4v4H8z M20,16h4v4h-4V16z M20,14v-4h4v4H20z M18,14h-4v-4h4V14z M12,14H8
	v-4h4V14z M14,16h4v4h-4V16z M24,4v4h-4V4H24z M18,4v4h-4V4H18z M12,4v4H8V4H12z M14,28v-6h4v6H14z"/>
</svg>
