<?xml version="1.0" encoding="utf-8"?>
<!-- Generator: Adobe Illustrator 23.0.1, SVG Export Plug-In . SVG Version: 6.00 Build 0)  -->
<svg version="1.1" id="Layer_1" xmlns="http://www.w3.org/2000/svg" xmlns:xlink="http://www.w3.org/1999/xlink" x="0px" y="0px"
	 width="32px" height="32px" viewBox="0 0 32 32" style="enable-background:new 0 0 32 32;" xml:space="preserve">
<style type="text/css">
	.st0{fill:#010101;}
</style>
<g>
	<path class="st0" d="M17,6.7c-5.2,5.5-7,8.3-7,8.3H5l-3,4l4,1v3l3,3h3l1,4l4-3v-5c0,0,2.8-1.8,8.3-7S31,1,31,1S22.3,1.2,17,6.7z
		 M23,11c-1.1,0-2-0.9-2-2s0.9-2,2-2s2,0.9,2,2S24.1,11,23,11z"/>
	<path class="st0" d="M4,24c-3,3-3,7-3,7s4,0,7-3H4V24z"/>
</g>
</svg>
