<?xml version="1.0" encoding="utf-8"?>
<!-- Generator: Adobe Illustrator 23.0.1, SVG Export Plug-In . SVG Version: 6.00 Build 0)  -->
<svg version="1.1" id="Layer_1" xmlns="http://www.w3.org/2000/svg" xmlns:xlink="http://www.w3.org/1999/xlink" x="0px" y="0px"
	 width="32px" height="32px" viewBox="0 0 32 32" style="enable-background:new 0 0 32 32;" xml:space="preserve">
<style type="text/css">
	.st0{fill:#010101;}
</style>
<g>
	<path class="st0" d="M12.6,13.3c0,0.2,0,0.4,0,0.5l7.6-7.8c1.1-1.1,1.2-3,0.1-4.2c-1.1-1.2-3.1-1.3-4.2-0.1L8.4,9.6
		c0.2,0,0.3,0,0.5,0C10.9,9.5,12.6,11.2,12.6,13.3z"/>
	<path class="st0" d="M11.9,13.3c0-1.7-1.3-3-2.9-3S6,11.7,6,13.3c0,1.7,1.3,3,2.9,3S11.9,15,11.9,13.3z"/>
	<path class="st0" d="M14.9,25.9c-0.5-0.6-0.9-1-0.9-1c-1.6,0-2.9,1.4-2.9,3c0,0.8,0.3,1.5,0.7,2C12.2,30.6,13,31,14,31
		c0.8,0,1.4-0.3,2-0.8c0.6-0.6,0.4-1.7,0.4-1.7C16.3,27.7,15.5,26.6,14.9,25.9z"/>
	<path class="st0" d="M25.1,16.4L25.1,16.4l-6.7-7.5c0,0-7.1,7.2-7.1,7.2c-0.7,0.6-1.5,1-2.5,1c-0.2,0-0.4,0-0.6-0.1l6.5,7.3
		c0,0,2.5,2.6,2.7,4.2l7.4-7.6c0.7-0.6,1.1-1.4,1.1-2.4C26,17.7,25.7,16.9,25.1,16.4z"/>
</g>
</svg>
