<?xml version="1.0" encoding="utf-8"?>
<!-- Generator: Adobe Illustrator 23.0.1, SVG Export Plug-In . SVG Version: 6.00 Build 0)  -->
<svg version="1.1" id="Layer_1" xmlns="http://www.w3.org/2000/svg" xmlns:xlink="http://www.w3.org/1999/xlink" x="0px" y="0px"
	 width="32px" height="32px" viewBox="0 0 32 32" style="enable-background:new 0 0 32 32;" xml:space="preserve">
<style type="text/css">
	.st0{fill:#010101;}
</style>
<path class="st0" d="M26.9,14.1C26.5,11.8,24.4,10,22,10c-1,0-1.9,0.3-2.7,0.8C18.1,8,15.3,6,12,6c-4.4,0-8,3.6-8,8
	c0,0.1,0,0.2,0,0.3c-2.3,0.8-4,3-4,5.7c0,3.3,2.7,6,6,6h20c3.3,0,6-2.7,6-6C32,17,29.8,14.5,26.9,14.1z"/>
</svg>
