<?xml version="1.0" encoding="utf-8"?>
<!-- Generator: Adobe Illustrator 23.0.2, SVG Export Plug-In . SVG Version: 6.00 Build 0)  -->
<svg version="1.1" id="Layer_1" xmlns="http://www.w3.org/2000/svg" xmlns:xlink="http://www.w3.org/1999/xlink" x="0px" y="0px"
	 width="32px" height="32px" viewBox="0 0 32 32" style="enable-background:new 0 0 32 32;" xml:space="preserve">
<style type="text/css">
	.st0{fill:#010101;}
</style>
<path class="st0" d="M30.2,22.5L21,10V5h0.5C22.3,5,23,4.3,23,3.5S22.3,2,21.5,2h-11C9.7,2,9,2.7,9,3.5S9.7,5,10.5,5H11v5L1.8,22.5
	C1.3,23.2,1,24,1,24.9V27c0,1.7,1.3,3,3,3v0c0,0,0,0,0,0h24c0,0,0,0,0,0v0c1.7,0,3-1.3,3-3v-2.1C31,24,30.7,23.2,30.2,22.5z
	 M28,25.9c0,0.6-0.5,1.1-1.1,1.1H5.1C4.5,27,4,26.5,4,25.9v-0.7c0-0.4,0.1-0.8,0.4-1.2L14,11V5h4v6l9.6,13c0.3,0.3,0.4,0.8,0.4,1.2
	V25.9z"/>
<path class="st0" d="M21,20c-4,0-7,3-11,1l-1.8,3.1C7.7,24.9,8.3,26,9.2,26h13.5c1,0,1.6-1.1,1.1-1.9L21,20z"/>
<circle class="st0" cx="14" cy="18" r="2"/>
</svg>
