<?xml version="1.0" encoding="utf-8"?>
<!-- Generator: Adobe Illustrator 25.0.1, SVG Export Plug-In . SVG Version: 6.00 Build 0)  -->
<svg version="1.1" id="Layer_1" xmlns="http://www.w3.org/2000/svg" xmlns:xlink="http://www.w3.org/1999/xlink" x="0px" y="0px"
	 width="32px" height="32px" viewBox="0 0 32 32" style="enable-background:new 0 0 32 32;" xml:space="preserve">
<style type="text/css">
	.st0{fill:#010101;}
</style>
<path class="st0" d="M24.73,7.011c-0.846-1.434-1.862-2.549-3.393-3.345S18.016,2.5,16,2.5s-3.807,0.37-5.338,1.166
	S8.115,5.578,7.27,7.011C6.423,8.445,6,10.594,6,12.456v7.088c0,1.862,0.423,4.011,1.27,5.445c0.846,1.434,1.862,2.549,3.393,3.345
	S13.984,29.5,16,29.5s3.807-0.37,5.338-1.166s2.547-1.912,3.393-3.345c0.846-1.434,1.27-3.583,1.27-5.445v-7.088
	C26,10.594,25.577,8.445,24.73,7.011z M20,20c0,1.25-0.392,2.07-1.126,2.842C18.14,23.614,17.17,24,16,24s-2.14-0.386-2.874-1.158
	C12.392,22.07,12,21.059,12,19.809v-7.617c0-1.25,0.392-2.261,1.126-3.033C13.86,8.386,14.83,8,16,8s2.14,0.386,2.874,1.158
	C19.608,9.93,20,11.133,20,12.383V20z"/>
</svg>
