<?xml version="1.0" encoding="utf-8"?>
<!-- Generator: Adobe Illustrator 25.0.1, SVG Export Plug-In . SVG Version: 6.00 Build 0)  -->
<svg version="1.1" id="Layer_1" xmlns="http://www.w3.org/2000/svg" xmlns:xlink="http://www.w3.org/1999/xlink" x="0px" y="0px"
	 width="32px" height="32px" viewBox="0 0 32 32" style="enable-background:new 0 0 32 32;" xml:space="preserve">
<style type="text/css">
	.st0{fill:#010101;}
</style>
<path class="st0" d="M6.63,28.871c-0.087-0.085-0.13-0.189-0.13-0.312v-4.779c0-0.195,0.062-0.379,0.187-0.551L18.222,8.22
	c0.05-0.049,0.062-0.098,0.037-0.147C18.234,8.024,18.185,8,18.109,8H7.448C7.323,8,7.217,7.958,7.13,7.871
	C7.043,7.786,7,7.682,7,7.559V3.441c0-0.122,0.043-0.226,0.13-0.312C7.217,3.043,7.323,3,7.448,3h17.104
	c0.125,0,0.23,0.043,0.317,0.128C24.956,3.215,25,3.319,25,3.441v5.044c0,0.196-0.062,0.38-0.187,0.551L13.592,23.779
	c-0.05,0.05-0.062,0.099-0.038,0.147C13.579,23.977,13.629,24,13.704,24h10.848c0.125,0,0.23,0.043,0.317,0.129S25,24.319,25,24.441
	v4.117c0,0.123-0.044,0.228-0.131,0.312C24.782,28.957,24.677,29,24.552,29H6.948C6.823,29,6.717,28.957,6.63,28.871z"/>
</svg>
