<?xml version="1.0" encoding="utf-8"?>
<!-- Generator: Adobe Illustrator 22.1.0, SVG Export Plug-In . SVG Version: 6.00 Build 0)  -->
<svg version="1.1" id="Calque_1" xmlns="http://www.w3.org/2000/svg" xmlns:xlink="http://www.w3.org/1999/xlink" x="0px" y="0px"
	 width="32px" height="32px" viewBox="0 0 32 32" style="enable-background:new 0 0 32 32;" xml:space="preserve">
<style type="text/css">
	.st0{fill:#010101;}
</style>
<path class="st0" d="M21,2c-5.5,0-10,4.5-10,10c0,1.2,0.2,2.3,0.6,3.4L1,26v4l5,0l2-4h2l2-2h2l3.5-2.6c1.1,0.4,2.3,0.6,3.5,0.6
	c5.5,0,10-4.5,10-10S26.5,2,21,2z M23,13c-1.7,0-3-1.3-3-3s1.3-3,3-3s3,1.3,3,3S24.7,13,23,13z"/>
</svg>
