<?xml version="1.0" encoding="utf-8"?>
<!-- Generator: Adobe Illustrator 23.0.1, SVG Export Plug-In . SVG Version: 6.00 Build 0)  -->
<svg version="1.1" id="Layer_1" xmlns="http://www.w3.org/2000/svg" xmlns:xlink="http://www.w3.org/1999/xlink" x="0px" y="0px"
	 width="32px" height="32px" viewBox="0 0 32 32" style="enable-background:new 0 0 32 32;" xml:space="preserve">
<style type="text/css">
	.st0{fill-rule:evenodd;clip-rule:evenodd;fill:#010101;}
</style>
<g>
	<path class="st0" d="M30,22.8v-0.2c-2.7-1.4-4.2-3.5-4.2-6.4c0-2.4,1.1-4.5,3.1-5.9l0.1,0c-1.3-1.6-3.1-3.1-5.9-3.1
		c-1.9,0-3.6,1.8-6.2,1.8c-2.1,0-3-1.7-5.3-1.7C6.8,7.2,2,11.3,2,16.6c0,2.8,1,7.1,3.1,10.9c1.6,2.8,3.5,4.5,5.7,4.5
		c1.6,0,3.4-1.4,5.6-1.4c1.9,0,3.7,1.2,5.5,1.2c4.2,0,8.1-5.2,8.1-8.6C30,23.1,30,23,30,22.8z"/>
	<path class="st0" d="M21.8,4.4C23.7,2.3,23,0,23,0s-2.9,0.1-5,3c-2.1,3-1,5-1,5S19,7.6,21.8,4.4z"/>
</g>
</svg>
