<?xml version="1.0" encoding="utf-8"?>
<!-- Generator: Adobe Illustrator 25.0.1, SVG Export Plug-In . SVG Version: 6.00 Build 0)  -->
<svg version="1.1" id="Layer_1" xmlns="http://www.w3.org/2000/svg" xmlns:xlink="http://www.w3.org/1999/xlink" x="0px" y="0px"
	 width="32px" height="32px" viewBox="0 0 32 32" style="enable-background:new 0 0 32 32;" xml:space="preserve">
<style type="text/css">
	.st0{fill:#010101;}
</style>
<path class="st0" d="M13.126,29c-0.249,0-0.411-0.122-0.485-0.367L5.037,3.515L5,3.368C5,3.123,5.137,3,5.411,3H11
	c0.274,0,0.448,0.123,0.523,0.368l4.365,16.993c0.025,0.073,0.062,0.11,0.112,0.11s0.087-0.037,0.112-0.11l4.365-16.993
	C20.552,3.123,20.726,3,21,3h5.589C26.863,3,27,3.123,27,3.368l-0.037,0.147l-7.604,25.118C19.285,28.878,19.123,29,18.874,29
	H13.126z"/>
</svg>
