<?xml version="1.0" encoding="utf-8"?>
<!-- Generator: Adobe Illustrator 25.0.1, SVG Export Plug-In . SVG Version: 6.00 Build 0)  -->
<svg version="1.1" id="Layer_1" xmlns="http://www.w3.org/2000/svg" xmlns:xlink="http://www.w3.org/1999/xlink" x="0px" y="0px"
	 width="32px" height="32px" viewBox="0 0 32 32" style="enable-background:new 0 0 32 32;" xml:space="preserve">
<style type="text/css">
	.st0{fill:#010101;}
</style>
<path class="st0" d="M9.047,27.081c-1.685-1.613-2.529-3.807-2.529-6.582V11.35c0-2.75,0.843-4.913,2.529-6.488
	S13.043,2.5,15.98,2.5c2.937,0,5.261,0.794,6.972,2.382c1.71,1.588,2.565,3.744,2.565,6.469v9.149c0,2.775-0.856,4.969-2.565,6.582
	c-1.712,1.612-4.035,2.419-6.972,2.419C13.043,29.5,10.732,28.693,9.047,27.081z M16,24c0.971,0,1.75-0.293,2.299-0.882
	C18.848,22.532,19,21.726,19,20.7v-9.4c0-1.024-0.158-1.831-0.72-2.419C17.718,8.294,16.945,8,16,8s-1.718,0.294-2.28,0.882
	C13.158,9.469,13,10.276,13,11.3v9.4c0,1.026,0.152,1.832,0.701,2.419C14.25,23.707,15.029,24,16,24z"/>
</svg>
