<?xml version="1.0" encoding="utf-8"?>
<!-- Generator: Adobe Illustrator 25.0.0, SVG Export Plug-In . SVG Version: 6.00 Build 0)  -->
<svg version="1.1" id="Layer_1" xmlns="http://www.w3.org/2000/svg" xmlns:xlink="http://www.w3.org/1999/xlink" x="0px" y="0px"
	 width="32px" height="32px" viewBox="0 0 32 32" style="enable-background:new 0 0 32 32;" xml:space="preserve">
<style type="text/css">
	.st0{fill:#010101;}
</style>
<path class="st0" d="M1,8.44l2.727,2.829c6.777-7.03,17.768-7.03,24.545,0L31,8.44C22.723-0.147,9.291-0.147,1,8.44z M11.909,19.756
	L16,24l4.091-4.244C17.841,17.408,14.173,17.408,11.909,19.756z M6.455,14.098l2.727,2.829c3.764-3.904,9.873-3.904,13.636,0
	l2.727-2.829C20.282,8.638,11.732,8.638,6.455,14.098z"/>
<path class="st0" d="M27,19v8H5v-8H2v8c0,1.657,1.343,3,3,3h22c1.657,0,3-1.343,3-3v-8H27z"/>
</svg>
