<?xml version="1.0" encoding="utf-8"?>
<!-- Generator: Adobe Illustrator 23.0.2, SVG Export Plug-In . SVG Version: 6.00 Build 0)  -->
<svg version="1.1" id="Layer_1" xmlns="http://www.w3.org/2000/svg" xmlns:xlink="http://www.w3.org/1999/xlink" x="0px" y="0px"
	 width="32px" height="32px" viewBox="0 0 32 32" style="enable-background:new 0 0 32 32;" xml:space="preserve">
<style type="text/css">
	.st0{fill:#010101;}
</style>
<path class="st0" d="M16.8,8.6c-1.4-0.8-2.9-1.1-4.5-1c-3,0.2-5.1,1.6-6.4,4.3c-0.9,2-1.1,4.1-0.6,6.3c0.7,3.7,3.6,6.3,7.4,6.3
	c0.3,0,0.6,0,1,0c2.9-0.4,4.9-1.9,6.1-4.5c0.9-2.2,1-4.4,0.4-6.6C19.5,11.2,18.5,9.7,16.8,8.6z M16.8,19.5c-1.9,3.1-6.4,3.1-8.2-0.1
	c-1.2-2.2-1.3-4.6,0-6.8c1.8-3.2,6.3-3.2,8.2,0c0.6,1,0.9,2.2,0.9,3.3C17.7,17.2,17.4,18.4,16.8,19.5z"/>
<path class="st0" d="M31.1,16.4c-0.6-0.8-1.5-1.2-2.5-1.6c-0.9-0.3-1.8-0.7-2.7-1.1c-1.2-0.6-1-2.6,0.1-3.2c0.8-0.4,1.6-0.4,2.5-0.2
	c0.6,0.2,1,0.5,1.4,1.1c0.6-0.8,1.2-1.5,1.9-2.2c-0.2-0.2-0.4-0.4-0.5-0.4c-1.4-1-3-1.2-4.7-1c-2.2,0.3-4,1.9-4.2,4.2
	c-0.1,1.5,0.1,2.8,1.3,3.8c0.6,0.5,1.4,0.8,2.1,1.1c0.9,0.3,1.7,0.7,2.6,1.1c1.3,0.7,1.1,2.8-0.2,3.4c-1.1,0.5-2.2,0.4-3.2-0.2
	c-0.4-0.3-0.8-0.7-1.2-1.1c-0.6,0.6-1.3,1.3-1.9,2c0.2,0.2,0.3,0.4,0.5,0.5c1.1,1,2.4,1.5,3.8,1.6c0.9,0,1.9,0,2.8-0.4
	c1.9-0.8,2.8-2.3,2.9-4.3C32,18.5,31.8,17.4,31.1,16.4z"/>
<path class="st0" d="M0.3,23.9c0.8,0,1.6,0,2.4,0c0-3.6,0-7.2,0-10.8c-0.8,0-1.6,0-2.4,0C0.3,16.7,0.3,20.3,0.3,23.9z"/>
<path class="st0" d="M1.6,7.8C0.7,7.8,0,8.5,0,9.5c0,0.9,0.6,1.6,1.6,1.6s1.6-0.6,1.6-1.6S2.5,7.9,1.6,7.8z"/>
</svg>
