<?xml version="1.0" encoding="utf-8"?>
<!-- Generator: Adobe Illustrator 23.0.2, SVG Export Plug-In . SVG Version: 6.00 Build 0)  -->
<svg version="1.1" id="Layer_1" xmlns="http://www.w3.org/2000/svg" xmlns:xlink="http://www.w3.org/1999/xlink" x="0px" y="0px"
	 width="32px" height="32px" viewBox="0 0 32 32" style="enable-background:new 0 0 32 32;" xml:space="preserve">
<style type="text/css">
	.st0{fill:#010101;}
</style>
<path class="st0" d="M30,28V14H18V2H4v26H3v2h28v-2H30z M10,20H6v-4h4V20z M10,14H6v-4h4V14z M10,8H6V4h4V8z M16,28h-4v-6h4V28z
	 M16,20h-4v-4h4V20z M16,14h-4v-4h4V14z M16,8h-4V4h4V8z M22,26h-4v-4h4V26z M22,20h-4v-4h4V20z M28,26h-4v-4h4V26z M28,20h-4v-4h4
	V20z"/>
</svg>
