<?xml version="1.0" encoding="utf-8"?>
<!-- Generator: Adobe Illustrator 25.0.1, SVG Export Plug-In . SVG Version: 6.00 Build 0)  -->
<svg version="1.1" id="Layer_1" xmlns="http://www.w3.org/2000/svg" xmlns:xlink="http://www.w3.org/1999/xlink" x="0px" y="0px"
	 width="32px" height="32px" viewBox="0 0 32 32" style="enable-background:new 0 0 32 32;" xml:space="preserve">
<style type="text/css">
	.st0{fill:#010101;}
</style>
<path class="st0" d="M25.87,3.128C25.783,3.043,25.677,3,25.552,3h-5.104c-0.125,0-0.23,0.043-0.317,0.128
	C20.044,3.215,20,3.319,20,3.441V20.25c0,1.152-0.591,2.077-1.275,2.775C18.04,23.725,17.145,24,16,24s-2.04-0.275-2.725-0.975
	C12.591,22.327,12,21.402,12,20.25V3.441c0-0.122-0.044-0.226-0.131-0.312C11.782,3.043,11.676,3,11.552,3H6.448
	C6.323,3,6.217,3.043,6.13,3.128C6.043,3.215,6,3.319,6,3.441V20.25c0,1.789,0.417,3.37,1.25,4.742
	c0.833,1.373,2.055,2.434,3.561,3.181C12.317,28.921,14.034,29.3,16,29.3s3.683-0.379,5.188-1.127
	c1.506-0.747,2.728-1.808,3.561-3.181C25.583,23.62,26,22.039,26,20.25V3.441C26,3.319,25.957,3.215,25.87,3.128z"/>
</svg>
