<?xml version="1.0" encoding="utf-8"?>
<!-- Generator: Adobe Illustrator 23.0.2, SVG Export Plug-In . SVG Version: 6.00 Build 0)  -->
<svg version="1.1" id="Layer_1" xmlns="http://www.w3.org/2000/svg" xmlns:xlink="http://www.w3.org/1999/xlink" x="0px" y="0px"
	 width="32px" height="32px" viewBox="0 0 32 32" style="enable-background:new 0 0 32 32;" xml:space="preserve">
<style type="text/css">
	.st0{fill:#010101;}
</style>
<path class="st0" d="M16,12c-2.2,0-4,1.8-4,4c0,2.2,1.8,4,4,4s4-1.8,4-4C20,13.8,18.2,12,16,12z M16,18c-1.1,0-2-0.9-2-2
	c0-1.1,0.9-2,2-2s2,0.9,2,2C18,17.1,17.1,18,16,18z"/>
<path class="st0" d="M16,2C8.3,2,2,8.3,2,16s6.3,14,14,14s14-6.3,14-14S23.7,2,16,2z M8.8,26.8c-1.4-1-2.7-2.2-3.6-3.6l5-3.3
	c0.5,0.8,1.2,1.4,1.9,1.9L8.8,26.8z M16,22c-3.3,0-6-2.7-6-6s2.7-6,6-6s6,2.7,6,6S19.3,22,16,22z M21.8,12.1
	c-0.5-0.8-1.2-1.4-1.9-1.9l3.3-5c1.4,1,2.7,2.2,3.6,3.6L21.8,12.1z"/>
</svg>
