<?xml version="1.0" encoding="utf-8"?>
<!-- Generator: Adobe Illustrator 23.0.1, SVG Export Plug-In . SVG Version: 6.00 Build 0)  -->
<svg version="1.1" id="Layer_1" xmlns="http://www.w3.org/2000/svg" xmlns:xlink="http://www.w3.org/1999/xlink" x="0px" y="0px"
	 width="32px" height="32px" viewBox="0 0 32 32" style="enable-background:new 0 0 32 32;" xml:space="preserve">
<style type="text/css">
	.st0{fill:#010101;}
</style>
<path class="st0" d="M10,30H2V12h8V30z M6,24c-1.1,0-2,0.9-2,2s0.9,2,2,2s2-0.9,2-2S7.1,24,6,24z"/>
<path class="st0" d="M31,14c0-1.7-1.3-3-3-3h-7.3C20.8,9.9,21,8.6,21,7c0-4-2.9-5.2-4-5C15.8,2.2,16,4,16,4c0.5,8.5-4,9-4,9v14
	c0,0,5,1,8,1c2.7,0,6.1-0.3,7.4-1.6c0,0,0,0,0.1-0.1c0.1-0.1,0.1-0.1,0.2-0.2c0,0,0.1-0.1,0.1-0.1c0,0,0,0,0-0.1c0,0,0,0,0-0.1
	c0.2-0.3,0.3-0.6,0.3-1c0-0.4-0.1-0.8-0.3-1.1c0.8-0.3,1.3-1,1.3-1.9c0-0.5-0.2-1-0.6-1.4c0.9-0.5,1.6-1.5,1.6-2.6
	c0-0.5-0.2-1-0.4-1.5C30.4,16,31,15.1,31,14z"/>
</svg>
