<?xml version="1.0" encoding="utf-8"?>
<!-- Generator: Adobe Illustrator 25.0.0, SVG Export Plug-In . SVG Version: 6.00 Build 0)  -->
<svg version="1.1" id="Layer_1" xmlns="http://www.w3.org/2000/svg" xmlns:xlink="http://www.w3.org/1999/xlink" x="0px" y="0px"
	 width="32px" height="32px" viewBox="0 0 32 32" style="enable-background:new 0 0 32 32;" xml:space="preserve">
<style type="text/css">
	.st0{fill:#010101;}
</style>
<path class="st0" d="M17.25,9.778c0.071-0.024,0.148-0.037,0.217-0.065L21.873,15h6.747c-0.703-0.615-1.613-1-2.62-1
	c-0.519,0-1.012,0.106-1.468,0.287L19.385,8.11C19.769,7.496,20,6.777,20,6c0-2.209-1.791-4-4-4s-4,1.791-4,4
	c0,0.777,0.231,1.496,0.615,2.11l-5.147,6.177C7.012,14.106,6.519,14,6,14c-2.209,0-4,1.791-4,4c0,2.209,1.791,4,4,4
	c0.806,0,1.554-0.243,2.182-0.654l4.08,3.264C12.101,25.045,12,25.509,12,26c0,2.209,1.791,4,4,4c0.439,0,0.854-0.088,1.25-0.219
	V9.778z M14.75,22.208c-0.331,0.11-0.645,0.258-0.932,0.445l-4.08-3.264C9.899,18.955,10,18.491,10,18
	c0-0.777-0.231-1.496-0.615-2.11l5.147-6.176c0.07,0.028,0.146,0.041,0.217,0.065V22.208z"/>
<polygon class="st0" points="30,25 30,24 30,23 29,23 26,23 26,22 28,22 28,17 23,17 23,22 25,22 25,23 22,23 21,23 21,24 21,25 19,25 19,30 
	24,30 24,25 22,25 22,24 29,24 29,25 27,25 27,30 32,30 32,25 "/>
</svg>
