<?xml version="1.0" encoding="utf-8"?>
<!-- Generator: Adobe Illustrator 23.0.2, SVG Export Plug-In . SVG Version: 6.00 Build 0)  -->
<svg version="1.1" id="Layer_1" xmlns="http://www.w3.org/2000/svg" xmlns:xlink="http://www.w3.org/1999/xlink" x="0px" y="0px"
	 width="32px" height="32px" viewBox="0 0 32 32" style="enable-background:new 0 0 32 32;" xml:space="preserve">
<style type="text/css">
	.st0{fill:#010101;}
</style>
<path class="st0" d="M30.5,12.5c-0.3-0.9-1.1-1.5-2.1-1.5h-7.9l-2.4-7.5C17.8,2.6,17,2,16,2s-1.8,0.6-2.1,1.5L11.5,11H3.6
	c-1,0-1.8,0.6-2.1,1.5c-0.3,0.9,0,1.9,0.8,2.5l6.4,4.6l-2.4,7.5C5.9,28,6.3,29,7,29.6c0.8,0.6,1.8,0.6,2.6,0L16,25l6.4,4.6
	c0.8,0.6,1.8,0.6,2.6,0c0.8-0.6,1.1-1.6,0.8-2.5l-2.4-7.5l6.4-4.6C30.5,14.4,30.8,13.4,30.5,12.5z"/>
</svg>
