<?xml version="1.0" encoding="utf-8"?>
<!-- Generator: Adobe Illustrator 25.0.0, SVG Export Plug-In . SVG Version: 6.00 Build 0)  -->
<svg version="1.1" id="Layer_1" xmlns="http://www.w3.org/2000/svg" xmlns:xlink="http://www.w3.org/1999/xlink" x="0px" y="0px"
	 width="32px" height="32px" viewBox="0 0 32 32" style="enable-background:new 0 0 32 32;" xml:space="preserve">
<style type="text/css">
	.st0{fill:#010101;}
</style>
<path class="st0" d="M16,3C8.268,3,2,9.268,2,17c0,5.35,3.003,9.995,7.412,12.352l1.412-2.647C7.359,24.853,5,21.203,5,17
	C5,10.925,9.925,6,16,6s11,4.925,11,11c0,4.203-2.359,7.853-5.824,9.705l1.412,2.647C26.997,26.995,30,22.35,30,17
	C30,9.268,23.732,3,16,3z"/>
<path class="st0" d="M11.765,24.94l1.412-2.647C11.287,21.283,10,19.293,10,17c0-3.314,2.686-6,6-6s6,2.686,6,6
	c0,2.293-1.287,4.283-3.177,5.294l1.412,2.647C23.07,23.425,25,20.439,25,17c0-4.971-4.029-9-9-9s-9,4.029-9,9
	C7,20.439,8.93,23.425,11.765,24.94z"/>
<path class="st0" d="M20,17c0-2.209-1.791-4-4-4s-4,1.791-4,4c0,1.678,1.035,3.109,2.5,3.703V22h3v-1.297
	C18.965,20.109,20,18.678,20,17z"/>
</svg>
