<?xml version="1.0" encoding="utf-8"?>
<!-- Generator: Adobe Illustrator 24.1.2, SVG Export Plug-In . SVG Version: 6.00 Build 0)  -->
<svg version="1.1" id="Layer_1" xmlns="http://www.w3.org/2000/svg" xmlns:xlink="http://www.w3.org/1999/xlink" x="0px" y="0px"
	 width="32px" height="32px" viewBox="0 0 32 32" style="enable-background:new 0 0 32 32;" xml:space="preserve">
<style type="text/css">
	.st0{fill:#010101;}
</style>
<path class="st0" d="M14,13l-1.376-2.097C12.255,10.339,11.626,10,10.952,10H2c-0.552,0-1,0.448-1,1v18c0,0.552,0.448,1,1,1h28
	c0.552,0,1-0.448,1-1V14c0-0.552-0.448-1-1-1H14z"/>
<path class="st0" d="M31,11v-1c0-0.552-0.448-1-1-1H16l-1.376-2.097C14.255,6.339,13.626,6,12.952,6H4C3.448,6,3,6.448,3,7v1h9
	c0.674,0,1.255,0.339,1.624,0.903L15,11H31z"/>
<path class="st0" d="M31,7V6c0-0.552-0.448-1-1-1H18l-1.376-2.097C16.255,2.339,15.626,2,14.952,2H6C5.448,2,5,2.448,5,3v1h9
	c0.674,0,1.255,0.339,1.624,0.903L17,7H31z"/>
</svg>
