<?xml version="1.0" encoding="utf-8"?>
<!-- Generator: Adobe Illustrator 25.0.0, SVG Export Plug-In . SVG Version: 6.00 Build 0)  -->
<svg version="1.1" id="Layer_1" xmlns="http://www.w3.org/2000/svg" xmlns:xlink="http://www.w3.org/1999/xlink" x="0px" y="0px"
	 width="32px" height="32px" viewBox="0 0 32 32" style="enable-background:new 0 0 32 32;" xml:space="preserve">
<style type="text/css">
	.st0{fill:#010101;}
</style>
<path class="st0" d="M31,26c0,0.828-0.672,1.5-1.5,1.5h-7.522l1.75-3h0.702l-0.93-1.594l-3.704,6.35
	C19.517,29.733,19.015,30,18.499,30c-0.257,0-0.518-0.065-0.755-0.204c-0.716-0.418-0.957-1.336-0.54-2.052l0.151-0.258
	C16.596,27.411,16,26.779,16,26c0-0.828,0.671-1.5,1.5-1.5h1.597l2.667-4.572l-1.559-2.673c-0.417-0.716-0.176-1.634,0.54-2.052
	c0.714-0.415,1.634-0.177,2.052,0.54l1.01,1.732l1.43,2.452l0,0l2.667,4.572H29.5C30.328,24.5,31,25.172,31,26z M27.204,29.256
	C27.484,29.733,27.986,30,28.501,30c0.257,0,0.518-0.065,0.755-0.204c0.478-0.279,0.741-0.78,0.741-1.296h-3.234L27.204,29.256z
	 M26.796,17.255c0.417-0.716,0.176-1.634-0.54-2.052c-0.714-0.415-1.634-0.177-2.052,0.54l-0.125,0.215l1.737,2.977L26.796,17.255z"
	/>
<path class="st0" d="M7,2v28h7V18h-3v-2h3.184c0.302-0.847,0.971-1.697,1.816-2l0,0h-5v-2h10v2h4V2H7z M13,24v2h-2v-2H13z M21,10H11
	V8h10V10z"/>
</svg>
