<?xml version="1.0" encoding="utf-8"?>
<!-- Generator: Adobe Illustrator 25.0.1, SVG Export Plug-In . SVG Version: 6.00 Build 0)  -->
<svg version="1.1" id="Layer_1" xmlns="http://www.w3.org/2000/svg" xmlns:xlink="http://www.w3.org/1999/xlink" x="0px" y="0px"
	 width="32px" height="32px" viewBox="0 0 32 32" style="enable-background:new 0 0 32 32;" xml:space="preserve">
<style type="text/css">
	.st0{fill:#010101;}
</style>
<path class="st0" d="M25.239,20.654c0,1.226-0.223,2.402-0.672,3.529c-0.646,1.521-1.723,2.739-3.229,3.658
	s-3.242,1.379-5.207,1.379c-1.967,0-3.697-0.447-5.19-1.342c-1.493-0.895-2.576-2.114-3.248-3.658C7.42,23.534,7.125,22.8,7,22.015
	v-0.073c0-0.27,0.149-0.404,0.448-0.404h5.547c0.224,0,0.397,0.122,0.522,0.367l0.261,0.588C14.252,23.498,14.955,24,16,24
	c0.523,0,1.052-0.129,1.476-0.386c0.422-0.258,0.758-0.631,1.008-1.122c0.273-0.489,0.409-1.103,0.41-1.838
	c0.001-0.779-0.113-1.537-0.373-2.021c-0.246-0.458-0.467-0.79-0.877-1.048c-0.412-0.257-0.878-0.386-1.4-0.386
	c-0.573,0-1.108,0.135-1.605,0.404c-0.499,0.27-0.834,0.613-1.008,1.029C13.555,18.878,13.393,19,13.145,19H7.448
	c-0.125,0-0.23-0.042-0.317-0.128C7.043,18.786,7,18.683,7,18.56V3.449c0-0.122,0.043-0.226,0.13-0.312
	c0.087-0.085,0.192-0.128,0.317-0.128h16.103c0.125,0,0.23,0.043,0.318,0.128C23.955,3.223,24,3.327,24,3.449v4.109
	c0,0.123-0.045,0.227-0.131,0.312C23.781,7.958,23.676,8,23.551,8H13.187C13.062,8,13,8.062,13,8.184v4.531
	c0,0.073,0.024,0.123,0.075,0.147c0.049,0.024,0.099,0.013,0.149-0.037C14.244,12.236,15.707,12,17,12
	c1.768,0,3.349,0.383,4.694,1.266c1.344,0.882,2.314,2.083,2.912,3.603C25.028,18.045,25.239,19.478,25.239,20.654z"/>
</svg>
