<?xml version="1.0" encoding="utf-8"?>
<!-- Generator: Adobe Illustrator 25.0.0, SVG Export Plug-In . SVG Version: 6.00 Build 0)  -->
<svg version="1.1" id="Layer_1" xmlns="http://www.w3.org/2000/svg" xmlns:xlink="http://www.w3.org/1999/xlink" x="0px" y="0px"
	 width="32px" height="32px" viewBox="0 0 32 32" style="enable-background:new 0 0 32 32;" xml:space="preserve">
<style type="text/css">
	.st0{fill:#010101;}
</style>
<path class="st0" d="M23.517,29.982c-0.233,0.016-0.469,0.022-0.708,0.015c-3.859-0.105-6.817-3.336-6.809-7.206
	c0.004-1.747,0.755-3.392,1.965-4.631c0.045,0.186,0.117,0.367,0.227,0.524c0.158,0.226,0.258,0.479,0.435,0.715
	c0.182,0.243,0.36,0.489,0.54,0.734c0.054,0.074,0.033,0.205,0.044,0.309c0.046,0.446,0.133,0.861,0.461,1.216
	c0.237,0.256,0.392,0.587,0.585,0.884c0.014,0.022,0.042,0.035,0.119,0.096c-0.123-0.248-0.212-0.426-0.3-0.604
	c0.025-0.019,0.051-0.039,0.076-0.058c0.191,0.257,0.405,0.501,0.565,0.776c0.175,0.301,0.444,0.449,0.748,0.531
	c0.367,0.099,0.677,0.258,0.94,0.544c0.149,0.162,0.367,0.261,0.582,0.407c-0.003-0.029,0.007-0.006,0,0.007
	c-0.321,0.546-0.122,1.068,0.088,1.58c0.053,0.129,0.183,0.242,0.304,0.323c0.141,0.094,0.192,0.193,0.165,0.359
	c-0.091,0.553-0.211,1.105-0.248,1.663c-0.033,0.499-0.229,1.013,0.026,1.505C23.353,29.736,23.426,29.857,23.517,29.982z
	 M29.997,23.171c-0.095,3.501-2.668,6.306-6.031,6.757c-0.085-0.217-0.147-0.434,0.023-0.594c0.074-0.07,0.067-0.227,0.098-0.344
	c0.033-0.126,0.026-0.3,0.108-0.369c0.515-0.434,0.851-0.998,1.176-1.57c0.116-0.204,0.256-0.362,0.49-0.409
	c0.221-0.045,0.315-0.175,0.335-0.398c0.029-0.328,0.097-0.637,0.345-0.896c0.179-0.187,0.064-0.496-0.191-0.521
	c-0.4-0.038-0.635-0.257-0.836-0.576c-0.072-0.115-0.226-0.218-0.36-0.246c-0.543-0.115-1.089-0.217-1.64-0.286
	c-0.189-0.024-0.392,0.064-0.589,0.094c-0.055,0.008-0.145,0.016-0.165-0.013c-0.104-0.152-0.155-0.366-0.292-0.464
	c-0.176-0.127-0.252-0.24-0.138-0.52c-0.293,0.089-0.52,0.157-0.755,0.229c-0.132-0.3-0.264-0.606-0.016-0.808
	c0.175-0.143,0.472-0.141,0.717-0.191c0.358-0.073,0.3,0.334,0.566,0.445c-0.009-0.109,0.007-0.228-0.031-0.326
	c-0.067-0.17-0.02-0.27,0.102-0.4c0.144-0.153,0.223-0.366,0.355-0.532c0.184-0.232,0.39-0.447,0.592-0.664
	c0.027-0.029,0.09-0.046,0.13-0.038c0.246,0.048,0.245,0.051,0.444-0.101c-0.055-0.093-0.112-0.189-0.172-0.291
	c0.01-0.022,0.015-0.056,0.035-0.071c0.71-0.535,0.495-0.645,0.19-1.156c-0.117-0.197-0.236-0.392-0.362-0.601
	c-0.094,0.112-0.167,0.199-0.245,0.291c-0.152-0.188-0.282-0.375-0.442-0.531c-0.069-0.068-0.209-0.106-0.303-0.088
	c-0.054,0.011-0.115,0.164-0.111,0.25c0.007,0.187,0.057,0.373,0.083,0.56c0.011,0.079,0.026,0.165,0.004,0.238
	c-0.042,0.143-0.105,0.28-0.168,0.416c-0.022,0.047-0.06,0.097-0.104,0.119c-0.023,0.011-0.107-0.034-0.108-0.057
	c-0.021-0.456-0.436-0.515-0.709-0.717c-0.111-0.082-0.305-0.184-0.299-0.264c0.017-0.23,0.076-0.481,0.197-0.673
	c0.136-0.215,0.351-0.383,0.545-0.558c0.153-0.138,0.191-0.293,0.164-0.491c-0.022-0.159-0.072-0.246-0.247-0.25
	c-0.231-0.004-0.463-0.022-0.693-0.045c-0.219-0.022-0.388,0.041-0.53,0.22c-0.055,0.069-0.175,0.122-0.266,0.122
	c-0.352,0-0.743-0.063-1.113-0.049c0.715-0.378,1.501-0.641,2.332-0.761c-0.004,0.006-0.005,0.012-0.011,0.019
	c0.089,0.209,0.313,0.263,0.515,0.308c0.698,0.154,0.792,0.269,0.731,1.026c-0.083,0.02-0.176,0.043-0.297,0.073
	c0.32,0.19,0.613,0.364,0.944,0.56c-0.031-0.091-0.052-0.154-0.078-0.233c0.061-0.009,0.12-0.018,0.21-0.031
	c-0.065-0.165-0.126-0.319-0.215-0.547c0.132,0.077,0.198,0.117,0.268,0.158c0.163-0.173,0.147-0.327-0.044-0.478
	c-0.074-0.058-0.138-0.138-0.184-0.22c-0.083-0.148-0.191-0.447-0.317-0.675c0.497,0.045,0.977,0.14,1.438,0.284
	c-0.014,0.026-0.03,0.049-0.039,0.08c-0.026,0.08-0.038,0.176-0.044,0.287c-0.032,0.606,0.255,1.072,0.631,1.505
	c0.159,0.183,0.363,0.172,0.478-0.046c0.165-0.313,0.34-0.587,0.528-0.871c0.043-0.064,0.073-0.13,0.091-0.196
	C28.741,18.323,30.067,20.604,29.997,23.171z M22.807,17.784c-0.002-0.04-0.004-0.08-0.007-0.12
	c-0.086-0.071-0.171-0.141-0.279-0.23c-0.072,0.137-0.132,0.253-0.192,0.368c0.012,0.027,0.023,0.054,0.035,0.081
	C22.512,17.849,22.659,17.817,22.807,17.784z"/>
<path class="st0" d="M17.349,16c1.545-1.249,3.51-2,5.651-2h2V2H7v28h10.349C15.308,28.35,14,25.829,14,23
	c0-1.851,0.56-3.57,1.518-5H11v-2H17.349z M11,8h10v2H11V8z M11,12h10v2H11V12z M13,24v2h-2v-2H13z"/>
</svg>
