<?xml version="1.0" encoding="utf-8"?>
<!-- Generator: Adobe Illustrator 23.0.1, SVG Export Plug-In . SVG Version: 6.00 Build 0)  -->
<svg version="1.1" id="Layer_1" xmlns="http://www.w3.org/2000/svg" xmlns:xlink="http://www.w3.org/1999/xlink" x="0px" y="0px"
	 width="32px" height="32px" viewBox="0 0 32 32" style="enable-background:new 0 0 32 32;" xml:space="preserve">
<style type="text/css">
	.st0{fill:#010101;}
</style>
<path class="st0" d="M16,2C8.3,2,2,8.3,2,16c0,7.7,6.3,14,14,14c7.7,0,14-6.3,14-14C30,8.3,23.7,2,16,2z M27.5,16
	c0,1.6-0.3,3.1-0.9,4.4c-0.9-0.4-1.8-0.7-2.7-1c0.2-1.1,0.3-2.2,0.3-3.4c0-1.2-0.1-2.3-0.3-3.4c0.9-0.3,1.8-0.6,2.7-1
	C27.2,12.9,27.5,14.4,27.5,16z M16,27.4c-2.2-1.4-3.9-3.7-4.8-6.2c1.5-0.3,3.2-0.5,4.8-0.5c1.7,0,3.3,0.2,4.8,0.5
	C19.9,23.8,18.2,26,16,27.4z M16,18.2c-1.9,0-3.7,0.2-5.5,0.6c-0.2-0.9-0.3-1.8-0.3-2.7c0-0.9,0.1-1.9,0.3-2.7
	c1.8,0.4,3.6,0.6,5.5,0.6c1.9,0,3.7-0.2,5.5-0.6c0.2,0.9,0.3,1.8,0.3,2.7c0,0.9-0.1,1.9-0.2,2.7C19.7,18.4,17.9,18.2,16,18.2z
	 M4.5,16c0-1.6,0.3-3.1,0.9-4.4c0.9,0.4,1.8,0.7,2.7,1c-0.2,1.1-0.3,2.2-0.3,3.4c0,1.1,0.1,2.3,0.3,3.4c-0.9,0.3-1.8,0.6-2.7,1
	C4.8,19.1,4.5,17.6,4.5,16z M16,4.6c2.2,1.4,3.9,3.7,4.8,6.2c-1.5,0.3-3.2,0.5-4.8,0.5c-1.7,0-3.3-0.2-4.8-0.5
	C12.1,8.2,13.8,6,16,4.6z M25.4,9.4c-0.7,0.3-1.4,0.6-2.1,0.8c-0.6-1.7-1.5-3.3-2.6-4.7C22.6,6.3,24.2,7.7,25.4,9.4z M11.3,5.5
	c-1.1,1.4-2,3-2.6,4.7C8,9.9,7.3,9.7,6.6,9.4C7.8,7.7,9.4,6.3,11.3,5.5z M6.6,22.6c0.7-0.3,1.4-0.6,2.1-0.8c0.6,1.7,1.5,3.3,2.6,4.7
	C9.4,25.7,7.8,24.3,6.6,22.6z M20.7,26.5c1.1-1.4,2-3,2.6-4.7c0.7,0.2,1.4,0.5,2.1,0.8C24.2,24.3,22.6,25.7,20.7,26.5z"/>
</svg>
