<?xml version="1.0" encoding="utf-8"?>
<!-- Generator: Adobe Illustrator 25.0.1, SVG Export Plug-In . SVG Version: 6.00 Build 0)  -->
<svg version="1.1" id="Layer_1" xmlns="http://www.w3.org/2000/svg" xmlns:xlink="http://www.w3.org/1999/xlink" x="0px" y="0px"
	 width="32px" height="32px" viewBox="0 0 32 32" style="enable-background:new 0 0 32 32;" xml:space="preserve">
<style type="text/css">
	.st0{fill:#010101;}
</style>
<path class="st0" d="M16,22c-0.035,0.003-0.071,0.034-0.106,0.093l-4.235,6.61C11.535,28.901,11.35,29,11.103,29H5.419
	c-0.173,0-0.297-0.049-0.371-0.149c-0.074-0.099-0.062-0.222,0.037-0.371l7.021-12.368c0.05-0.074,0.05-0.148,0-0.223L5.085,3.52
	L5.01,3.297C5.01,3.099,5.147,3,5.419,3h5.72c0.272,0,0.458,0.099,0.557,0.297l4.197,7.629C15.929,10.973,15.965,10.997,16,11l0,0
	c0.035-0.002,0.071-0.027,0.106-0.074l4.197-7.629C20.402,3.099,20.588,3,20.86,3h5.72c0.273,0,0.409,0.099,0.409,0.297L26.915,3.52
	l-7.021,12.368c-0.05,0.074-0.05,0.148,0,0.223l7.021,12.368c0.099,0.149,0.111,0.272,0.037,0.371
	C26.878,28.951,26.754,29,26.581,29h-5.684c-0.247,0-0.433-0.099-0.557-0.297l-4.235-6.61C16.071,22.034,16.035,22.003,16,22L16,22z
	"/>
</svg>
