<?xml version="1.0" encoding="utf-8"?>
<!-- Generator: Adobe Illustrator 24.1.2, SVG Export Plug-In . SVG Version: 6.00 Build 0)  -->
<svg version="1.1" id="Layer_1" xmlns="http://www.w3.org/2000/svg" xmlns:xlink="http://www.w3.org/1999/xlink" x="0px" y="0px"
	 width="32px" height="32px" viewBox="0 0 32 32" style="enable-background:new 0 0 32 32;" xml:space="preserve">
<style type="text/css">
	.st0{fill:#010101;}
</style>
<rect x="3" y="24" class="st0" width="26" height="5"/>
<path class="st0" d="M3,3v6h26V3H3z M8,7H6V5h2V7z M11,7H9V5h2V7z M26,7h-5V5h5V7z"/>
<path class="st0" d="M3,10v6h26v-6H3z M8,14H6v-2h2V14z M11,14H9v-2h2V14z M26,14h-5v-2h5V14z"/>
<path class="st0" d="M3,17v6h26v-6H3z M8,21H6v-2h2V21z M11,21H9v-2h2V21z M26,21h-5v-2h5V21z"/>
</svg>
