<?xml version="1.0" encoding="utf-8"?>
<!-- Generator: Adobe Illustrator 23.0.1, SVG Export Plug-In . SVG Version: 6.00 Build 0)  -->
<svg version="1.1" id="Layer_1" xmlns="http://www.w3.org/2000/svg" xmlns:xlink="http://www.w3.org/1999/xlink" x="0px" y="0px"
	 width="32px" height="32px" viewBox="0 0 32 32" style="enable-background:new 0 0 32 32;" xml:space="preserve">
<style type="text/css">
	.st0{fill:#010101;}
</style>
<path class="st0" d="M28,10c0.8,0,1.4,0.2,2,0.5V6h-4.5C25.8,5.4,26,4.8,26,4c0-2.5-2.2-4-5-4s-5,1.5-5,4c0,0.8,0.2,1.4,0.5,2H6v4.5
	C5.4,10.2,4.8,10,4,10c-2.5,0-4,2.2-4,5s1.5,5,4,5c0.8,0,1.4-0.2,2-0.5V30h10.5c-0.3-0.6-0.5-1.2-0.5-2c0-2.5,2.2-4,5-4s5,1.5,5,4
	c0,0.8-0.2,1.4-0.5,2H30V19.5c-0.6,0.3-1.2,0.5-2,0.5c-2.5,0-4-2.2-4-5S25.5,10,28,10z"/>
</svg>
