<?xml version="1.0" encoding="utf-8"?>
<!-- Generator: Adobe Illustrator 25.0.1, SVG Export Plug-In . SVG Version: 6.00 Build 0)  -->
<svg version="1.1" id="Layer_1" xmlns="http://www.w3.org/2000/svg" xmlns:xlink="http://www.w3.org/1999/xlink" x="0px" y="0px"
	 width="32px" height="32px" viewBox="0 0 32 32" style="enable-background:new 0 0 32 32;" xml:space="preserve">
<style type="text/css">
	.st0{fill:#010101;}
</style>
<path class="st0" d="M25.871,3.131C25.786,3.043,25.682,3,25.559,3H6.441C6.319,3,6.215,3.043,6.128,3.131
	C6.043,3.218,6,3.323,6,3.447v5.104c0,0.125,0.043,0.23,0.128,0.317C6.215,8.957,6.319,9,6.441,9H13v19.559
	c0,0.123,0.043,0.228,0.131,0.312C13.218,28.957,13.323,29,13.448,29h5.104c0.124,0,0.229-0.043,0.316-0.129
	C18.957,28.786,19,28.682,19,28.559V9h6.559c0.123,0,0.228-0.043,0.312-0.131C25.957,8.782,26,8.677,26,8.552V3.447
	C26,3.323,25.957,3.218,25.871,3.131z"/>
</svg>
