<?xml version="1.0" encoding="utf-8"?>
<!-- Generator: Adobe Illustrator 25.0.0, SVG Export Plug-In . SVG Version: 6.00 Build 0)  -->
<svg version="1.1" id="Layer_1" xmlns="http://www.w3.org/2000/svg" xmlns:xlink="http://www.w3.org/1999/xlink" x="0px" y="0px"
	 width="32px" height="32px" viewBox="0 0 32 32" style="enable-background:new 0 0 32 32;" xml:space="preserve">
<style type="text/css">
	.st0{fill:#010101;}
</style>
<path class="st0" d="M16,30"/>
<path class="st0" d="M18,25.915C17.356,25.965,16.694,26,16,26c-7.347,0-12-3.044-12-4v4c0,0.956,4.653,4,12,4
	c0.694,0,1.356-0.035,2-0.085V25.915z"/>
<path class="st0" d="M18,19.915C17.356,19.965,16.694,20,16,20c-7.347,0-12-3.044-12-4v4c0,0.956,4.653,4,12,4
	c0.694,0,1.356-0.035,2-0.085V19.915z"/>
<path class="st0" d="M18,13.915C17.356,13.965,16.694,14,16,14c-7.347,0-12-3.044-12-4v4c0,0.956,4.653,4,12,4
	c0.694,0,1.356-0.035,2-0.085V13.915z"/>
<path class="st0" d="M18,11h5.178C26.1,10.088,28,8.638,28,7c0-2.761-5.373-5-12-5S4,4.239,4,7s5.373,5,12,5
	c0.683,0,1.348-0.029,2-0.075V11z"/>
<path class="st0" d="M20,13v17h10V13H20z M24,27h-2v-2h2V27z M28,23h-6v-1h6V23z M28,20h-6v-1h6V20z M28,17h-6v-1h6V17z"/>
</svg>
