<?xml version="1.0" encoding="utf-8"?>
<!-- Generator: Adobe Illustrator 25.0.0, SVG Export Plug-In . SVG Version: 6.00 Build 0)  -->
<svg version="1.1" id="Layer_1" xmlns="http://www.w3.org/2000/svg" xmlns:xlink="http://www.w3.org/1999/xlink" x="0px" y="0px"
	 width="32px" height="32px" viewBox="0 0 32 32" style="enable-background:new 0 0 32 32;" xml:space="preserve">
<style type="text/css">
	.st0{fill:#010101;}
</style>
<path class="st0" d="M15.054,23.912C15.104,23.999,15.277,24,15.35,24h9.217c0.121,0,0.223,0.043,0.308,0.127
	C24.958,24.215,25,24.317,25,24.44v4.119c0,0.124-0.042,0.226-0.126,0.312C24.789,28.957,24.687,29,24.566,29H7.434
	c-0.121,0-0.223-0.043-0.308-0.129C7.042,28.785,7,28.683,7,28.559v-4.076c0-0.22,0.072-0.405,0.217-0.55
	c1.446-1.371,3.542-3.343,5.928-5.913l2.168-2.314c2.192-2.301,3.289-3.979,3.289-5.032c0-0.709-0.258-1.297-0.777-1.762
	C17.308,8.447,16.638,8.2,15.819,8.2c-0.819,0-1.554,0.247-2.061,0.711C13.253,9.377,13,9.99,13,10.748v0.81
	c0,0.124,0.03,0.228-0.054,0.312C12.861,11.957,12.759,12,12.639,12H7.434c-0.121,0-0.223-0.043-0.307-0.13
	C7.042,11.785,7,11.681,7,11.558V9.793c0.096-1.371,0.542-2.571,1.338-3.599c0.795-1.029,1.843-1.818,3.145-2.37
	C12.783,3.274,14.229,3,15.819,3c1.783,0,3.344,0.336,4.681,1.009c1.336,0.674,2.361,1.585,3.072,2.737
	c0.71,1.15,1.057,2.419,1.057,3.814c0,1.004-0.233,2.024-0.714,3.053c-0.483,1.028-1.205,2.117-2.168,3.267
	c-0.676,0.832-1.435,1.678-2.278,2.535s-2.012,2.007-3.506,3.452l-0.873,0.831C15.02,23.769,15.024,23.859,15.054,23.912z"/>
</svg>
