<?xml version="1.0" encoding="utf-8"?>
<!-- Generator: Adobe Illustrator 25.0.1, SVG Export Plug-In . SVG Version: 6.00 Build 0)  -->
<svg version="1.1" id="Layer_1" xmlns="http://www.w3.org/2000/svg" xmlns:xlink="http://www.w3.org/1999/xlink" x="0px" y="0px"
	 width="32px" height="32px" viewBox="0 0 32 32" style="enable-background:new 0 0 32 32;" xml:space="preserve">
<style type="text/css">
	.st0{fill:#010101;}
</style>
<path class="st0" d="M10.786,28.501c-1.527-0.666-2.707-1.622-3.538-2.867C6.416,24.39,6,22.951,6,21.317v-0.866
	c0-0.125,0.043-0.231,0.13-0.321C6.217,20.044,6.322,20,6.447,20h5.177c0.124,0,0.229,0.044,0.317,0.131
	c0.087,0.089,0.131,0.195,0.131,0.321v0.453c0,0.829,0.41,1.701,1.229,2.317c0.82,0.616,1.925,0.924,3.314,0.924
	c1.093,0,1.9-0.238,2.422-0.716c0.52-0.478,0.781-1.031,0.781-1.66c0-0.502-0.156-0.911-0.466-1.225
	c-0.31-0.315-0.725-0.578-1.247-0.792c-0.522-0.213-6.295-2.287-7.486-2.903c-1.192-0.616-2.211-1.47-3.054-2.564
	c-0.844-1.094-1.267-2.445-1.267-4.054c0-1.559,0.403-2.922,1.211-4.092c0.807-1.169,1.93-2.067,3.371-2.696
	c1.439-0.628,3.065-0.943,4.88-0.943c1.911,0,3.63,0.353,5.158,1.056c1.528,0.704,2.724,1.697,3.595,2.979
	c0.869,1.282,1.304,2.753,1.304,4.412v0.601c0,0.126-0.045,0.232-0.131,0.321C25.597,11.956,25.491,12,25.367,12H20.19
	c-0.125,0-0.23-0.044-0.316-0.132c-0.088-0.088-0.131-0.195-0.131-0.321v-0.336c0-0.88-0.386-1.659-1.155-2.338
	c-0.77-0.679-1.8-1.018-3.09-1.018c-0.968,0-1.726,0.202-2.272,0.604c-0.547,0.403-0.819,0.968-0.819,1.697
	c0,0.553,0.173,1.012,0.521,1.377c0.347,0.365,0.887,0.704,1.621,1.018c0.731,0.315,6.461,2.357,7.43,2.81
	c0.968,0.452,1.88,1.188,2.738,2.206C25.571,18.583,26,19.922,26,21.581c0,1.635-0.409,3.042-1.23,4.224
	c-0.818,1.182-1.968,2.092-3.445,2.734c-1.477,0.641-3.198,0.962-5.158,0.962C14.106,29.5,12.313,29.167,10.786,28.501z"/>
</svg>
