<?xml version="1.0" encoding="utf-8"?>
<!-- Generator: Adobe Illustrator 23.0.1, SVG Export Plug-In . SVG Version: 6.00 Build 0)  -->
<svg version="1.1" id="Layer_1" xmlns="http://www.w3.org/2000/svg" xmlns:xlink="http://www.w3.org/1999/xlink" x="0px" y="0px"
	 width="32px" height="32px" viewBox="0 0 32 32" style="enable-background:new 0 0 32 32;" xml:space="preserve">
<style type="text/css">
	.st0{fill:#010101;}
</style>
<path class="st0" d="M26,2H10C8.9,2,8,2.9,8,4v0H7C5.3,4,4,5.3,4,7s1.3,3,3,3h1v3H7c-1.7,0-3,1.3-3,3s1.3,3,3,3h1v3H7
	c-1.7,0-3,1.3-3,3s1.3,3,3,3h1v0c0,1.1,0.9,2,2,2h16c1.1,0,2-0.9,2-2V4C28,2.9,27.1,2,26,2z M8,26H7c-0.6,0-1-0.4-1-1s0.4-1,1-1h1
	V26z M8,17H7c-0.6,0-1-0.4-1-1s0.4-1,1-1h1V17z M8,8H7C6.4,8,6,7.6,6,7s0.4-1,1-1h1V8z M18,6c2.8,0,5,2.2,5,5c0,2.8-2.2,5-5,5
	s-5-2.2-5-5C13,8.2,15.2,6,18,6z M25,24H11v-2c0-3,1.8-4,4-4h6c2.2,0,4,1,4,4V24z"/>
</svg>
