<?xml version="1.0" encoding="utf-8"?>
<!-- Generator: Adobe Illustrator 25.0.0, SVG Export Plug-In . SVG Version: 6.00 Build 0)  -->
<svg version="1.1" id="Layer_1" xmlns="http://www.w3.org/2000/svg" xmlns:xlink="http://www.w3.org/1999/xlink" x="0px" y="0px"
	 width="32px" height="32px" viewBox="0 0 32 32" style="enable-background:new 0 0 32 32;" xml:space="preserve">
<style type="text/css">
	.st0{fill:#010101;}
</style>
<path class="st0" d="M10.757,27.875c-1.505-0.751-2.674-1.816-3.507-3.196C6.416,23.299,6,21.702,6,19.886v-7.844
	c0-1.792,0.416-3.371,1.25-4.739c0.833-1.367,2.002-2.426,3.507-3.177C12.262,3.376,14.01,3,16,3c1.99,0,3.735,0.357,5.242,1.071
	c1.504,0.714,2.673,1.719,3.506,3.015S26,9.906,26,11.601c0,0.122-0.044,0.218-0.133,0.291C25.781,11.963,25.675,12,25.552,12
	h-5.161C20.092,12,20,11.868,20,11.601c0-1.138-0.486-1.75-1.184-2.427C18.121,8.495,17.144,8.2,16,8.2
	c-1.145,0-2.065,0.301-2.761,0.991C12.542,9.881,12,10.783,12,11.896v8.242c0,1.114,0.542,2.01,1.239,2.688
	C13.935,23.505,14.855,23.8,16,23.8c1.144,0,2.121-0.295,2.816-0.973C19.514,22.149,20,21.512,20,20.399
	C20,20.134,20.148,20,20.448,20h5.105c0.122,0,0.229,0.037,0.315,0.109C25.956,20.183,26,20.368,26,20.464
	c0,1.719-0.419,3.126-1.252,4.432c-0.833,1.308-2.001,2.319-3.506,3.033C19.735,28.642,17.99,29,16,29
	C14.01,29,12.262,28.624,10.757,27.875z"/>
</svg>
