<?xml version="1.0" encoding="utf-8"?>
<!-- Generator: Adobe Illustrator 25.0.1, SVG Export Plug-In . SVG Version: 6.00 Build 0)  -->
<svg version="1.1" id="Layer_1" xmlns="http://www.w3.org/2000/svg" xmlns:xlink="http://www.w3.org/1999/xlink" x="0px" y="0px"
	 width="32px" height="32px" viewBox="0 0 32 32" style="enable-background:new 0 0 32 32;" xml:space="preserve">
<style type="text/css">
	.st0{fill:#010101;}
</style>
<path class="st0" d="M10.351,28.485l8.02-19.78c0.026-0.049,0.02-0.098-0.018-0.147c-0.037-0.049-0.083-0.073-0.132-0.073h-6.032
	C12.063,8.485,12,8.547,12,8.669v1.89c0,0.123-0.043,0.227-0.132,0.313C11.781,10.957,11.675,11,11.549,11H7.452
	c-0.126,0-0.232-0.043-0.32-0.129C7.044,10.786,7,10.682,7,10.559V3.441c0-0.122,0.043-0.226,0.131-0.313
	C7.219,3.043,7.326,3,7.452,3h17.095c0.126,0,0.232,0.043,0.321,0.128C24.955,3.215,25,3.319,25,3.441v4.75
	c0,0.147-0.037,0.331-0.114,0.552l-7.945,19.926C16.866,28.89,16.691,29,16.415,29h-5.687C10.351,29,10.225,28.829,10.351,28.485z"
	/>
</svg>
