<?xml version="1.0" encoding="utf-8"?>
<!-- Generator: Adobe Illustrator 23.0.2, SVG Export Plug-In . SVG Version: 6.00 Build 0)  -->
<svg version="1.1" id="Layer_1" xmlns="http://www.w3.org/2000/svg" xmlns:xlink="http://www.w3.org/1999/xlink" x="0px" y="0px"
	 width="32px" height="32px" viewBox="0 0 32 32" style="enable-background:new 0 0 32 32;" xml:space="preserve">
<style type="text/css">
	.st0{fill:#010101;}
</style>
<path class="st0" d="M25.7,6H27V2H5v4h1.4c0.3,2.1,1.4,6.8,5.2,10c-1.7,1.7-4.7,5.4-5.1,10H5v4h22v-4h-1.5c-0.4-4.6-3.4-8.3-5.1-10
	C24.3,12.8,25.4,8.1,25.7,6z M23,26L23,26c-1.2-1.6-4.3-5.3-7-5.3c-2.7,0-5.9,3.7-7,5.3l0,0c0.5-5.1,6-10,6-10S9.1,12,9,6h14
	c-0.2,6-6,10-6,10S22.5,20.9,23,26z"/>
</svg>
