<?xml version="1.0" encoding="utf-8"?>
<!-- Generator: Adobe Illustrator 23.0.1, SVG Export Plug-In . SVG Version: 6.00 Build 0)  -->
<svg version="1.1" id="Layer_1" xmlns="http://www.w3.org/2000/svg" xmlns:xlink="http://www.w3.org/1999/xlink" x="0px" y="0px"
	 width="32px" height="32px" viewBox="0 0 32 32" style="enable-background:new 0 0 32 32;" xml:space="preserve">
<style type="text/css">
	.st0{fill:#010101;}
</style>
<path class="st0" d="M26,23c-3.4-1.8-4.6-3.1-5-5v-7c0-4.2-2.8-4.5-5-5c-0.2-1.2-0.9-2-2-2l0,0l0,0c-1.1,0-1.8,0.8-2,2
	c-2.2,0.5-5,0.8-5,5v7c-0.4,1.9-1.6,3.2-5,5v3h24V23z"/>
<path class="st0" d="M27.4,2.5C27,2,26.2,1.8,25.6,2.2c-0.6,0.4-0.7,1.1-0.3,1.6c1.4,1.7,2.1,3.9,2.1,6.2s-0.7,4.4-2.1,6.2
	c-0.4,0.5-0.3,1.3,0.3,1.6c0.2,0.1,0.5,0.2,0.7,0.2c0.4,0,0.8-0.2,1-0.5c1.7-2.1,2.6-4.8,2.6-7.5S29.1,4.6,27.4,2.5z"/>
<path class="st0" d="M22.5,15c0.2,0.1,0.5,0.2,0.7,0.2c0.4,0,0.7-0.2,1-0.5c1-1.3,1.6-3,1.6-4.7s-0.6-3.4-1.6-4.7
	C23.8,4.8,23,4.7,22.5,5c-0.5,0.4-0.7,1.1-0.3,1.6c0.7,0.9,1.1,2.2,1.1,3.4s-0.4,2.4-1.1,3.4C21.8,13.9,22,14.6,22.5,15z"/>
<path class="st0" d="M16,30h-4c-1.1,0-2-0.9-2-2v0h8v0C18,29.1,17.1,30,16,30z"/>
</svg>
