<?xml version="1.0" encoding="utf-8"?>
<!-- Generator: Adobe Illustrator 23.0.1, SVG Export Plug-In . SVG Version: 6.00 Build 0)  -->
<svg version="1.1" id="Layer_1" xmlns="http://www.w3.org/2000/svg" xmlns:xlink="http://www.w3.org/1999/xlink" x="0px" y="0px"
	 width="32px" height="32px" viewBox="0 0 32 32" style="enable-background:new 0 0 32 32;" xml:space="preserve">
<style type="text/css">
	.st0{fill:#010101;}
</style>
<g>
	<path class="st0" d="M9.3,25.2l0.7-4.5c0.2-1.4,0.8-2.7,1.6-3.7L10,13H8c-2.1,0-3.7,1.7-4,4l-0.7,4.5C3.2,22.5,4.1,23,5,23h1l0.6,4
		c0.1,0.8,0.6,1,1.4,1h2.3c-0.1-0.1-0.2-0.2-0.3-0.2C9.5,27.1,9.2,26.2,9.3,25.2z"/>
	<path class="st0" d="M16.9,2.6C15.9,1,14.1,0,12,0C8.7,0,6,2.7,6,6s2.7,6,6,6c0.1,0,0.2,0,0.3,0c-0.2-0.6-0.3-1.3-0.3-2
		C12,6.7,14,3.8,16.9,2.6z"/>
</g>
<g>
	<path class="st0" d="M28.7,25.5L28,21c-0.3-2.4-1.9-4-4-4h-2l-2,5l-2-5h-2c-2.1,0-3.7,1.7-4,4l-0.7,4.5C11.2,26.5,12.1,27,13,27h1
		l0.6,4c0.1,0.8,0.6,1,1.4,1h8c0.8,0,1.3-0.2,1.4-1l0.6-4h1C27.9,27,28.8,26.5,28.7,25.5z"/>
	<circle class="st0" cx="20" cy="10" r="6"/>
</g>
</svg>
