<?xml version="1.0" encoding="utf-8"?>
<!-- Generator: Adobe Illustrator 25.0.1, SVG Export Plug-In . SVG Version: 6.00 Build 0)  -->
<svg version="1.1" id="Layer_1" xmlns="http://www.w3.org/2000/svg" xmlns:xlink="http://www.w3.org/1999/xlink" x="0px" y="0px"
	 width="32px" height="32px" viewBox="0 0 32 32" style="enable-background:new 0 0 32 32;" xml:space="preserve">
<style type="text/css">
	.st0{fill:#010101;}
</style>
<path class="st0" d="M6.131,28.871C6.043,28.786,6,28.682,6,28.559V3.441c0-0.122,0.043-0.226,0.131-0.312
	C6.218,3.043,6.323,3,6.448,3h5.104c0.125,0,0.23,0.043,0.317,0.128C11.956,3.215,12,3.319,12,3.441v9.824
	c0,0.074,0.024,0.117,0.075,0.128c0.049,0.013,0.099-0.005,0.149-0.055l7.832-10.081C20.205,3.086,20.379,3,20.578,3h6.047
	C26.875,3,27,3.086,27,3.257c0,0.073-0.039,0.172-0.113,0.294l-8.107,10.89c-0.05,0.099-0.062,0.184-0.037,0.257l8.48,13.787
	c0.105,0.164,0.074,0.257,0.074,0.257C27.262,28.906,27.174,29,26.924,29h-5.979c-0.273,0-0.46-0.098-0.56-0.294l-5.861-9.816
	c-0.075-0.147-0.163-0.147-0.262,0l-2.188,2.61C12.024,21.599,12,21.672,12,21.721v6.838c0,0.123-0.044,0.228-0.131,0.312
	C11.782,28.957,11.676,29,11.552,29H6.448C6.323,29,6.218,28.957,6.131,28.871z"/>
</svg>
